# Blender v2.80 (sub 75) OBJ File: 'field.blend'
# www.blender.org
v -16.024832 10.767717 -1.276381
v -16.013796 10.776846 -1.279402
v -16.022552 10.904333 -1.275381
v -16.015734 10.888022 -1.324536
v -15.966353 10.618385 -1.544086
v -15.982560 10.686506 -1.567597
v -15.960644 10.579301 -1.553381
v -16.102621 11.544199 -1.401658
v -16.098463 11.666819 -1.307324
v -16.126579 11.624081 -1.396794
v -16.088011 11.514679 -1.529138
v -16.058449 11.493225 -1.503019
v -16.161491 10.773836 -1.312326
v -16.151991 10.769368 -1.302526
v -16.153877 10.831490 -1.294088
v -16.134054 11.540384 -1.496436
v -16.157652 11.483626 -1.455831
v -16.147663 11.499882 -1.541353
v -16.032312 11.513135 -1.523432
v -16.173613 11.494606 -1.548241
v -16.033625 11.491156 -1.379803
v -16.020836 11.444521 -1.422523
v -16.022783 11.670124 -1.383605
v -16.059618 11.581093 -1.334301
v -16.066008 11.466784 -1.330516
v -16.075813 11.713861 -1.291535
v -16.093939 11.464236 -1.326936
v -16.108921 11.582396 -1.344274
v -16.099977 11.291280 -1.369416
v -16.097353 11.250388 -1.322406
v -16.036297 11.378151 -1.436028
v -16.075251 11.411106 -1.442297
v -16.008720 10.937731 -1.315368
v -16.033733 10.904822 -1.332638
v -15.961681 11.206482 -1.683142
v -15.968102 11.217995 -1.725439
v -15.977624 11.329114 -1.783500
v -15.980850 11.413681 -1.717803
v -15.979644 11.256088 -1.659011
v -15.993078 11.437391 -1.680300
v -16.016764 11.423073 -1.654352
v -16.018904 11.236864 -1.653419
v -16.026413 11.242114 -1.684245
v -16.043737 11.335512 -1.732292
v -16.008175 11.262658 -1.766077
v -15.999664 11.147326 -1.709236
v -15.977068 10.772748 -1.611143
v -16.187963 11.215963 -1.402468
v -16.205986 11.405748 -1.371846
v -16.233980 11.547832 -1.485917
v -16.202841 11.415824 -1.469927
v -16.175308 11.410693 -1.476832
v -16.163403 11.223845 -1.412527
v -16.156082 11.382739 -1.353907
v -16.170065 11.575940 -1.398321
v -16.213020 11.664175 -1.326221
v -16.143335 10.955092 -1.334628
v -16.197319 11.513871 -1.344990
v -16.192274 11.438125 -1.351053
v -16.093435 11.208985 -1.680927
v -16.077110 11.302293 -1.750723
v -16.104973 11.381050 -1.672571
v -16.086405 10.730963 -1.584696
v -16.080544 10.701019 -1.607216
v -16.092812 11.152493 -1.724282
v -16.115597 11.265915 -1.673602
v -16.136932 11.206890 -1.745373
v -16.090487 10.574783 -1.576329
v -16.160767 11.423594 -1.723565
v -16.098604 11.244432 -1.787111
v -16.108313 11.145964 -1.737815
v -16.050961 10.888350 -1.275275
v -16.053076 10.912423 -1.316364
v -16.153702 10.901048 -1.348220
v -16.169825 10.857971 -1.307704
v -16.115053 10.831600 -1.608773
v -16.090124 10.563868 -1.563884
v -16.006849 11.580769 -1.518337
v -16.155355 11.623269 -1.399051
v -16.245546 11.794517 -1.254813
v -16.052168 11.404860 -1.660401
v -15.990285 11.238630 -1.752636
v -16.299065 11.765897 -1.340947
v -16.212381 11.550215 -1.560048
v -16.140482 11.280788 -1.686892
vn 0.2732 -0.0095 0.9619
vn 0.2709 -0.0115 0.9625
vn 0.2727 -0.0125 0.9620
vn 0.0554 -0.3735 -0.9260
vn 0.0635 -0.3725 -0.9259
vn 0.0590 -0.3761 -0.9247
vn -0.9721 -0.1786 0.1519
vn -0.9717 -0.1794 0.1534
vn -0.9721 -0.1776 0.1532
vn -0.8682 -0.2777 0.4113
vn -0.8700 -0.3060 0.3867
vn -0.8462 -0.3136 0.4308
vn -0.6400 -0.7624 0.0952
vn -0.6339 -0.7645 0.1173
vn -0.6508 -0.7517 0.1062
vn -0.7431 -0.1089 0.6603
vn -0.7401 -0.1110 0.6633
vn -0.7405 -0.1138 0.6624
vn 0.9257 -0.3768 0.0332
vn 0.9342 -0.3550 0.0352
vn 0.9327 -0.3567 0.0540
vn 0.0462 -0.7364 -0.6750
vn 0.0639 -0.7482 -0.6604
vn 0.0324 -0.7509 -0.6596
vn 0.2547 -0.9578 -0.1331
vn 0.2242 -0.9629 -0.1502
vn 0.2360 -0.9582 -0.1615
vn 0.9415 -0.0491 0.3334
vn 0.9403 -0.0487 0.3368
vn 0.9403 -0.0584 0.3353
vn 0.8325 -0.0360 0.5528
vn 0.8309 -0.0468 0.5544
vn 0.8393 -0.0410 0.5421
vn 0.8436 -0.0250 0.5364
vn 0.8406 -0.0282 0.5410
vn 0.8429 -0.0412 0.5365
vn 0.8533 -0.0519 0.5189
vn 0.8469 -0.0662 0.5276
vn 0.8646 -0.0940 0.4935
vn -0.0243 -0.2976 0.9544
vn -0.0271 -0.3487 0.9368
vn 0.0065 -0.2972 0.9548
vn 0.4506 -0.0703 0.8900
vn 0.4392 -0.0753 0.8952
vn 0.4585 -0.1045 0.8825
vn -0.9947 -0.0286 -0.0986
vn -0.9959 -0.0255 -0.0872
vn -0.9953 -0.0209 -0.0945
vn -0.9991 -0.0319 0.0281
vn -0.9991 -0.0323 0.0266
vn -0.9988 -0.0405 0.0269
vn -0.3138 -0.5327 -0.7860
vn -0.3151 -0.5208 -0.7934
vn -0.3118 -0.5215 -0.7942
vn 0.8476 -0.0900 -0.5229
vn 0.8465 -0.0920 -0.5244
vn 0.8467 -0.0890 -0.5246
vn -0.0246 -0.2146 -0.9764
vn -0.0236 -0.2108 -0.9773
vn -0.0222 -0.2158 -0.9762
vn 0.9888 0.0078 -0.1492
vn 0.9889 0.0091 -0.1482
vn 0.9905 -0.0079 -0.1372
vn 0.9948 0.0834 -0.0578
vn 0.9952 0.0894 -0.0398
vn 0.9955 0.0733 -0.0600
vn 0.6935 0.1368 0.7074
vn 0.6758 0.0970 0.7307
vn 0.7296 0.1106 0.6749
vn 0.1450 -0.0503 0.9882
vn 0.1406 0.0051 0.9901
vn 0.1373 0.0042 0.9905
vn 0.0545 0.1769 0.9827
vn 0.0526 0.1795 0.9823
vn 0.0516 0.1762 0.9830
vn -0.9071 -0.3118 -0.2828
vn -0.9027 -0.3267 -0.2800
vn -0.9132 -0.3075 -0.2675
vn -0.9443 -0.1997 -0.2615
vn -0.9460 -0.2080 -0.2486
vn -0.9452 -0.1970 -0.2603
vn -0.9718 -0.0290 0.2339
vn -0.9724 -0.0271 0.2319
vn -0.9727 -0.0295 0.2304
vn 0.0629 -0.2490 -0.9665
vn 0.0620 -0.2510 -0.9660
vn 0.0621 -0.2482 -0.9667
vn -0.9885 -0.1093 0.1045
vn -0.9884 -0.1111 0.1033
vn -0.9876 -0.1150 0.1065
vn -0.7843 -0.2543 -0.5659
vn -0.7756 -0.2514 -0.5789
vn -0.7746 -0.2576 -0.5776
vn -0.2868 -0.6093 -0.7393
vn -0.3016 -0.6356 -0.7106
vn -0.3025 -0.6104 -0.7321
vn 0.8995 -0.0922 -0.4271
vn 0.8955 -0.0989 -0.4340
vn 0.8963 -0.0889 -0.4345
vn -0.2917 -0.3294 -0.8980
vn -0.2865 -0.3241 -0.9016
vn -0.2753 -0.3359 -0.9008
vn 0.9190 0.1522 0.3638
vn 0.9162 0.1466 0.3729
vn 0.9284 0.1144 0.3536
vn 0.9933 0.0904 0.0714
vn 0.9929 0.0892 0.0792
vn 0.9944 0.0786 0.0704
vn 0.9995 0.0245 0.0181
vn 0.9995 0.0298 0.0127
vn 0.9994 0.0322 0.0145
vn -0.2533 -0.1839 0.9497
vn -0.2448 -0.1473 0.9583
vn -0.2591 -0.1442 0.9550
vn -0.0462 -0.0969 0.9942
vn -0.0437 -0.0802 0.9958
vn -0.0495 -0.0809 0.9955
vn 0.9557 0.0531 0.2894
vn 0.9533 0.0489 0.2979
vn 0.9582 0.0397 0.2832
vn 0.9812 0.0487 0.1869
vn 0.9813 0.0526 0.1850
vn 0.9810 0.0528 0.1865
vn 0.9997 0.0222 -0.0141
vn 0.9997 0.0200 -0.0165
vn 0.9996 0.0240 -0.0159
vn 0.6502 0.1586 0.7430
vn 0.6533 0.1555 0.7410
vn 0.6526 0.1604 0.7406
vn -0.9906 -0.0973 -0.0966
vn -0.9903 -0.0974 -0.0986
vn -0.9881 -0.1192 -0.0967
vn -0.5175 -0.3428 -0.7840
vn -0.5216 -0.3464 -0.7797
vn -0.5195 -0.3397 -0.7841
vn 0.6951 -0.3744 -0.6137
vn 0.6941 -0.3818 -0.6103
vn 0.6935 -0.3747 -0.6153
vn -0.3293 -0.2667 -0.9058
vn -0.3281 -0.2648 -0.9068
vn -0.3276 -0.2688 -0.9058
vn 0.9298 0.0517 0.3645
vn 0.9294 0.0543 0.3650
vn 0.9292 0.0510 0.3660
vn 0.9742 0.0663 0.2155
vn 0.9739 0.0705 0.2160
vn 0.9738 0.0678 0.2171
vn 0.1169 0.1069 0.9874
vn 0.1138 0.1020 0.9883
vn 0.1221 0.1029 0.9872
vn -0.6029 0.0207 0.7976
vn -0.6025 0.0266 0.7977
vn -0.6032 0.0275 0.7971
vn -0.6751 -0.2073 -0.7080
vn -0.6761 -0.2110 -0.7060
vn -0.6777 -0.2063 -0.7058
vn -0.6790 -0.3174 -0.6620
vn -0.6817 -0.3169 -0.6594
vn -0.6806 -0.3137 -0.6622
vn 0.9491 0.0643 0.3083
vn 0.9495 0.0655 0.3068
vn 0.9491 0.0660 0.3081
vn -0.8777 -0.1694 -0.4482
vn -0.8777 -0.1711 -0.4476
vn -0.8783 -0.1702 -0.4468
vn 0.3608 -0.2383 -0.9017
vn 0.3598 -0.2405 -0.9015
vn 0.3598 -0.2383 -0.9021
vn -0.3167 -0.1956 -0.9281
vn -0.3194 -0.1971 -0.9269
vn -0.3178 -0.1928 -0.9283
vn 0.9254 0.0424 0.3767
vn 0.9254 0.0459 0.3762
vn 0.9247 0.0448 0.3781
vn 0.9701 -0.0051 0.2425
vn 0.9706 -0.0035 0.2406
vn 0.9702 -0.0009 0.2421
vn 0.5228 -0.1496 -0.8392
vn 0.5256 -0.1510 -0.8372
vn 0.5227 -0.1580 -0.8377
vn -0.6148 0.0364 0.7878
vn -0.6141 0.0295 0.7887
vn -0.6137 0.0357 0.7887
vn -0.2982 0.1408 0.9441
vn -0.3000 0.1420 0.9433
vn -0.2995 0.1372 0.9442
vn -0.9930 -0.1024 -0.0595
vn -0.9930 -0.1005 -0.0619
vn -0.9927 -0.1041 -0.0609
vn 0.3168 -0.2504 -0.9149
vn 0.3159 -0.2491 -0.9155
vn 0.3167 -0.2473 -0.9157
vn 0.0671 -0.3774 -0.9236
vn 0.9924 -0.0204 0.1214
vn 0.9919 -0.0117 0.1261
vn 0.9898 -0.0175 0.1414
vn -0.9587 -0.2798 -0.0500
vn -0.9458 -0.3179 -0.0663
vn -0.9602 -0.2781 -0.0278
vn 0.6374 -0.2430 -0.7312
vn 0.6387 -0.2445 -0.7296
vn 0.6380 -0.2468 -0.7294
vn -0.7443 -0.1109 0.6586
vn 0.9864 -0.1086 -0.1232
vn 0.9865 -0.1060 -0.1250
vn 0.9867 -0.1067 -0.1225
vn 0.9109 -0.1218 0.3943
vn 0.9215 -0.1179 0.3701
vn 0.9199 -0.1050 0.3778
vn 0.8645 -0.2551 0.4331
vn 0.8691 -0.2803 0.4075
vn 0.8755 -0.2585 0.4084
vn 0.7408 -0.1770 0.6479
vn 0.7061 -0.1801 0.6848
vn 0.7276 -0.2299 0.6464
vn 0.9581 -0.1880 -0.2160
vn 0.9571 -0.1762 -0.2302
vn 0.9575 -0.1750 -0.2294
vn 0.1288 0.0301 0.9912
vn 0.1212 0.0293 0.9922
vn 0.1226 0.0139 0.9924
vn -0.9179 -0.0528 0.3932
vn -0.9176 -0.0885 0.3874
vn -0.9145 -0.0609 0.4000
vn -0.6597 0.0190 0.7513
vn -0.6602 0.0273 0.7506
vn -0.6642 0.0241 0.7471
vn -0.9371 0.2335 -0.2593
vn -0.9419 0.2010 -0.2692
vn -0.9399 0.2334 -0.2493
vn -0.9279 -0.0769 -0.3647
vn -0.9255 -0.0854 -0.3690
vn -0.9318 -0.0839 -0.3531
vn -0.9097 -0.0604 -0.4109
vn -0.9090 -0.0696 -0.4110
vn -0.9109 -0.0618 -0.4079
vn -0.2410 -0.5210 -0.8188
vn -0.2286 -0.5254 -0.8195
vn -0.2454 -0.5358 -0.8079
vn 0.9733 0.0863 0.2125
vn 0.9638 0.1292 0.2331
vn 0.9626 0.1233 0.2414
vn 0.8962 0.1177 0.4277
vn 0.9002 0.0692 0.4299
vn 0.8973 0.1173 0.4255
vn -0.1720 0.0090 0.9851
vn -0.1985 -0.0397 0.9793
vn -0.1519 -0.0073 0.9884
vn -0.9626 -0.1804 0.2021
vn -0.9575 -0.2062 0.2016
vn -0.9621 -0.1802 0.2044
vn -0.9863 -0.1600 0.0400
vn -0.9827 -0.1831 0.0282
vn -0.9849 -0.1638 0.0553
vn -0.9078 -0.1556 -0.3895
vn -0.9083 -0.1541 -0.3890
vn -0.9081 -0.1526 -0.3899
vn 0.0890 -0.4340 -0.8965
vn 0.0940 -0.4479 -0.8891
vn 0.0846 -0.4318 -0.8980
vn 0.5315 -0.4067 -0.7431
vn 0.5313 -0.4127 -0.7399
vn 0.5303 -0.4089 -0.7427
vn -0.9513 -0.3060 0.0384
vn -0.9450 -0.3251 0.0364
vn -0.9494 -0.3106 0.0457
vn -0.9103 0.1360 0.3909
vn -0.9128 0.1331 0.3861
vn -0.9096 0.1311 0.3943
vn -0.9250 -0.2551 -0.2815
vn -0.9286 -0.2621 -0.2626
vn -0.9291 -0.2379 -0.2830
vn -0.5089 -0.4916 -0.7066
vn -0.5034 -0.5196 -0.6903
vn -0.5342 -0.4989 -0.6825
vn 0.9638 -0.1832 -0.1936
vn 0.9665 -0.1727 -0.1897
vn 0.9674 -0.1934 -0.1632
vn -0.2656 -0.3356 -0.9038
vn -0.2684 -0.3269 -0.9061
vn -0.2647 -0.3279 -0.9069
vn -0.3736 -0.1475 0.9158
vn -0.3295 -0.1647 0.9297
vn -0.3409 -0.1374 0.9300
vn -0.1998 -0.0903 0.9757
vn -0.1804 -0.1056 0.9779
vn -0.1870 -0.0853 0.9787
vn 0.9537 -0.2668 -0.1387
vn 0.9551 -0.2664 -0.1296
vn 0.9514 -0.2764 -0.1360
vn 0.9985 0.0375 -0.0388
vn 0.9986 0.0404 -0.0354
vn 0.9990 0.0343 -0.0301
vn 0.2443 -0.0309 0.9692
vn 0.2404 -0.0278 0.9703
vn 0.2414 -0.0437 0.9694
vn -0.9911 -0.1311 -0.0252
vn -0.9914 -0.1292 -0.0232
vn -0.9913 -0.1293 -0.0259
vn -0.3999 0.1306 0.9072
vn -0.4030 0.1362 0.9050
vn -0.4058 0.1331 0.9042
vn -0.6915 0.0654 0.7195
vn -0.6940 0.0865 0.7147
vn -0.6974 0.0820 0.7120
vn -0.9555 -0.1445 -0.2574
vn -0.9574 -0.1228 -0.2614
vn -0.9568 -0.1247 -0.2627
vn 0.8008 0.1172 0.5873
vn 0.8044 0.1166 0.5825
vn 0.8016 0.1203 0.5856
vn 0.9171 0.0873 0.3890
vn 0.9163 0.0873 0.3908
vn 0.9170 0.0839 0.3899
vn 0.0088 -0.0080 0.9999
vn 0.0077 -0.0053 1.0000
vn 0.0074 -0.0081 0.9999
vn -0.0441 0.0869 0.9952
vn -0.0454 0.0865 0.9952
vn -0.0441 0.0802 0.9958
vn -0.8043 -0.1767 -0.5674
vn -0.8033 -0.1800 -0.5677
vn -0.8042 -0.1814 -0.5660
vn -0.9746 -0.2122 -0.0718
vn -0.9753 -0.2083 -0.0735
vn -0.9747 -0.2109 -0.0741
vn -0.9918 -0.0769 -0.1018
vn -0.9917 -0.0765 -0.1033
vn -0.9915 -0.0790 -0.1031
vn 0.4822 0.0934 -0.8711
vn 0.4791 0.0918 -0.8730
vn 0.4794 0.0957 -0.8724
vn 0.6894 -0.1486 -0.7089
vn 0.6887 -0.1528 -0.7088
vn 0.6875 -0.1508 -0.7104
vn 0.9625 -0.0892 -0.2561
vn 0.9619 -0.0897 -0.2583
vn 0.9621 -0.0862 -0.2588
vn 0.8852 0.1006 0.4543
vn 0.8861 0.0979 0.4530
vn 0.8857 0.1015 0.4531
vn 0.9868 -0.0321 -0.1586
vn 0.9869 -0.0304 -0.1584
vn 0.9871 -0.0319 -0.1567
vn -0.7392 0.0571 0.6711
vn -0.7388 0.0538 0.6717
vn -0.7384 0.0565 0.6720
vn -0.7884 -0.2377 -0.5673
vn -0.7886 -0.2356 -0.5679
vn -0.7878 -0.2369 -0.5685
vn -0.8397 0.0076 0.5430
vn -0.8405 0.0090 0.5417
vn -0.8412 0.0025 0.5408
vn -0.5318 -0.2011 -0.8226
vn -0.5332 -0.2000 -0.8220
vn -0.5319 -0.1987 -0.8232
vn 0.9412 -0.1014 -0.3223
vn 0.9415 -0.0972 -0.3227
vn 0.9420 -0.0991 -0.3205
vn 0.9072 -0.0700 -0.4149
vn 0.9080 -0.0684 -0.4134
vn 0.9080 -0.0770 -0.4119
vn 0.2378 0.1072 0.9654
vn 0.2360 0.1050 0.9661
vn 0.2398 0.1005 0.9656
vn 0.9705 0.0070 0.2408
vn 0.9705 0.0107 0.2407
vn 0.9702 0.0085 0.2423
vn -0.3472 0.1220 0.9298
vn -0.3475 0.1258 0.9292
vn -0.3489 0.1227 0.9291
vn 0.6881 -0.1656 -0.7065
vn 0.6861 -0.1663 -0.7083
vn 0.6871 -0.1640 -0.7078
vn 0.7220 -0.2332 0.6514
vn 0.7056 -0.1994 0.6800
vn 0.6938 -0.2171 0.6867
vn 0.9034 -0.3028 -0.3037
vn 0.8917 -0.3285 -0.3114
vn 0.8959 -0.3123 -0.3160
vn -0.9896 -0.1310 -0.0590
vn -0.9896 -0.1319 -0.0576
vn -0.9900 -0.1285 -0.0586
vn -0.9847 -0.0908 -0.1488
vn -0.9849 -0.0884 -0.1492
vn -0.9846 -0.0897 -0.1502
s 1
f 1//1 2//2 3//3
f 2//4 1//5 4//6
f 5//7 6//8 7//9
f 8//10 9//11 10//12
f 8//13 11//14 12//15
f 13//16 14//17 15//18
f 16//19 17//20 18//21
f 12//22 11//23 19//24
f 20//25 18//26 17//27
f 21//28 22//29 23//30
f 21//31 23//32 24//33
f 25//34 21//35 24//36
f 24//37 23//38 26//39
f 24//40 26//41 9//42
f 27//43 24//44 9//45
f 28//46 8//47 29//48
f 29//49 30//50 28//51
f 12//52 31//53 32//54
f 31//55 22//56 33//57
f 31//58 34//59 32//60
f 35//61 36//62 37//63
f 35//64 37//65 38//66
f 39//67 40//68 41//69
f 41//70 42//71 39//72
f 42//73 5//74 39//75
f 43//76 44//77 45//78
f 43//79 45//80 46//81
f 43//82 6//83 42//84
f 46//85 36//86 47//87
f 48//88 49//89 50//90
f 51//91 48//92 50//93
f 51//94 20//95 52//96
f 52//97 17//98 53//99
f 52//100 48//101 51//102
f 54//103 55//104 56//105
f 54//106 17//107 55//108
f 17//109 54//110 57//111
f 56//112 58//113 54//114
f 58//115 59//116 54//117
f 60//118 61//119 62//120
f 60//121 63//122 64//123
f 65//124 60//125 64//126
f 60//127 66//128 63//129
f 67//130 68//131 69//132
f 67//133 70//134 71//135
f 71//136 70//137 65//138
f 71//139 68//140 67//141
f 3//142 2//143 33//144
f 21//145 33//146 22//147
f 3//148 25//149 27//150
f 27//151 30//152 72//153
f 73//154 32//155 34//156
f 73//157 34//158 1//159
f 35//160 5//161 7//162
f 6//163 46//164 47//165
f 47//166 36//167 7//168
f 48//169 53//170 74//171
f 54//172 15//173 57//174
f 57//175 15//176 14//177
f 74//178 53//179 17//180
f 15//181 59//182 75//183
f 76//184 63//185 66//186
f 68//187 77//188 76//189
f 71//190 64//191 68//192
f 4//6 1//5 34//193
f 23//194 22//195 78//196
f 8//197 10//198 11//199
f 14//200 13//201 74//202
f 75//203 13//16 15//18
f 64//204 77//205 68//206
f 16//207 55//208 17//209
f 16//210 79//211 55//212
f 56//213 79//214 80//215
f 19//216 22//217 31//218
f 27//219 25//220 24//221
f 27//222 9//223 28//224
f 28//225 30//226 27//227
f 28//228 9//229 8//230
f 32//231 8//232 12//233
f 29//234 8//235 32//236
f 31//237 12//238 19//239
f 40//240 35//241 38//242
f 35//243 40//244 39//245
f 42//246 41//247 81//248
f 42//249 81//250 43//251
f 43//252 81//253 44//254
f 43//255 46//256 6//257
f 46//258 45//259 82//260
f 46//261 82//262 36//263
f 59//264 83//265 50//266
f 49//267 59//268 50//269
f 50//270 84//271 51//272
f 51//273 84//274 20//275
f 17//276 52//277 20//278
f 52//279 53//280 48//281
f 56//282 83//283 58//284
f 58//285 83//286 59//287
f 60//288 70//289 61//290
f 60//291 65//292 70//293
f 66//294 60//295 62//296
f 30//297 73//298 72//299
f 85//300 76//301 66//302
f 69//303 76//304 85//305
f 69//306 68//307 76//308
f 21//309 25//310 3//311
f 3//312 33//313 21//314
f 72//315 1//316 3//317
f 72//318 3//319 27//320
f 73//321 29//322 32//323
f 73//324 1//325 72//326
f 48//327 75//328 49//329
f 34//330 33//331 4//332
f 34//333 31//334 33//335
f 4//336 33//337 2//338
f 35//339 39//340 5//341
f 35//342 7//343 36//344
f 5//345 42//346 6//347
f 47//348 7//349 6//350
f 49//351 75//352 59//353
f 48//354 74//355 13//356
f 57//357 14//358 74//359
f 57//360 74//361 17//362
f 15//363 54//364 59//365
f 63//366 77//367 64//368
f 76//369 77//370 63//371
f 71//372 65//373 64//374
f 56//375 55//376 79//377
f 19//378 78//379 22//380
f 30//381 29//382 73//383
f 48//384 13//385 75//386
