# Blender v2.80 (sub 75) OBJ File: 'field.blend'
# www.blender.org
v 6.135909 -11.015107 -3.298068
v 6.147779 -11.014376 -3.306600
v 6.183619 -10.910191 -3.371459
v 6.168627 -10.947923 -3.404325
v 6.053127 -11.276920 -3.446350
v 6.053881 -11.227589 -3.501321
v 6.042263 -11.313841 -3.433490
v 6.284846 -10.436803 -3.815805
v 6.359253 -10.301627 -3.803859
v 6.291643 -10.362165 -3.852706
v 6.247482 -10.523411 -3.907670
v 6.274915 -10.541537 -3.877089
v 6.005151 -10.965091 -3.318221
v 6.015221 -10.968410 -3.308533
v 6.036859 -10.915804 -3.334958
v 6.225529 -10.468178 -3.889849
v 6.198636 -10.483164 -3.822922
v 6.185710 -10.513506 -3.904102
v 6.298246 -10.547079 -3.907439
v 6.158723 -10.509007 -3.904494
v 6.335453 -10.498965 -3.775474
v 6.317740 -10.559908 -3.787117
v 6.403303 -10.367350 -3.876643
v 6.356705 -10.397400 -3.783692
v 6.314274 -10.481096 -3.717994
v 6.400009 -10.268394 -3.818342
v 6.289762 -10.468899 -3.710931
v 6.310182 -10.378708 -3.787972
v 6.213457 -10.618814 -3.652128
v 6.217157 -10.630462 -3.590976
v 6.277674 -10.610271 -3.760950
v 6.252032 -10.570128 -3.780280
v 6.194277 -10.908574 -3.424274
v 6.155645 -10.930497 -3.418457
v 6.208353 -10.887341 -3.881493
v 6.193026 -10.894558 -3.922429
v 6.203008 -10.830544 -4.030187
v 6.249116 -10.734291 -4.020829
v 6.216548 -10.830124 -3.886483
v 6.258055 -10.693645 -4.001178
v 6.240518 -10.682403 -3.969471
v 6.177079 -10.824810 -3.867614
v 6.162351 -10.831222 -3.895475
v 6.162704 -10.772888 -3.984519
v 6.159350 -10.860303 -3.976694
v 6.146682 -10.927662 -3.867575
v 6.073550 -11.183018 -3.584931
v 6.099800 -10.652262 -3.630444
v 6.156558 -10.483860 -3.705945
v 6.142608 -10.412782 -3.875465
v 6.131508 -10.521536 -3.793605
v 6.152060 -10.540976 -3.799246
v 6.121031 -10.661735 -3.645480
v 6.198936 -10.516006 -3.683312
v 6.236555 -10.380476 -3.823710
v 6.250634 -10.260655 -3.807162
v 6.074375 -10.843303 -3.436783
v 6.208698 -10.392205 -3.742926
v 6.186097 -10.455687 -3.707443
v 6.092886 -10.825184 -3.868296
v 6.116176 -10.791814 -3.978697
v 6.142437 -10.683379 -3.953415
v 5.970988 -11.154257 -3.529669
v 5.959090 -11.190126 -3.532819
v 6.060894 -10.888556 -3.873956
v 6.094440 -10.767972 -3.890881
v 6.033071 -10.836188 -3.916780
v 5.918161 -11.269264 -3.437685
v 6.090802 -10.648344 -4.013663
v 6.066303 -10.843170 -3.975665
v 6.040658 -10.892707 -3.880225
v 6.153117 -10.909716 -3.359973
v 6.146167 -10.908625 -3.407120
v 6.042900 -10.886477 -3.417856
v 6.027161 -10.894300 -3.359135
v 5.971311 -11.074478 -3.601528
v 5.918815 -11.272268 -3.421415
v 6.344938 -10.504012 -3.942278
v 6.265102 -10.350870 -3.851377
v 6.287739 -10.113320 -3.815006
v 6.201106 -10.683267 -3.961243
v 6.171531 -10.880863 -3.954178
v 6.203321 -10.150040 -3.866265
v 6.139008 -10.453939 -3.940738
v 6.073054 -10.751268 -3.907637
vn 0.5453 0.3017 0.7820
vn 0.5427 0.3015 0.7839
vn 0.5439 0.2996 0.7838
vn -0.3692 -0.7291 -0.5763
vn -0.3617 -0.7319 -0.5775
vn -0.3665 -0.7322 -0.5741
vn -0.8743 0.3674 0.3174
vn -0.8737 0.3672 0.3190
vn -0.8735 0.3688 0.3179
vn -0.7324 0.3606 0.5776
vn -0.7512 0.3285 0.5725
vn -0.7186 0.3317 0.6112
vn -0.7913 -0.2583 0.5543
vn -0.7795 -0.2527 0.5732
vn -0.7938 -0.2402 0.5587
vn -0.4861 0.5464 0.6820
vn -0.4831 0.5448 0.6854
vn -0.4847 0.5424 0.6862
vn 0.7075 -0.6922 0.1426
vn 0.7229 -0.6783 0.1316
vn 0.7269 -0.6705 0.1484
vn -0.4181 -0.8925 -0.1693
vn -0.4017 -0.9030 -0.1524
vn -0.4303 -0.8906 -0.1472
vn -0.1342 -0.9139 0.3831
vn -0.1685 -0.9118 0.3746
vn -0.1600 -0.9186 0.3615
vn 0.9258 -0.3115 0.2142
vn 0.9260 -0.3091 0.2170
vn 0.9222 -0.3172 0.2210
vn 0.9032 -0.1538 0.4008
vn 0.8987 -0.1607 0.4081
vn 0.9041 -0.1655 0.3940
vn 0.9114 -0.1577 0.3801
vn 0.9091 -0.1567 0.3860
vn 0.9054 -0.1698 0.3891
vn 0.9055 -0.1907 0.3791
vn 0.8979 -0.1949 0.3948
vn 0.8936 -0.2396 0.3796
vn 0.1831 0.2097 0.9605
vn 0.1580 0.1636 0.9738
vn 0.2108 0.1964 0.9576
vn 0.6598 0.1428 0.7378
vn 0.6497 0.1465 0.7460
vn 0.6531 0.1095 0.7493
vn -0.9242 0.3807 0.0291
vn -0.9206 0.3888 0.0370
vn -0.9209 0.3888 0.0284
vn -0.8889 0.4372 0.1371
vn -0.8895 0.4362 0.1361
vn -0.8919 0.4298 0.1407
vn -0.7054 -0.6232 -0.3375
vn -0.7050 -0.6168 -0.3500
vn -0.7026 -0.6192 -0.3506
vn 0.5566 -0.6853 -0.4697
vn 0.5544 -0.6871 -0.4697
vn 0.5555 -0.6849 -0.4715
vn -0.4036 -0.5931 -0.6967
vn -0.4017 -0.5910 -0.6996
vn -0.4018 -0.5950 -0.6961
vn 0.8333 -0.5054 -0.2242
vn 0.8341 -0.5041 -0.2240
vn 0.8334 -0.5129 -0.2058
vn 0.8928 -0.4088 -0.1894
vn 0.9008 -0.3962 -0.1776
vn 0.8893 -0.4179 -0.1858
vn 0.8862 0.1115 0.4497
vn 0.8647 0.0992 0.4925
vn 0.8992 0.0604 0.4333
vn 0.4263 0.3397 0.8384
vn 0.4414 0.3853 0.8104
vn 0.4383 0.3863 0.8116
vn 0.4196 0.5534 0.7195
vn 0.4187 0.5561 0.7179
vn 0.4169 0.5543 0.7204
vn -0.9990 0.0400 0.0202
vn -0.9992 0.0278 0.0302
vn -0.9981 0.0530 0.0312
vn -0.9881 0.1529 -0.0192
vn -0.9882 0.1531 -0.0037
vn -0.9876 0.1559 -0.0195
vn -0.7983 0.5196 0.3047
vn -0.7988 0.5203 0.3021
vn -0.8003 0.5180 0.3021
vn -0.3341 -0.6545 -0.6782
vn -0.3354 -0.6555 -0.6766
vn -0.3347 -0.6537 -0.6787
vn -0.8809 0.4069 0.2417
vn -0.8818 0.4050 0.2417
vn -0.8814 0.4030 0.2465
vn -0.9609 -0.0979 -0.2591
vn -0.9564 -0.1055 -0.2724
vn -0.9571 -0.1101 -0.2681
vn -0.6921 -0.6736 -0.2595
vn -0.7049 -0.6744 -0.2199
vn -0.7041 -0.6641 -0.2515
vn 0.6323 -0.6674 -0.3934
vn 0.6244 -0.6738 -0.3951
vn 0.6283 -0.6666 -0.4010
vn -0.6540 -0.5265 -0.5433
vn -0.6487 -0.5263 -0.5496
vn -0.6424 -0.5402 -0.5436
vn 0.9823 -0.1322 0.1327
vn 0.9809 -0.1312 0.1436
vn 0.9749 -0.1702 0.1438
vn 0.9348 -0.3447 -0.0852
vn 0.9365 -0.3419 -0.0779
vn 0.9316 -0.3547 -0.0797
vn 0.9015 -0.4223 -0.0945
vn 0.9015 -0.4205 -0.1019
vn 0.9028 -0.4179 -0.1016
vn 0.0160 0.3983 0.9171
vn 0.0384 0.4266 0.9036
vn 0.0257 0.4340 0.9005
vn 0.2429 0.3924 0.8871
vn 0.2512 0.4049 0.8792
vn 0.2457 0.4068 0.8799
vn 0.9584 -0.2587 0.1207
vn 0.9576 -0.2570 0.1304
vn 0.9542 -0.2729 0.1225
vn 0.9469 -0.3195 0.0351
vn 0.9478 -0.3174 0.0313
vn 0.9481 -0.3164 0.0325
vn 0.8906 -0.4386 -0.1202
vn 0.8891 -0.4414 -0.1210
vn 0.8906 -0.4380 -0.1226
vn 0.8663 0.1637 0.4719
vn 0.8674 0.1591 0.4715
vn 0.8682 0.1630 0.4686
vn -0.9427 0.3268 0.0676
vn -0.9432 0.3257 0.0660
vn -0.9478 0.3088 0.0791
vn -0.8227 -0.3841 -0.4191
vn -0.8261 -0.3832 -0.4131
vn -0.8234 -0.3809 -0.4206
vn 0.2979 -0.8772 -0.3766
vn 0.2956 -0.8809 -0.3696
vn 0.2958 -0.8774 -0.3776
vn -0.6690 -0.4646 -0.5801
vn -0.6676 -0.4642 -0.5821
vn -0.6682 -0.4670 -0.5792
vn 0.9587 -0.2144 0.1867
vn 0.9595 -0.2120 0.1858
vn 0.9585 -0.2140 0.1884
vn 0.9557 -0.2900 0.0501
vn 0.9569 -0.2864 0.0483
vn 0.9563 -0.2879 0.0506
vn 0.4533 0.4734 0.7553
vn 0.4492 0.4714 0.7590
vn 0.4565 0.4679 0.7568
vn -0.2749 0.6451 0.7129
vn -0.2726 0.6496 0.7097
vn -0.2731 0.6503 0.7089
vn -0.8935 -0.1745 -0.4139
vn -0.8949 -0.1760 -0.4100
vn -0.8947 -0.1716 -0.4123
vn -0.9189 -0.2371 -0.3154
vn -0.9203 -0.2344 -0.3133
vn -0.9191 -0.2336 -0.3174
vn 0.9622 -0.2386 0.1311
vn 0.9625 -0.2386 0.1291
vn 0.9627 -0.2374 0.1301
vn -0.9782 0.0625 -0.1979
vn -0.9786 0.0615 -0.1964
vn -0.9786 0.0628 -0.1962
vn -0.0455 -0.7510 -0.6587
vn -0.0470 -0.7522 -0.6572
vn -0.0465 -0.7508 -0.6589
vn -0.6413 -0.4254 -0.6385
vn -0.6438 -0.4248 -0.6364
vn -0.6414 -0.4228 -0.6401
vn 0.9556 -0.2141 0.2024
vn 0.9567 -0.2116 0.2001
vn 0.9562 -0.2113 0.2023
vn 0.9369 -0.3312 0.1117
vn 0.9373 -0.3310 0.1092
vn 0.9383 -0.3282 0.1092
vn 0.1478 -0.7275 -0.6700
vn 0.1505 -0.7289 -0.6679
vn 0.1454 -0.7333 -0.6642
vn -0.2834 0.6583 0.6974
vn -0.2848 0.6530 0.7017
vn -0.2823 0.6576 0.6984
vn 0.0821 0.6667 0.7408
vn 0.0807 0.6681 0.7397
vn 0.0798 0.6645 0.7430
vn -0.9347 0.3406 0.1015
vn -0.9349 0.3410 0.0985
vn -0.9355 0.3385 0.1013
vn -0.0928 -0.7466 -0.6588
vn -0.0933 -0.7455 -0.6599
vn -0.0921 -0.7446 -0.6612
vn -0.3594 -0.7364 -0.5732
vn 0.9131 -0.4073 0.0167
vn 0.9171 -0.3983 0.0160
vn 0.9181 -0.3950 0.0321
vn -0.9602 0.1925 0.2023
vn -0.9666 0.1499 0.2080
vn -0.9538 0.2045 0.2200
vn 0.2529 -0.8025 -0.5404
vn 0.2540 -0.8034 -0.5385
vn 0.2528 -0.8048 -0.5370
vn -0.4883 0.5447 0.6818
vn 0.8007 -0.5827 -0.1391
vn 0.8010 -0.5816 -0.1420
vn 0.8018 -0.5810 -0.1396
vn 0.8938 -0.3265 0.3074
vn 0.8969 -0.3391 0.2840
vn 0.9022 -0.3250 0.2836
vn 0.8207 -0.3911 0.4165
vn 0.8083 -0.4241 0.4083
vn 0.8214 -0.4098 0.3966
vn 0.8051 -0.1788 0.5655
vn 0.7850 -0.1490 0.6013
vn 0.7753 -0.2144 0.5941
vn 0.7197 -0.6729 -0.1709
vn 0.7182 -0.6696 -0.1891
vn 0.7192 -0.6685 -0.1891
vn 0.4396 0.4104 0.7989
vn 0.4329 0.4137 0.8009
vn 0.4291 0.4013 0.8093
vn -0.7076 0.5484 0.4455
vn -0.7211 0.5181 0.4600
vn -0.7051 0.5437 0.4552
vn -0.3406 0.6486 0.6807
vn -0.3386 0.6549 0.6756
vn -0.3443 0.6527 0.6749
vn -0.8371 0.4852 -0.2527
vn -0.8552 0.4578 -0.2428
vn -0.8364 0.4908 -0.2439
vn -0.9655 0.1940 -0.1735
vn -0.9676 0.1844 -0.1727
vn -0.9676 0.1956 -0.1595
vn -0.9585 0.1777 -0.2227
vn -0.9610 0.1703 -0.2178
vn -0.9592 0.1786 -0.2193
vn -0.6474 -0.6617 -0.3782
vn -0.6381 -0.6710 -0.3776
vn -0.6527 -0.6662 -0.3607
vn 0.9606 -0.2755 0.0368
vn 0.9730 -0.2288 0.0317
vn 0.9725 -0.2291 0.0420
vn 0.9710 -0.1200 0.2070
vn 0.9591 -0.1583 0.2346
vn 0.9711 -0.1217 0.2052
vn 0.1634 0.5266 0.8342
vn 0.1219 0.4983 0.8584
vn 0.1770 0.5065 0.8439
vn -0.8505 0.3842 0.3593
vn -0.8547 0.3617 0.3724
vn -0.8493 0.3852 0.3611
vn -0.9163 0.3378 0.2152
vn -0.9245 0.3130 0.2174
vn -0.9115 0.3411 0.2298
vn -0.9817 0.1130 -0.1534
vn -0.9814 0.1147 -0.1538
vn -0.9811 0.1153 -0.1554
vn -0.3502 -0.7777 -0.5221
vn -0.3480 -0.7874 -0.5089
vn -0.3538 -0.7746 -0.5242
vn 0.1007 -0.8866 -0.4514
vn 0.0994 -0.8898 -0.4455
vn 0.0989 -0.8876 -0.4498
vn -0.9342 0.2086 0.2896
vn -0.9356 0.1901 0.2976
vn -0.9318 0.2075 0.2980
vn -0.6390 0.6897 0.3405
vn -0.6436 0.6865 0.3383
vn -0.6389 0.6872 0.3459
vn -0.9957 0.0925 -0.0077
vn -0.9952 0.0971 0.0123
vn -0.9941 0.1069 -0.0179
vn -0.8399 -0.4681 -0.2747
vn -0.8391 -0.4849 -0.2464
vn -0.8571 -0.4515 -0.2481
vn 0.7335 -0.6616 -0.1554
vn 0.7407 -0.6530 -0.1581
vn 0.7430 -0.6575 -0.1248
vn -0.6347 -0.5455 -0.5473
vn -0.6350 -0.5387 -0.5537
vn -0.6323 -0.5414 -0.5541
vn -0.0896 0.4653 0.8806
vn -0.0518 0.4384 0.8973
vn -0.0527 0.4648 0.8839
vn 0.1028 0.4582 0.8829
vn 0.1157 0.4387 0.8912
vn 0.1168 0.4576 0.8814
vn 0.7142 -0.6971 -0.0633
vn 0.7185 -0.6933 -0.0560
vn 0.7098 -0.7022 -0.0556
vn 0.8869 -0.4373 -0.1490
vn 0.8889 -0.4336 -0.1477
vn 0.8889 -0.4361 -0.1400
vn 0.5148 0.3015 0.8025
vn 0.5127 0.3062 0.8021
vn 0.5081 0.2930 0.8099
vn -0.9316 0.3330 0.1455
vn -0.9306 0.3355 0.1462
vn -0.9314 0.3342 0.1440
vn -0.0233 0.6880 0.7253
vn -0.0249 0.6927 0.7208
vn -0.0286 0.6913 0.7220
vn -0.3635 0.6844 0.6320
vn -0.3603 0.6997 0.6169
vn -0.3656 0.6965 0.6174
vn -0.9783 0.2024 -0.0446
vn -0.9741 0.2181 -0.0595
vn -0.9746 0.2158 -0.0596
vn 0.9368 -0.0057 0.3497
vn 0.9383 -0.0100 0.3457
vn 0.9380 -0.0045 0.3466
vn 0.9671 -0.1701 0.1891
vn 0.9670 -0.1690 0.1906
vn 0.9662 -0.1724 0.1916
vn 0.3231 0.4389 0.8384
vn 0.3230 0.4415 0.8371
vn 0.3218 0.4394 0.8387
vn 0.3061 0.5338 0.7882
vn 0.3048 0.5341 0.7885
vn 0.3041 0.5289 0.7923
vn -0.9533 -0.0297 -0.3005
vn -0.9537 -0.0328 -0.2991
vn -0.9544 -0.0326 -0.2968
vn -0.9588 0.2420 0.1490
vn -0.9587 0.2445 0.1455
vn -0.9592 0.2421 0.1464
vn -0.9387 0.3408 0.0523
vn -0.9389 0.3404 0.0508
vn -0.9395 0.3385 0.0524
vn 0.1822 -0.5358 -0.8245
vn 0.1784 -0.5364 -0.8249
vn 0.1801 -0.5333 -0.8265
vn 0.3375 -0.7430 -0.5780
vn 0.3354 -0.7459 -0.5755
vn 0.3346 -0.7445 -0.5778
vn 0.7437 -0.6166 -0.2584
vn 0.7423 -0.6176 -0.2598
vn 0.7434 -0.6153 -0.2622
vn 0.9639 -0.1163 0.2395
vn 0.9635 -0.1193 0.2398
vn 0.9643 -0.1164 0.2379
vn 0.8152 -0.5396 -0.2102
vn 0.8159 -0.5382 -0.2110
vn 0.8162 -0.5387 -0.2087
vn -0.4240 0.6778 0.6007
vn -0.4246 0.6753 0.6030
vn -0.4232 0.6773 0.6018
vn -0.9595 -0.0838 -0.2690
vn -0.9592 -0.0825 -0.2705
vn -0.9591 -0.0841 -0.2704
vn -0.5705 0.6271 0.5303
vn -0.5712 0.6281 0.5285
vn -0.5742 0.6229 0.5313
vn -0.8006 -0.2857 -0.5267
vn -0.8013 -0.2839 -0.5267
vn -0.8001 -0.2840 -0.5284
vn 0.6997 -0.6461 -0.3050
vn 0.7012 -0.6432 -0.3076
vn 0.7017 -0.6440 -0.3048
vn 0.6504 -0.6482 -0.3961
vn 0.6521 -0.6467 -0.3957
vn 0.6497 -0.6526 -0.3898
vn 0.5538 0.4093 0.7251
vn 0.5516 0.4088 0.7271
vn 0.5534 0.4034 0.7287
vn 0.9408 -0.3228 0.1037
vn 0.9420 -0.3199 0.1017
vn 0.9414 -0.3207 0.1042
vn 0.0278 0.6679 0.7438
vn 0.0286 0.6707 0.7412
vn 0.0263 0.6688 0.7429
vn 0.3315 -0.7544 -0.5666
vn 0.3289 -0.7548 -0.5675
vn 0.3308 -0.7533 -0.5684
vn 0.7709 -0.2122 0.6006
vn 0.7766 -0.1658 0.6078
vn 0.7623 -0.1712 0.6242
vn 0.6051 -0.7763 -0.1766
vn 0.5837 -0.7944 -0.1680
vn 0.5914 -0.7858 -0.1810
vn -0.9411 0.3173 0.1171
vn -0.9409 0.3172 0.1188
vn -0.9404 0.3195 0.1161
vn -0.9519 0.3057 0.0199
vn -0.9514 0.3075 0.0183
vn -0.9519 0.3059 0.0181
s 1
f 1//1 2//2 3//3
f 2//4 1//5 4//6
f 5//7 6//8 7//9
f 8//10 9//11 10//12
f 8//13 11//14 12//15
f 13//16 14//17 15//18
f 16//19 17//20 18//21
f 12//22 11//23 19//24
f 20//25 18//26 17//27
f 21//28 22//29 23//30
f 21//31 23//32 24//33
f 25//34 21//35 24//36
f 24//37 23//38 26//39
f 24//40 26//41 9//42
f 27//43 24//44 9//45
f 28//46 8//47 29//48
f 29//49 30//50 28//51
f 12//52 31//53 32//54
f 31//55 22//56 33//57
f 31//58 34//59 32//60
f 35//61 36//62 37//63
f 35//64 37//65 38//66
f 39//67 40//68 41//69
f 41//70 42//71 39//72
f 42//73 5//74 39//75
f 43//76 44//77 45//78
f 43//79 45//80 46//81
f 43//82 6//83 42//84
f 46//85 36//86 47//87
f 48//88 49//89 50//90
f 51//91 48//92 50//93
f 51//94 20//95 52//96
f 52//97 17//98 53//99
f 52//100 48//101 51//102
f 54//103 55//104 56//105
f 54//106 17//107 55//108
f 17//109 54//110 57//111
f 56//112 58//113 54//114
f 58//115 59//116 54//117
f 60//118 61//119 62//120
f 60//121 63//122 64//123
f 65//124 60//125 64//126
f 60//127 66//128 63//129
f 67//130 68//131 69//132
f 67//133 70//134 71//135
f 71//136 70//137 65//138
f 71//139 68//140 67//141
f 3//142 2//143 33//144
f 21//145 33//146 22//147
f 3//148 25//149 27//150
f 27//151 30//152 72//153
f 73//154 32//155 34//156
f 73//157 34//158 1//159
f 35//160 5//161 7//162
f 6//163 46//164 47//165
f 47//166 36//167 7//168
f 48//169 53//170 74//171
f 54//172 15//173 57//174
f 57//175 15//176 14//177
f 74//178 53//179 17//180
f 15//181 59//182 75//183
f 76//184 63//185 66//186
f 68//187 77//188 76//189
f 71//190 64//191 68//192
f 4//6 1//5 34//193
f 23//194 22//195 78//196
f 8//197 10//198 11//199
f 14//200 13//201 74//202
f 75//203 13//16 15//18
f 64//204 77//205 68//206
f 16//207 55//208 17//209
f 16//210 79//211 55//212
f 56//213 79//214 80//215
f 19//216 22//217 31//218
f 27//219 25//220 24//221
f 27//222 9//223 28//224
f 28//225 30//226 27//227
f 28//228 9//229 8//230
f 32//231 8//232 12//233
f 29//234 8//235 32//236
f 31//237 12//238 19//239
f 40//240 35//241 38//242
f 35//243 40//244 39//245
f 42//246 41//247 81//248
f 42//249 81//250 43//251
f 43//252 81//253 44//254
f 43//255 46//256 6//257
f 46//258 45//259 82//260
f 46//261 82//262 36//263
f 59//264 83//265 50//266
f 49//267 59//268 50//269
f 50//270 84//271 51//272
f 51//273 84//274 20//275
f 17//276 52//277 20//278
f 52//279 53//280 48//281
f 56//282 83//283 58//284
f 58//285 83//286 59//287
f 60//288 70//289 61//290
f 60//291 65//292 70//293
f 66//294 60//295 62//296
f 30//297 73//298 72//299
f 85//300 76//301 66//302
f 69//303 76//304 85//305
f 69//306 68//307 76//308
f 21//309 25//310 3//311
f 3//312 33//313 21//314
f 72//315 1//316 3//317
f 72//318 3//319 27//320
f 73//321 29//322 32//323
f 73//324 1//325 72//326
f 48//327 75//328 49//329
f 34//330 33//331 4//332
f 34//333 31//334 33//335
f 4//336 33//337 2//338
f 35//339 39//340 5//341
f 35//342 7//343 36//344
f 5//345 42//346 6//347
f 47//348 7//349 6//350
f 49//351 75//352 59//353
f 48//354 74//355 13//356
f 57//357 14//358 74//359
f 57//360 74//361 17//362
f 15//363 54//364 59//365
f 63//366 77//367 64//368
f 76//369 77//370 63//371
f 71//372 65//373 64//374
f 56//375 55//376 79//377
f 19//378 78//379 22//380
f 30//381 29//382 73//383
f 48//384 13//385 75//386
