# Blender v2.80 (sub 75) OBJ File: ''
# www.blender.org
v 0.000000 0.000000 1.000000
v 0.000000 0.000000 0.000000
v 0.000000 -1.000000 1.000000
v 0.000000 -1.000000 0.000000
v -1.000000 0.000000 1.000000
v -1.000000 0.000000 0.000000
v -1.000000 -1.000000 1.000000
v -1.000000 -1.000000 0.000000
v 1.000000 1.000000 1.000000
v 1.000000 1.000000 0.000000
v 1.000000 0.000000 1.000000
v 1.000000 0.000000 0.000000
v 0.000000 1.000000 1.000000
v 0.000000 1.000000 0.000000
v 0.000000 0.000000 1.000000
v 0.000000 0.000000 0.000000
v 0.000000 1.000000 2.000000
v 0.000000 1.000000 1.000000
v 0.000000 0.000000 2.000000
v 0.000000 0.000000 1.000000
v -1.000000 1.000000 2.000000
v -1.000000 1.000000 1.000000
v -1.000000 0.000000 2.000000
v -1.000000 0.000000 1.000000
v 1.000000 0.000000 2.000000
v 1.000000 0.000000 1.000000
v 1.000000 -1.000000 2.000000
v 1.000000 -1.000000 1.000000
v 0.000000 0.000000 2.000000
v 0.000000 0.000000 1.000000
v 0.000000 -1.000000 2.000000
v 0.000000 -1.000000 1.000000
vn 0.0000 0.0000 1.0000
vn 0.0000 -1.0000 0.0000
vn -1.0000 0.0000 0.0000
vn 0.0000 0.0000 -1.0000
vn 1.0000 0.0000 0.0000
vn 0.0000 1.0000 0.0000
s off
f 5//1 3//1 1//1
f 3//2 8//2 4//2
f 7//3 6//3 8//3
f 2//4 8//4 6//4
f 1//5 4//5 2//5
f 5//6 2//6 6//6
f 5//1 7//1 3//1
f 3//2 7//2 8//2
f 7//3 5//3 6//3
f 2//4 4//4 8//4
f 1//5 3//5 4//5
f 5//6 1//6 2//6
f 13//1 11//1 9//1
f 11//2 16//2 12//2
f 15//3 14//3 16//3
f 10//4 16//4 14//4
f 9//5 12//5 10//5
f 13//6 10//6 14//6
f 13//1 15//1 11//1
f 11//2 15//2 16//2
f 15//3 13//3 14//3
f 10//4 12//4 16//4
f 9//5 11//5 12//5
f 13//6 9//6 10//6
f 21//1 19//1 17//1
f 19//2 24//2 20//2
f 23//3 22//3 24//3
f 18//4 24//4 22//4
f 17//5 20//5 18//5
f 21//6 18//6 22//6
f 21//1 23//1 19//1
f 19//2 23//2 24//2
f 23//3 21//3 22//3
f 18//4 20//4 24//4
f 17//5 19//5 20//5
f 21//6 17//6 18//6
f 29//1 27//1 25//1
f 27//2 32//2 28//2
f 31//3 30//3 32//3
f 26//4 32//4 30//4
f 25//5 28//5 26//5
f 29//6 26//6 30//6
f 29//1 31//1 27//1
f 27//2 31//2 32//2
f 31//3 29//3 30//3
f 26//4 28//4 32//4
f 25//5 27//5 28//5
f 29//6 25//6 26//6
