# Blender v2.80 (sub 75) OBJ File: 'field.blend'
# www.blender.org
v 5.298806 0.859603 -7.139758
v 5.309282 0.881426 -7.144114
v 5.208812 1.070236 -7.123710
v 5.227282 1.054226 -7.208020
v 5.473565 0.694459 -7.605804
v 5.400558 0.789654 -7.637667
v 5.508487 0.639357 -7.625650
v 4.639765 2.005786 -7.266079
v 4.568218 2.188165 -7.095032
v 4.548639 2.111188 -7.248938
v 4.674207 1.981721 -7.483314
v 4.735898 1.966927 -7.442457
v 5.082777 0.778153 -7.196251
v 5.101032 0.776991 -7.180506
v 5.056139 0.870068 -7.159754
v 4.588105 1.986581 -7.424700
v 4.593395 1.879934 -7.362057
v 4.592094 1.919123 -7.503989
v 4.761029 2.017149 -7.475187
v 4.555476 1.893807 -7.515500
v 4.783279 1.970108 -7.236614
v 4.832085 1.911219 -7.313472
v 4.677101 2.251884 -7.224345
v 4.684754 2.085973 -7.150215
v 4.753479 1.906249 -7.155790
v 4.571744 2.274382 -7.064109
v 4.712628 1.882836 -7.149413
v 4.607628 2.054942 -7.165669
v 4.819086 1.617590 -7.238772
v 4.854128 1.552703 -7.164316
v 4.852961 1.800154 -7.342772
v 4.770267 1.824374 -7.348910
v 5.204583 1.134352 -7.187559
v 5.187660 1.068277 -7.219420
v 5.069079 1.610116 -7.777018
v 5.048640 1.627007 -7.846585
v 4.954221 1.795630 -7.932002
v 4.895576 1.917168 -7.812827
v 5.009116 1.671616 -7.730899
v 4.862996 1.941799 -7.747150
v 4.838150 1.901341 -7.704603
v 4.962445 1.614710 -7.722649
v 4.945357 1.620266 -7.773617
v 4.851755 1.755524 -7.843933
v 4.954007 1.671373 -7.909099
v 5.049679 1.495712 -7.826149
v 5.347128 0.929249 -7.701715
v 4.733637 1.444674 -7.300130
v 4.578004 1.720178 -7.228326
v 4.430466 1.928377 -7.403977
v 4.569636 1.746292 -7.391815
v 4.614922 1.757965 -7.404568
v 4.765255 1.474499 -7.316730
v 4.671425 1.717694 -7.201819
v 4.514834 2.007728 -7.255582
v 4.393171 2.107014 -7.124369
v 4.985061 1.070071 -7.214931
v 4.518971 1.889329 -7.172072
v 4.578189 1.777361 -7.190353
v 4.865496 1.523187 -7.770010
v 4.822154 1.683330 -7.877581
v 4.730512 1.777954 -7.737565
v 5.209797 0.787817 -7.659262
v 5.237846 0.747964 -7.700324
v 4.902357 1.440898 -7.848694
v 4.793000 1.594472 -7.751205
v 4.796105 1.495682 -7.877307
v 5.311029 0.545181 -7.661625
v 4.612560 1.809167 -7.817307
v 4.826486 1.583136 -7.944217
v 4.882195 1.421424 -7.871722
v 5.176208 1.026227 -7.124567
v 5.153841 1.065203 -7.190883
v 5.005303 0.981385 -7.243192
v 5.012681 0.900830 -7.179424
v 5.095412 0.924290 -7.688355
v 5.319858 0.527636 -7.641917
v 4.754083 2.137753 -7.460089
v 4.504930 2.090362 -7.252148
v 4.258621 2.277993 -6.990110
v 4.795949 1.849647 -7.715858
v 4.998751 1.645715 -7.889505
v 4.190639 2.204878 -7.136346
v 4.457196 1.953319 -7.528537
v 4.743808 1.601293 -7.771350
vn 0.2899 0.0534 0.9556
vn 0.2886 0.0505 0.9561
vn 0.2907 0.0504 0.9555
vn 0.1674 -0.2696 -0.9483
vn 0.1743 -0.2655 -0.9482
vn 0.1718 -0.2706 -0.9472
vn -0.8084 -0.5682 0.1537
vn -0.8076 -0.5689 0.1552
vn -0.8087 -0.5673 0.1551
vn -0.6633 -0.6294 0.4049
vn -0.6543 -0.6546 0.3786
vn -0.6278 -0.6542 0.4218
vn -0.2696 -0.9614 0.0559
vn -0.2623 -0.9619 0.0777
vn -0.2834 -0.9566 0.0677
vn -0.6084 -0.4374 0.6622
vn -0.6047 -0.4382 0.6651
vn -0.6039 -0.4409 0.6640
vn 0.9994 0.0337 -0.0032
vn 0.9984 0.0569 0.0000
vn 0.9984 0.0538 0.0187
vn 0.3165 -0.6170 -0.7205
vn 0.3380 -0.6212 -0.7070
vn 0.3104 -0.6366 -0.7059
vn 0.6176 -0.7615 -0.1965
vn 0.5912 -0.7778 -0.2135
vn 0.5996 -0.7681 -0.2246
vn 0.8918 0.3231 0.3168
vn 0.8906 0.3229 0.3202
vn 0.8945 0.3141 0.3181
vn 0.7954 0.2792 0.5380
vn 0.7984 0.2686 0.5390
vn 0.8031 0.2779 0.5270
vn 0.8004 0.2945 0.5221
vn 0.7991 0.2902 0.5266
vn 0.8063 0.2795 0.5213
vn 0.8195 0.2749 0.5029
vn 0.8198 0.2588 0.5108
vn 0.8460 0.2426 0.4748
vn 0.1356 -0.3304 0.9341
vn 0.1532 -0.3772 0.9134
vn 0.1635 -0.3174 0.9341
vn 0.4737 0.0742 0.8775
vn 0.4655 0.0647 0.8827
vn 0.4946 0.0467 0.8679
vn -0.8997 -0.4279 -0.0866
vn -0.9016 -0.4261 -0.0750
vn -0.9032 -0.4213 -0.0820
vn -0.8975 -0.4392 0.0397
vn -0.8974 -0.4395 0.0382
vn -0.8938 -0.4469 0.0380
vn -0.0992 -0.5730 -0.8135
vn -0.1055 -0.5623 -0.8202
vn -0.1022 -0.5616 -0.8211
vn 0.7901 0.2918 -0.5391
vn 0.7898 0.2895 -0.5407
vn 0.7887 0.2924 -0.5407
vn 0.0277 -0.1550 -0.9875
vn 0.0270 -0.1511 -0.9881
vn 0.0304 -0.1551 -0.9874
vn 0.8933 0.4194 -0.1619
vn 0.8929 0.4205 -0.1609
vn 0.9017 0.4051 -0.1509
vn 0.8715 0.4859 -0.0661
vn 0.8701 0.4906 -0.0477
vn 0.8761 0.4771 -0.0689
vn 0.6040 0.3717 0.7050
vn 0.6049 0.3270 0.7261
vn 0.6464 0.3642 0.6705
vn 0.1905 -0.0376 0.9810
vn 0.1640 0.0109 0.9864
vn 0.1613 0.0087 0.9869
vn 0.0151 0.1326 0.9911
vn 0.0123 0.1343 0.9909
vn 0.0127 0.1308 0.9913
vn -0.7114 -0.6405 -0.2894
vn -0.7012 -0.6524 -0.2876
vn -0.7181 -0.6398 -0.2738
vn -0.7902 -0.5546 -0.2606
vn -0.7879 -0.5636 -0.2482
vn -0.7921 -0.5527 -0.2592
vn -0.8660 -0.4360 0.2449
vn -0.8673 -0.4344 0.2430
vn -0.8666 -0.4366 0.2414
vn 0.1220 -0.1511 -0.9810
vn 0.1221 -0.1534 -0.9806
vn 0.1210 -0.1507 -0.9811
vn -0.8534 -0.5093 0.1109
vn -0.8526 -0.5109 0.1096
vn -0.8502 -0.5143 0.1126
vn -0.6335 -0.5232 -0.5700
vn -0.6273 -0.5164 -0.5829
vn -0.6238 -0.5217 -0.5820
vn -0.0415 -0.6342 -0.7721
vn -0.0432 -0.6657 -0.7449
vn -0.0551 -0.6419 -0.7648
vn 0.8420 0.3060 -0.4443
vn 0.8408 0.2986 -0.4516
vn 0.8374 0.3082 -0.4514
vn -0.1662 -0.3729 -0.9129
vn -0.1638 -0.3658 -0.9162
vn -0.1486 -0.3720 -0.9162
vn 0.7903 0.4958 0.3601
vn 0.7904 0.4891 0.3688
vn 0.8139 0.4657 0.3474
vn 0.8722 0.4850 0.0633
vn 0.8726 0.4833 0.0710
vn 0.8780 0.4748 0.0615
vn 0.9027 0.4302 0.0059
vn 0.9003 0.4354 0.0009
vn 0.8993 0.4374 0.0029
vn -0.1199 -0.3203 0.9397
vn -0.1268 -0.2839 0.9504
vn -0.1412 -0.2867 0.9476
vn 0.0353 -0.1586 0.9867
vn 0.0309 -0.1425 0.9893
vn 0.0259 -0.1455 0.9890
vn 0.8614 0.4243 0.2791
vn 0.8613 0.4191 0.2873
vn 0.8689 0.4135 0.2720
vn 0.8825 0.4361 0.1762
vn 0.8810 0.4398 0.1745
vn 0.8807 0.4398 0.1760
vn 0.9025 0.4299 -0.0264
vn 0.9033 0.4280 -0.0289
vn 0.9017 0.4315 -0.0280
vn 0.5570 0.3720 0.7425
vn 0.5610 0.3705 0.7403
vn 0.5583 0.3747 0.7402
vn -0.8678 -0.4889 -0.0889
vn -0.8676 -0.4888 -0.0909
vn -0.8567 -0.5078 -0.0905
vn -0.3624 -0.4834 -0.7968
vn -0.3645 -0.4886 -0.7927
vn -0.3654 -0.4814 -0.7967
vn 0.7634 -0.0249 -0.6454
vn 0.7657 -0.0323 -0.6424
vn 0.7620 -0.0258 -0.6470
vn -0.2263 -0.3309 -0.9161
vn -0.2260 -0.3286 -0.9171
vn -0.2239 -0.3320 -0.9163
vn 0.8412 0.4086 0.3543
vn 0.8398 0.4107 0.3549
vn 0.8410 0.4077 0.3557
vn 0.8701 0.4478 0.2059
vn 0.8681 0.4514 0.2066
vn 0.8691 0.4489 0.2076
vn 0.1007 0.0941 0.9904
vn 0.1000 0.0883 0.9911
vn 0.1071 0.0926 0.9899
vn -0.5281 -0.2690 0.8054
vn -0.5302 -0.2635 0.8059
vn -0.5311 -0.2630 0.8054
vn -0.5585 -0.4283 -0.7104
vn -0.5578 -0.4323 -0.7085
vn -0.5612 -0.4286 -0.7081
vn -0.5155 -0.5326 -0.6713
vn -0.5180 -0.5334 -0.6687
vn -0.5184 -0.5298 -0.6712
vn 0.8516 0.4308 0.2987
vn 0.8514 0.4322 0.2972
vn 0.8508 0.4323 0.2986
vn -0.7489 -0.4901 -0.4459
vn -0.7482 -0.4918 -0.4454
vn -0.7490 -0.4913 -0.4445
vn 0.3918 -0.0228 -0.9197
vn 0.3919 -0.0253 -0.9197
vn 0.3909 -0.0233 -0.9201
vn -0.2447 -0.2597 -0.9342
vn -0.2465 -0.2623 -0.9330
vn -0.2468 -0.2576 -0.9342
vn 0.8414 0.3977 0.3660
vn 0.8400 0.4009 0.3657
vn 0.8399 0.3995 0.3675
vn 0.8965 0.3797 0.2284
vn 0.8962 0.3814 0.2266
vn 0.8949 0.3835 0.2283
vn 0.5060 0.1209 -0.8540
vn 0.5092 0.1208 -0.8521
vn 0.5095 0.1131 -0.8530
vn -0.5458 -0.2591 0.7969
vn -0.5423 -0.2651 0.7973
vn -0.5444 -0.2593 0.7977
vn -0.2934 -0.0426 0.9550
vn -0.2956 -0.0421 0.9544
vn -0.2932 -0.0464 0.9549
vn -0.8665 -0.4964 -0.0522
vn -0.8674 -0.4945 -0.0545
vn -0.8656 -0.4978 -0.0537
vn 0.3562 -0.0512 -0.9330
vn 0.3549 -0.0504 -0.9335
vn 0.3548 -0.0484 -0.9337
vn 0.1798 -0.2686 -0.9463
vn 0.9184 0.3811 0.1063
vn 0.9146 0.3886 0.1115
vn 0.9156 0.3816 0.1264
vn -0.7626 -0.6445 -0.0544
vn -0.7359 -0.6731 -0.0732
vn -0.7638 -0.6447 -0.0320
vn 0.6527 0.0772 -0.7537
vn 0.6545 0.0763 -0.7522
vn 0.6548 0.0739 -0.7521
vn -0.6087 -0.4396 0.6605
vn 0.9396 0.3108 -0.1433
vn 0.9385 0.3133 -0.1449
vn 0.9391 0.3127 -0.1425
vn 0.8958 0.2412 0.3733
vn 0.9029 0.2504 0.3493
vn 0.8965 0.2611 0.3578
vn 0.9092 0.0988 0.4044
vn 0.9228 0.0791 0.3772
vn 0.9197 0.1015 0.3793
vn 0.7728 0.1082 0.6253
vn 0.7438 0.0893 0.6625
vn 0.7822 0.0547 0.6206
vn 0.9426 0.2318 -0.2405
vn 0.9362 0.2429 -0.2539
vn 0.9362 0.2441 -0.2530
vn 0.1431 0.0288 0.9893
vn 0.1365 0.0250 0.9903
vn 0.1440 0.0115 0.9895
vn -0.8010 -0.4439 0.4017
vn -0.7864 -0.4761 0.3936
vn -0.7943 -0.4503 0.4079
vn -0.5810 -0.2914 0.7600
vn -0.5849 -0.2840 0.7598
vn -0.5874 -0.2884 0.7562
vn -0.9601 -0.1571 -0.2313
vn -0.9516 -0.1882 -0.2431
vn -0.9622 -0.1590 -0.2212
vn -0.8292 -0.4307 -0.3561
vn -0.8237 -0.4372 -0.3610
vn -0.8295 -0.4393 -0.3449
vn -0.8210 -0.4059 -0.4014
vn -0.8167 -0.4140 -0.4021
vn -0.8215 -0.4078 -0.3985
vn -0.0388 -0.5309 -0.8465
vn -0.0257 -0.5298 -0.8477
vn -0.0363 -0.5467 -0.8365
vn 0.8610 0.4658 0.2042
vn 0.8356 0.4999 0.2276
vn 0.8372 0.4936 0.2355
vn 0.7861 0.4517 0.4219
vn 0.8096 0.4090 0.4210
vn 0.7871 0.4519 0.4197
vn -0.1230 -0.1131 0.9859
vn -0.1276 -0.1681 0.9775
vn -0.0979 -0.1199 0.9879
vn -0.7970 -0.5686 0.2035
vn -0.7819 -0.5900 0.2013
vn -0.7966 -0.5684 0.2059
vn -0.8332 -0.5513 0.0433
vn -0.8209 -0.5702 0.0300
vn -0.8298 -0.5550 0.0583
vn -0.7797 -0.4930 -0.3860
vn -0.7808 -0.4918 -0.3854
vn -0.7813 -0.4903 -0.3863
vn 0.2238 -0.3127 -0.9231
vn 0.2344 -0.3236 -0.9167
vn 0.2188 -0.3123 -0.9244
vn 0.6223 -0.1146 -0.7744
vn 0.6247 -0.1204 -0.7716
vn 0.6221 -0.1172 -0.7741
vn -0.7418 -0.6699 0.0321
vn -0.7283 -0.6846 0.0288
vn -0.7379 -0.6737 0.0391
vn -0.8711 -0.2687 0.4111
vn -0.8724 -0.2721 0.4061
vn -0.8683 -0.2731 0.4141
vn -0.7508 -0.5962 -0.2843
vn -0.7505 -0.6051 -0.2658
vn -0.7616 -0.5822 -0.2847
vn -0.2910 -0.6195 -0.7291
vn -0.2740 -0.6436 -0.7147
vn -0.3102 -0.6377 -0.7051
vn 0.9466 0.2375 -0.2179
vn 0.9450 0.2479 -0.2133
vn 0.9553 0.2280 -0.1883
vn -0.1401 -0.3676 -0.9194
vn -0.1463 -0.3607 -0.9211
vn -0.1425 -0.3600 -0.9220
vn -0.2458 -0.3346 0.9097
vn -0.1981 -0.3330 0.9219
vn -0.2196 -0.3128 0.9241
vn -0.1082 -0.2145 0.9707
vn -0.0842 -0.2206 0.9717
vn -0.0985 -0.2049 0.9738
vn 0.9736 0.1542 -0.1683
vn 0.9751 0.1547 -0.1592
vn 0.9755 0.1444 -0.1662
vn 0.8943 0.4446 -0.0500
vn 0.8933 0.4471 -0.0464
vn 0.8963 0.4414 -0.0416
vn 0.2725 0.0216 0.9619
vn 0.2677 0.0228 0.9632
vn 0.2751 0.0088 0.9614
vn -0.8518 -0.5235 -0.0198
vn -0.8528 -0.5220 -0.0177
vn -0.8528 -0.5219 -0.0204
vn -0.3834 -0.0916 0.9190
vn -0.3887 -0.0876 0.9172
vn -0.3900 -0.0915 0.9163
vn -0.6301 -0.2605 0.7315
vn -0.6412 -0.2421 0.7282
vn -0.6425 -0.2474 0.7252
vn -0.8227 -0.5091 -0.2529
vn -0.8334 -0.4900 -0.2555
vn -0.8322 -0.4914 -0.2569
vn 0.7053 0.4040 0.5825
vn 0.7086 0.4051 0.5777
vn 0.7047 0.4072 0.5810
vn 0.8160 0.4346 0.3811
vn 0.8154 0.4342 0.3829
vn 0.8174 0.4314 0.3817
vn 0.0495 -0.0554 0.9972
vn 0.0473 -0.0535 0.9974
vn 0.0482 -0.0561 0.9973
vn -0.0377 0.0096 0.9992
vn -0.0387 0.0088 0.9992
vn -0.0348 0.0035 0.9994
vn -0.6835 -0.4606 -0.5663
vn -0.6813 -0.4632 -0.5668
vn -0.6815 -0.4649 -0.5652
vn -0.8055 -0.5883 -0.0716
vn -0.8078 -0.5850 -0.0731
vn -0.8062 -0.5870 -0.0738
vn -0.8775 -0.4705 -0.0928
vn -0.8776 -0.4700 -0.0943
vn -0.8764 -0.4723 -0.0942
vn 0.3686 0.3274 -0.8700
vn 0.3664 0.3248 -0.8719
vn 0.3651 0.3284 -0.8711
vn 0.6626 0.1833 -0.7262
vn 0.6636 0.1792 -0.7264
vn 0.6616 0.1806 -0.7278
vn 0.9048 0.3257 -0.2744
vn 0.9043 0.3252 -0.2765
vn 0.9030 0.3284 -0.2769
vn 0.7840 0.4302 0.4475
vn 0.7859 0.4282 0.4461
vn 0.7841 0.4313 0.4464
vn 0.9074 0.3826 -0.1738
vn 0.9068 0.3842 -0.1735
vn 0.9077 0.3829 -0.1719
vn -0.6721 -0.2850 0.6834
vn -0.6704 -0.2880 0.6838
vn -0.6710 -0.2854 0.6843
vn -0.6442 -0.5097 -0.5703
vn -0.6452 -0.5079 -0.5708
vn -0.6440 -0.5087 -0.5714
vn -0.7485 -0.3647 0.5538
vn -0.7499 -0.3637 0.5527
vn -0.7479 -0.3698 0.5513
vn -0.4347 -0.3582 -0.8263
vn -0.4364 -0.3578 -0.8256
vn -0.4358 -0.3560 -0.8267
vn 0.8878 0.3093 -0.3409
vn 0.8863 0.3133 -0.3410
vn 0.8877 0.3116 -0.3390
vn 0.8404 0.3288 -0.4309
vn 0.8405 0.3305 -0.4293
vn 0.8441 0.3226 -0.4284
vn 0.2102 0.1450 0.9669
vn 0.2094 0.1422 0.9674
vn 0.2147 0.1397 0.9666
vn 0.8919 0.3909 0.2275
vn 0.8903 0.3943 0.2277
vn 0.8909 0.3921 0.2291
vn -0.3311 -0.0790 0.9403
vn -0.3329 -0.0756 0.9399
vn -0.3329 -0.0790 0.9396
vn 0.6683 0.1673 -0.7248
vn 0.6667 0.1658 -0.7266
vn 0.6668 0.1684 -0.7260
vn 0.7787 0.0492 0.6255
vn 0.7510 0.0717 0.6564
vn 0.7477 0.0504 0.6622
vn 0.9361 0.1093 -0.3344
vn 0.9356 0.0815 -0.3436
vn 0.9326 0.0982 -0.3472
vn -0.8518 -0.5211 -0.0535
vn -0.8514 -0.5220 -0.0522
vn -0.8531 -0.5190 -0.0530
vn -0.8671 -0.4778 -0.1407
vn -0.8682 -0.4757 -0.1409
vn -0.8675 -0.4767 -0.1420
s 1
f 1//1 2//2 3//3
f 2//4 1//5 4//6
f 5//7 6//8 7//9
f 8//10 9//11 10//12
f 8//13 11//14 12//15
f 13//16 14//17 15//18
f 16//19 17//20 18//21
f 12//22 11//23 19//24
f 20//25 18//26 17//27
f 21//28 22//29 23//30
f 21//31 23//32 24//33
f 25//34 21//35 24//36
f 24//37 23//38 26//39
f 24//40 26//41 9//42
f 27//43 24//44 9//45
f 28//46 8//47 29//48
f 29//49 30//50 28//51
f 12//52 31//53 32//54
f 31//55 22//56 33//57
f 31//58 34//59 32//60
f 35//61 36//62 37//63
f 35//64 37//65 38//66
f 39//67 40//68 41//69
f 41//70 42//71 39//72
f 42//73 5//74 39//75
f 43//76 44//77 45//78
f 43//79 45//80 46//81
f 43//82 6//83 42//84
f 46//85 36//86 47//87
f 48//88 49//89 50//90
f 51//91 48//92 50//93
f 51//94 20//95 52//96
f 52//97 17//98 53//99
f 52//100 48//101 51//102
f 54//103 55//104 56//105
f 54//106 17//107 55//108
f 17//109 54//110 57//111
f 56//112 58//113 54//114
f 58//115 59//116 54//117
f 60//118 61//119 62//120
f 60//121 63//122 64//123
f 65//124 60//125 64//126
f 60//127 66//128 63//129
f 67//130 68//131 69//132
f 67//133 70//134 71//135
f 71//136 70//137 65//138
f 71//139 68//140 67//141
f 3//142 2//143 33//144
f 21//145 33//146 22//147
f 3//148 25//149 27//150
f 27//151 30//152 72//153
f 73//154 32//155 34//156
f 73//157 34//158 1//159
f 35//160 5//161 7//162
f 6//163 46//164 47//165
f 47//166 36//167 7//168
f 48//169 53//170 74//171
f 54//172 15//173 57//174
f 57//175 15//176 14//177
f 74//178 53//179 17//180
f 15//181 59//182 75//183
f 76//184 63//185 66//186
f 68//187 77//188 76//189
f 71//190 64//191 68//192
f 4//6 1//5 34//193
f 23//194 22//195 78//196
f 8//197 10//198 11//199
f 14//200 13//201 74//202
f 75//203 13//16 15//18
f 64//204 77//205 68//206
f 16//207 55//208 17//209
f 16//210 79//211 55//212
f 56//213 79//214 80//215
f 19//216 22//217 31//218
f 27//219 25//220 24//221
f 27//222 9//223 28//224
f 28//225 30//226 27//227
f 28//228 9//229 8//230
f 32//231 8//232 12//233
f 29//234 8//235 32//236
f 31//237 12//238 19//239
f 40//240 35//241 38//242
f 35//243 40//244 39//245
f 42//246 41//247 81//248
f 42//249 81//250 43//251
f 43//252 81//253 44//254
f 43//255 46//256 6//257
f 46//258 45//259 82//260
f 46//261 82//262 36//263
f 59//264 83//265 50//266
f 49//267 59//268 50//269
f 50//270 84//271 51//272
f 51//273 84//274 20//275
f 17//276 52//277 20//278
f 52//279 53//280 48//281
f 56//282 83//283 58//284
f 58//285 83//286 59//287
f 60//288 70//289 61//290
f 60//291 65//292 70//293
f 66//294 60//295 62//296
f 30//297 73//298 72//299
f 85//300 76//301 66//302
f 69//303 76//304 85//305
f 69//306 68//307 76//308
f 21//309 25//310 3//311
f 3//312 33//313 21//314
f 72//315 1//316 3//317
f 72//318 3//319 27//320
f 73//321 29//322 32//323
f 73//324 1//325 72//326
f 48//327 75//328 49//329
f 34//330 33//331 4//332
f 34//333 31//334 33//335
f 4//336 33//337 2//338
f 35//339 39//340 5//341
f 35//342 7//343 36//344
f 5//345 42//346 6//347
f 47//348 7//349 6//350
f 49//351 75//352 59//353
f 48//354 74//355 13//356
f 57//357 14//358 74//359
f 57//360 74//361 17//362
f 15//363 54//364 59//365
f 63//366 77//367 64//368
f 76//369 77//370 63//371
f 71//372 65//373 64//374
f 56//375 55//376 79//377
f 19//378 78//379 22//380
f 30//381 29//382 73//383
f 48//384 13//385 75//386
