# Blender v2.80 (sub 75) OBJ File: 'field.blend'
# www.blender.org
v -24.300001 -24.300001 -11.000001
v -24.300001 24.300001 -11.000001
v 24.300001 -24.300001 -11.000001
v 24.300001 24.300001 -11.000001
v -26.700001 -26.700001 -16.000000
v -26.700001 -26.700001 12.000000
v -26.700001 26.700001 -16.000000
v -26.700001 26.700001 12.000000
v 26.700001 -26.700001 -16.000000
v 26.700001 -26.700001 12.000000
v 26.700001 26.700001 -16.000000
v 26.700001 26.700001 12.000000
v -24.300001 -24.300001 12.000000
v 24.300001 -24.300001 12.000000
v -24.300001 24.300001 12.000000
v 24.300001 24.300001 12.000000
vn 1.0000 0.0000 0.0000
vn 0.0000 -1.0000 0.0000
vn -1.0000 0.0000 0.0000
vn 0.0000 1.0000 0.0000
vn 0.0000 0.0000 1.0000
vn 0.0000 0.0000 -1.0000
s off
f 2//1 13//1 1//1
f 4//2 15//2 2//2
f 3//3 16//3 4//3
f 1//4 14//4 3//4
f 1//5 4//5 2//5
f 6//3 7//3 5//3
f 8//4 11//4 7//4
f 12//1 9//1 11//1
f 10//2 5//2 9//2
f 11//6 5//6 7//6
f 14//5 6//5 10//5
f 15//5 12//5 8//5
f 2//1 15//1 13//1
f 4//2 16//2 15//2
f 3//3 14//3 16//3
f 1//4 13//4 14//4
f 1//5 3//5 4//5
f 6//3 8//3 7//3
f 8//4 12//4 11//4
f 12//1 10//1 9//1
f 10//2 6//2 5//2
f 11//6 9//6 5//6
f 10//5 12//5 16//5
f 14//5 13//5 6//5
f 10//5 16//5 14//5
f 8//5 6//5 13//5
f 15//5 16//5 12//5
f 8//5 13//5 15//5
