# Blender v2.80 (sub 75) OBJ File: 'field.blend'
# www.blender.org
v -23.632450 -18.958353 6.667498
v -23.632450 -18.758352 6.667498
v -23.876764 -18.758352 6.440682
v -23.499794 -18.958353 1.448649
v -23.876764 -18.958353 6.440682
v -23.499794 -18.758352 1.448649
v -23.749714 -18.958353 1.442296
v -23.749714 -18.758352 1.442296
v -23.376926 -18.758352 6.453388
v -23.376926 -18.958353 6.453388
v -23.249876 -18.958353 1.455002
v -23.249876 -18.758352 1.455002
v -18.464931 -18.958353 6.851021
v -18.464931 -18.758352 6.851021
v -18.709248 -18.758352 6.624205
v -18.332275 -18.958353 1.632172
v -18.709248 -18.958353 6.624205
v -18.332275 -18.758352 1.632172
v -18.582195 -18.958353 1.625819
v -18.582195 -18.758352 1.625819
v -18.209408 -18.758352 6.636910
v -18.209408 -18.958353 6.636910
v -18.082355 -18.958353 1.638524
v -18.082355 -18.758352 1.638524
v -23.619984 -18.976522 3.478359
v -23.657906 -19.176521 3.976920
v -23.619984 -19.176521 3.478359
v -23.657906 -18.976522 3.976920
v -23.635708 -18.976522 5.156940
v -23.642590 -19.176521 5.656893
v -23.635708 -19.176521 5.156940
v -23.642590 -18.976522 5.656893
v -18.510017 -18.976522 5.391523
v -23.502829 -18.976522 5.123488
v -23.529633 -18.976522 5.622769
v -23.502829 -19.176521 5.123488
v -23.529633 -19.176521 5.622769
v -18.536823 -19.176521 5.890804
v -18.510017 -19.176521 5.391523
v -18.536823 -18.976522 5.890804
v -13.321617 -18.976521 3.617289
v -18.316246 -18.976522 3.385596
v -18.339417 -18.976522 3.885059
v -18.316246 -19.176521 3.385596
v -18.339417 -19.176521 3.885059
v -13.344788 -19.176521 4.116752
v -13.321617 -19.176521 3.617289
v -13.344788 -18.976521 4.116752
v -18.491016 -18.976522 3.435109
v -23.491016 -18.976522 3.435108
v -23.491016 -18.976522 3.935108
v -23.491016 -19.176521 3.435108
v -23.491016 -19.176521 3.935108
v -18.491016 -19.176521 3.935109
v -18.491016 -19.176521 3.435109
v -18.491016 -18.976522 3.935109
v -8.043343 -18.976522 3.473051
v -8.043343 -18.976522 2.973051
v -13.043343 -18.976524 2.973051
v -8.043343 -19.176523 3.473051
v -8.043343 -19.176523 2.973051
v -13.043343 -19.176523 3.473051
v -13.043343 -19.176523 2.973051
v -13.043343 -18.976524 3.473051
v 15.039700 -18.958353 6.684479
v 15.039700 -18.758352 6.684479
v 14.795383 -18.758352 6.457663
v 15.172352 -18.958353 1.465630
v 14.795383 -18.958353 6.457663
v 15.172352 -18.758352 1.465630
v 14.922436 -18.958353 1.459278
v 14.922436 -18.758352 1.459278
v 15.295223 -18.758352 6.470368
v 15.295223 -18.958353 6.470368
v 15.422276 -18.958353 1.471983
v 15.422276 -18.758352 1.471983
v 9.985844 -18.958353 6.870207
v 9.985844 -18.758352 6.870207
v 9.741528 -18.758352 6.643391
v 10.118504 -18.958353 1.651358
v 9.741528 -18.958353 6.643391
v 10.118504 -18.758352 1.651358
v 9.868580 -18.958353 1.645005
v 9.868580 -18.758352 1.645005
v 10.241367 -18.758352 6.656096
v 10.241367 -18.958353 6.656096
v 10.368420 -18.958353 1.657711
v 10.368420 -18.758352 1.657711
v 20.120960 -18.958351 7.052022
v 20.120960 -18.758352 7.052022
v 19.876644 -18.758352 6.825206
v 20.253613 -18.958351 1.833173
v 19.876644 -18.958351 6.825206
v 20.253613 -18.758352 1.833173
v 20.003696 -18.958351 1.826820
v 20.003696 -18.758352 1.826820
v 20.376484 -18.758352 6.837912
v 20.376484 -18.958351 6.837912
v 20.503529 -18.958351 1.839526
v 20.503529 -18.758352 1.839526
v 10.030590 -18.976522 3.571522
v 10.036243 -18.976522 4.071490
v 15.035923 -18.976521 4.014919
v 10.030590 -19.176521 3.571522
v 10.036243 -19.176521 4.071490
v 15.035923 -19.176521 4.014919
v 15.030270 -18.976521 3.514951
v 15.030270 -19.176521 3.514951
v 20.133427 -18.976521 3.862884
v 15.147823 -18.976521 3.483677
v 15.109898 -18.976521 3.982237
v 15.147823 -19.176521 3.483677
v 15.109898 -19.176521 3.982237
v 20.095501 -19.176521 4.361444
v 20.133427 -19.176521 3.862884
v 20.095501 -18.976521 4.361444
v 20.117695 -18.976521 5.541464
v 15.118168 -18.976521 5.472637
v 15.111286 -18.976521 5.972589
v 15.118168 -19.176521 5.472637
v 15.111286 -19.176521 5.972589
v 20.110813 -19.176521 6.041416
v 20.117695 -19.176521 5.541464
v 20.110813 -18.976521 6.041416
v 14.997662 -18.976521 5.477828
v 10.016781 -18.976522 5.040985
v 9.973095 -18.976522 5.539073
v 10.016781 -19.176521 5.040985
v 9.973095 -19.176521 5.539073
v 14.953976 -19.176521 5.975916
v 14.997662 -19.176521 5.477828
v 14.953976 -18.976521 5.975916
v 20.250576 -18.976521 5.508012
v 20.223774 -18.976521 6.007293
v 20.250576 -19.176521 5.508012
v 20.223774 -19.176521 6.007293
v 20.262394 -18.976521 3.819633
v 20.262394 -18.976521 4.319633
v 20.262394 -19.176521 3.819633
v 20.262394 -19.176521 4.319633
v -12.982506 -18.758354 6.476210
v -13.238029 -18.758354 6.690320
v -13.238029 -18.958355 6.690320
v -12.982506 -18.958355 6.476210
v -13.105373 -18.958355 1.471472
v -12.855453 -18.958355 1.477824
v -13.105373 -18.758354 1.471472
v -13.355293 -18.958355 1.465119
v -13.482346 -18.958355 6.463505
v -13.482346 -18.758354 6.463505
v -12.855453 -18.758354 1.477824
v -13.355293 -18.758354 1.465119
v -2.718758 -18.758354 6.438264
v -2.974281 -18.758354 6.652374
v -2.974281 -18.958353 6.652374
v -2.718758 -18.958353 6.438264
v -2.841626 -18.958353 1.433526
v -2.591705 -18.958353 1.439878
v -2.841626 -18.758354 1.433526
v -3.091546 -18.958353 1.427173
v -3.218597 -18.958353 6.425559
v -3.218597 -18.758354 6.425559
v -2.591705 -18.758354 1.439878
v -3.091546 -18.758354 1.427173
v 2.329952 -18.758354 6.455000
v 2.074429 -18.758354 6.669110
v 2.074429 -18.958353 6.669110
v 2.329952 -18.958353 6.455000
v 2.207081 -18.958353 1.450262
v 2.457001 -18.958353 1.456614
v 2.207081 -18.758354 1.450262
v 1.957165 -18.958353 1.443909
v 1.830112 -18.958353 6.442295
v 1.830112 -18.758354 6.442295
v 2.457001 -18.758354 1.456614
v 1.957165 -18.758354 1.443909
v -7.809163 -18.758354 6.430563
v -8.064686 -18.758354 6.644673
v -8.064686 -18.958355 6.644673
v -7.809163 -18.958355 6.430563
v -7.932034 -18.958355 1.425825
v -7.682114 -18.958355 1.432177
v -7.932034 -18.758354 1.425825
v -8.181950 -18.958355 1.419472
v -8.309002 -18.958355 6.417857
v -8.309002 -18.758354 6.417857
v -7.682114 -18.758354 1.432177
v -8.181950 -18.758354 1.419472
v 2.196495 -18.976522 3.352353
v -2.796176 -18.976522 3.081738
v -2.823238 -18.976522 3.581005
v 2.169434 -18.976522 3.851620
v 2.169434 -19.176521 3.851620
v 2.196495 -19.176521 3.352353
v -2.823238 -19.176523 3.581005
v -2.796176 -19.176523 3.081738
v -2.899640 -18.976522 3.109725
v -7.899441 -18.976522 3.064973
v -7.903915 -18.976522 3.564953
v -2.904113 -18.976522 3.609705
v -2.904113 -19.176523 3.609705
v -2.899640 -19.176523 3.109725
v -7.903915 -19.176523 3.564953
v -7.899441 -19.176523 3.064973
v -2.984612 -18.976522 4.954238
v -7.984138 -18.976522 4.885410
v -7.991021 -18.976522 5.385363
v -2.991498 -18.976522 5.454190
v -2.991498 -19.176523 5.454190
v -2.984612 -19.176523 4.954238
v -7.991021 -19.176523 5.385363
v -7.984138 -19.176523 4.885410
v 2.152439 -18.976522 4.990335
v -2.846207 -18.976522 4.874052
v -2.857833 -18.976522 5.373917
v 2.140812 -18.976522 5.490200
v 2.140812 -19.176521 5.490200
v 2.152439 -19.176521 4.990335
v -2.857833 -19.176523 5.373917
v -2.846207 -19.176523 4.874052
v -8.102871 -18.976522 4.841270
v -13.101986 -18.976524 4.747216
v -13.111393 -18.976524 5.247128
v -8.112278 -18.976522 5.341182
v -8.112278 -19.176523 5.341182
v -8.102871 -19.176523 4.841270
v -13.111393 -19.176523 5.247128
v -13.101986 -19.176523 4.747216
v -13.308887 -18.976524 4.634777
v -18.308849 -18.976524 4.614976
v -18.310825 -18.976524 5.114972
v -13.310867 -18.976524 5.134773
v -13.310867 -19.176523 5.134773
v -13.308887 -19.176523 4.634777
v -18.310825 -19.176523 5.114972
v -18.308849 -19.176523 4.614976
v 24.258549 -19.176519 4.319633
v 24.258549 -19.176519 3.920018
v 24.258549 -19.176519 3.819633
v 24.258547 -19.016672 3.819633
v 24.258549 -19.136366 4.319633
v 24.258547 -18.976519 3.819633
v 24.258547 -18.976519 3.920017
v 24.258549 -18.976521 4.319633
v 24.258549 -19.176519 6.223897
v 24.258549 -19.176519 5.821418
v 24.258549 -19.176519 5.723178
v 24.258549 -19.015970 5.723178
v 24.258549 -18.976521 5.821418
v 24.258549 -18.976521 6.223897
v 24.258549 -18.976519 5.723178
v 24.258549 -19.138144 6.223897
v -24.258549 -18.976524 3.493531
v -24.258549 -18.976522 3.931235
v -24.258549 -19.176523 3.931235
v -24.258549 -19.176523 3.493531
v -24.258549 -18.976522 3.429790
v -24.258549 -19.002138 3.429790
v -24.258549 -19.176521 3.429790
v -24.258549 -19.176523 5.648413
v -24.258549 -19.176521 5.210576
v -24.258549 -18.976522 5.148365
v -24.258549 -18.976522 5.210576
v -24.258549 -19.001438 5.148365
v -24.258549 -19.176521 5.148365
v -24.258549 -18.976522 5.648413
v -24.258549 -19.151882 5.648413
v -24.258549 -19.152428 3.931235
vn 1.0000 0.0000 0.0000
vn -1.0000 0.0000 0.0000
vn -0.6804 0.0000 0.7329
vn 0.0000 -1.0000 0.0000
vn 0.0254 0.0000 -0.9997
vn 0.0000 1.0000 -0.0000
vn 0.9997 0.0000 0.0254
vn -0.9997 0.0000 -0.0254
vn 0.6423 0.0000 0.7665
vn 0.0758 0.0000 -0.9971
vn 0.9971 0.0000 0.0758
vn 0.0138 0.0000 -0.9999
vn 0.9999 0.0000 0.0138
vn -0.9986 0.0000 -0.0536
vn -0.0536 0.0000 0.9986
vn 0.0536 0.0000 -0.9986
vn 0.9986 0.0000 0.0536
vn -0.9989 0.0000 -0.0463
vn -0.0463 0.0000 0.9989
vn 0.0463 0.0000 -0.9989
vn 0.9989 0.0000 0.0463
vn -0.0000 0.0000 1.0000
vn 0.0000 0.0000 -1.0000
vn -0.9999 0.0000 0.0113
vn 0.0113 0.0000 0.9999
vn -0.0113 0.0000 -0.9999
vn 0.9999 0.0000 -0.0113
vn -0.9971 0.0000 -0.0759
vn -0.0758 0.0000 0.9971
vn 0.9971 0.0000 0.0759
vn -0.9999 0.0000 -0.0138
vn -0.0138 0.0000 0.9999
vn -0.9962 0.0000 -0.0874
vn -0.0874 0.0000 0.9962
vn 0.0874 0.0000 -0.9962
vn 0.9962 0.0000 0.0874
vn 0.9985 0.0000 0.0541
vn -0.0541 0.0000 0.9985
vn 0.0541 0.0000 -0.9985
vn -0.9985 0.0000 -0.0541
vn 1.0000 0.0000 0.0089
vn -0.0090 0.0000 1.0000
vn 0.0090 0.0000 -1.0000
vn -1.0000 0.0000 -0.0089
vn 0.9997 0.0000 0.0233
vn -0.0233 0.0000 0.9997
vn 0.0233 0.0000 -0.9997
vn -0.9997 0.0000 -0.0233
vn 0.9998 0.0000 0.0188
vn -0.0188 0.0000 0.9998
vn 0.0188 0.0000 -0.9998
vn -0.9998 0.0000 -0.0188
vn 1.0000 0.0000 0.0040
vn -0.0040 0.0000 1.0000
vn 0.0040 0.0000 -1.0000
vn -1.0000 0.0000 -0.0040
s off
f 246//1 248//1 249//1
f 238//1 240//1 243//1
f 263//2 264//2 261//2
f 253//2 258//2 256//2
f 252//1 245//1 246//1
f 246//1 247//1 248//1
f 248//1 251//1 249//1
f 249//1 250//1 252//1
f 252//1 246//1 249//1
f 244//1 241//1 243//1
f 241//1 237//1 238//1
f 238//1 239//1 240//1
f 241//1 238//1 243//1
f 240//1 242//1 243//1
f 267//2 266//2 263//2
f 263//2 262//2 264//2
f 264//2 265//2 261//2
f 261//2 260//2 267//2
f 267//2 263//2 261//2
f 255//2 268//2 256//2
f 268//2 254//2 253//2
f 253//2 257//2 258//2
f 268//2 253//2 256//2
f 258//2 259//2 256//2
s 1
f 1//3 2//3 3//3
f 4//4 1//4 5//4
f 6//5 4//5 7//5
f 6//6 8//6 3//6
f 9//7 10//7 11//7
f 8//8 7//8 5//8
f 9//6 12//6 6//6
f 12//5 11//5 4//5
f 10//4 1//4 4//4
f 10//9 9//9 2//9
f 13//3 14//3 15//3
f 16//4 13//4 17//4
f 18//5 16//5 19//5
f 18//6 20//6 15//6
f 21//7 22//7 23//7
f 20//8 19//8 17//8
f 21//6 24//6 18//6
f 24//5 23//5 16//5
f 22//4 13//4 16//4
f 22//9 21//9 14//9
f 25//6 257//6 253//6
f 27//10 258//10 25//10
f 25//11 28//11 26//11
f 26//4 256//4 27//4
f 29//6 262//6 263//6
f 31//12 264//12 29//12
f 29//13 32//13 30//13
f 30//4 261//4 31//4
f 33//6 34//6 35//6
f 36//14 37//14 35//14
f 35//15 37//15 38//15
f 33//16 39//16 36//16
f 33//17 40//17 38//17
f 39//4 38//4 37//4
f 41//6 42//6 43//6
f 44//18 45//18 43//18
f 43//19 45//19 46//19
f 41//20 47//20 44//20
f 41//21 48//21 46//21
f 47//4 46//4 45//4
f 49//6 50//6 51//6
f 52//2 53//2 51//2
f 51//22 53//22 54//22
f 49//23 55//23 52//23
f 49//1 56//1 54//1
f 55//4 54//4 53//4
f 57//6 58//6 59//6
f 57//1 60//1 61//1
f 62//22 60//22 57//22
f 61//23 63//23 59//23
f 62//2 64//2 59//2
f 60//4 62//4 63//4
f 65//3 66//3 67//3
f 68//4 65//4 69//4
f 70//5 68//5 71//5
f 70//6 72//6 67//6
f 73//7 74//7 75//7
f 72//8 71//8 69//8
f 73//6 76//6 70//6
f 76//5 75//5 68//5
f 74//4 65//4 68//4
f 74//9 73//9 66//9
f 77//3 78//3 79//3
f 80//4 77//4 81//4
f 82//5 80//5 83//5
f 82//6 84//6 79//6
f 85//7 86//7 87//7
f 84//8 83//8 81//8
f 85//6 88//6 82//6
f 88//5 87//5 80//5
f 86//4 77//4 80//4
f 86//9 85//9 78//9
f 89//3 90//3 91//3
f 92//4 89//4 93//4
f 94//5 92//5 95//5
f 94//6 96//6 91//6
f 97//7 98//7 99//7
f 96//8 95//8 93//8
f 97//6 100//6 94//6
f 100//5 99//5 92//5
f 98//4 89//4 92//4
f 98//9 97//9 90//9
f 101//6 102//6 103//6
f 104//24 105//24 102//24
f 102//25 105//25 106//25
f 107//26 108//26 104//26
f 107//27 103//27 106//27
f 106//4 105//4 104//4
f 109//6 110//6 111//6
f 112//28 113//28 111//28
f 111//29 113//29 114//29
f 109//10 115//10 112//10
f 109//30 116//30 114//30
f 115//4 114//4 113//4
f 117//6 118//6 119//6
f 120//31 121//31 119//31
f 119//32 121//32 122//32
f 117//12 123//12 120//12
f 117//13 124//13 122//13
f 123//4 122//4 121//4
f 125//6 126//6 127//6
f 128//33 129//33 127//33
f 127//34 129//34 130//34
f 125//35 131//35 128//35
f 125//36 132//36 130//36
f 131//4 130//4 129//4
f 135//14 136//14 134//14
f 136//15 252//15 134//15
f 139//2 140//2 138//2
f 140//22 241//22 138//22
f 141//9 142//9 143//9
f 144//4 143//4 145//4
f 146//5 145//5 147//5
f 147//6 142//6 141//6
f 148//8 149//8 150//8
f 144//7 146//7 151//7
f 147//6 152//6 150//6
f 145//5 148//5 152//5
f 149//4 148//4 145//4
f 142//3 150//3 149//3
f 153//9 154//9 155//9
f 156//4 155//4 157//4
f 158//5 157//5 159//5
f 159//6 154//6 153//6
f 160//8 161//8 162//8
f 156//7 158//7 163//7
f 159//6 164//6 162//6
f 157//5 160//5 164//5
f 161//4 160//4 157//4
f 154//3 162//3 161//3
f 165//9 166//9 167//9
f 168//4 167//4 169//4
f 170//5 169//5 171//5
f 171//6 166//6 165//6
f 172//8 173//8 174//8
f 168//7 170//7 175//7
f 171//6 176//6 174//6
f 169//5 172//5 176//5
f 173//4 172//4 169//4
f 166//3 174//3 173//3
f 177//9 178//9 179//9
f 180//4 179//4 181//4
f 182//5 181//5 183//5
f 183//6 178//6 177//6
f 184//8 185//8 186//8
f 180//7 182//7 187//7
f 183//6 188//6 186//6
f 181//5 184//5 188//5
f 185//4 184//4 181//4
f 178//3 186//3 185//3
f 189//6 190//6 191//6
f 192//37 193//37 194//37
f 195//38 193//38 192//38
f 194//39 196//39 190//39
f 195//40 191//40 190//40
f 195//4 196//4 194//4
f 197//6 198//6 199//6
f 200//41 201//41 202//41
f 203//42 201//42 200//42
f 202//43 204//43 198//43
f 203//44 199//44 198//44
f 203//4 204//4 202//4
f 205//6 206//6 207//6
f 208//13 209//13 210//13
f 211//32 209//32 208//32
f 210//12 212//12 206//12
f 211//31 207//31 206//31
f 211//4 212//4 210//4
f 213//6 214//6 215//6
f 216//45 217//45 218//45
f 219//46 217//46 216//46
f 218//47 220//47 214//47
f 219//48 215//48 214//48
f 219//4 220//4 218//4
f 221//6 222//6 223//6
f 224//49 225//49 226//49
f 227//50 225//50 224//50
f 226//51 228//51 222//51
f 227//52 223//52 222//52
f 227//4 228//4 226//4
f 229//6 230//6 231//6
f 232//53 233//53 234//53
f 235//54 233//54 232//54
f 234//55 236//55 230//55
f 235//56 231//56 230//56
f 235//4 236//4 234//4
f 1//3 3//3 5//3
f 4//4 5//4 7//4
f 6//5 7//5 8//5
f 6//6 3//6 2//6
f 9//7 11//7 12//7
f 8//8 5//8 3//8
f 9//6 6//6 2//6
f 12//5 4//5 6//5
f 10//4 4//4 11//4
f 10//9 2//9 1//9
f 13//3 15//3 17//3
f 16//4 17//4 19//4
f 18//5 19//5 20//5
f 18//6 15//6 14//6
f 21//7 23//7 24//7
f 20//8 17//8 15//8
f 21//6 18//6 14//6
f 24//5 16//5 18//5
f 22//4 16//4 23//4
f 22//9 14//9 13//9
f 253//6 28//6 25//6
f 25//10 258//10 257//10
f 25//11 26//11 27//11
f 27//4 256//4 259//4
f 263//6 32//6 29//6
f 29//12 264//12 262//12
f 29//13 30//13 31//13
f 31//4 261//4 265//4
f 33//6 35//6 40//6
f 36//14 35//14 34//14
f 35//15 38//15 40//15
f 33//16 36//16 34//16
f 33//17 38//17 39//17
f 39//4 37//4 36//4
f 41//6 43//6 48//6
f 44//18 43//18 42//18
f 43//19 46//19 48//19
f 41//20 44//20 42//20
f 41//21 46//21 47//21
f 47//4 45//4 44//4
f 49//6 51//6 56//6
f 52//2 51//2 50//2
f 51//22 54//22 56//22
f 49//23 52//23 50//23
f 49//1 54//1 55//1
f 55//4 53//4 52//4
f 57//6 59//6 64//6
f 57//1 61//1 58//1
f 62//22 57//22 64//22
f 61//23 59//23 58//23
f 62//2 59//2 63//2
f 60//4 63//4 61//4
f 65//3 67//3 69//3
f 68//4 69//4 71//4
f 70//5 71//5 72//5
f 70//6 67//6 66//6
f 73//7 75//7 76//7
f 72//8 69//8 67//8
f 73//6 70//6 66//6
f 76//5 68//5 70//5
f 74//4 68//4 75//4
f 74//9 66//9 65//9
f 77//3 79//3 81//3
f 80//4 81//4 83//4
f 82//5 83//5 84//5
f 82//6 79//6 78//6
f 85//7 87//7 88//7
f 84//8 81//8 79//8
f 85//6 82//6 78//6
f 88//5 80//5 82//5
f 86//4 80//4 87//4
f 86//9 78//9 77//9
f 89//3 91//3 93//3
f 92//4 93//4 95//4
f 94//5 95//5 96//5
f 94//6 91//6 90//6
f 97//7 99//7 100//7
f 96//8 93//8 91//8
f 97//6 94//6 90//6
f 100//5 92//5 94//5
f 98//4 92//4 99//4
f 98//9 90//9 89//9
f 101//6 103//6 107//6
f 104//24 102//24 101//24
f 102//25 106//25 103//25
f 107//26 104//26 101//26
f 107//27 106//27 108//27
f 106//4 104//4 108//4
f 109//6 111//6 116//6
f 112//28 111//28 110//28
f 111//29 114//29 116//29
f 109//10 112//10 110//10
f 109//30 114//30 115//30
f 115//4 113//4 112//4
f 117//6 119//6 124//6
f 120//31 119//31 118//31
f 119//32 122//32 124//32
f 117//12 120//12 118//12
f 117//13 122//13 123//13
f 123//4 121//4 120//4
f 125//6 127//6 132//6
f 128//33 127//33 126//33
f 127//34 130//34 132//34
f 125//35 128//35 126//35
f 125//36 130//36 131//36
f 131//4 129//4 128//4
f 135//14 134//14 133//14
f 134//15 252//15 250//15
f 139//2 138//2 137//2
f 138//22 241//22 244//22
f 141//9 143//9 144//9
f 144//4 145//4 146//4
f 146//5 147//5 151//5
f 147//6 141//6 151//6
f 148//8 150//8 152//8
f 144//7 151//7 141//7
f 147//6 150//6 142//6
f 145//5 152//5 147//5
f 149//4 145//4 143//4
f 142//3 149//3 143//3
f 153//9 155//9 156//9
f 156//4 157//4 158//4
f 158//5 159//5 163//5
f 159//6 153//6 163//6
f 160//8 162//8 164//8
f 156//7 163//7 153//7
f 159//6 162//6 154//6
f 157//5 164//5 159//5
f 161//4 157//4 155//4
f 154//3 161//3 155//3
f 165//9 167//9 168//9
f 168//4 169//4 170//4
f 170//5 171//5 175//5
f 171//6 165//6 175//6
f 172//8 174//8 176//8
f 168//7 175//7 165//7
f 171//6 174//6 166//6
f 169//5 176//5 171//5
f 173//4 169//4 167//4
f 166//3 173//3 167//3
f 177//9 179//9 180//9
f 180//4 181//4 182//4
f 182//5 183//5 187//5
f 183//6 177//6 187//6
f 184//8 186//8 188//8
f 180//7 187//7 177//7
f 183//6 186//6 178//6
f 181//5 188//5 183//5
f 185//4 181//4 179//4
f 178//3 185//3 179//3
f 189//6 191//6 192//6
f 192//37 194//37 189//37
f 195//38 192//38 191//38
f 194//39 190//39 189//39
f 195//40 190//40 196//40
f 195//4 194//4 193//4
f 197//6 199//6 200//6
f 200//41 202//41 197//41
f 203//42 200//42 199//42
f 202//43 198//43 197//43
f 203//44 198//44 204//44
f 203//4 202//4 201//4
f 205//6 207//6 208//6
f 208//13 210//13 205//13
f 211//32 208//32 207//32
f 210//12 206//12 205//12
f 211//31 206//31 212//31
f 211//4 210//4 209//4
f 213//6 215//6 216//6
f 216//45 218//45 213//45
f 219//46 216//46 215//46
f 218//47 214//47 213//47
f 219//48 214//48 220//48
f 219//4 218//4 217//4
f 221//6 223//6 224//6
f 224//49 226//49 221//49
f 227//50 224//50 223//50
f 226//51 222//51 221//51
f 227//52 222//52 228//52
f 227//4 226//4 225//4
f 229//6 231//6 232//6
f 232//53 234//53 229//53
f 235//54 232//54 231//54
f 234//55 230//55 229//55
f 235//56 230//56 236//56
f 235//4 234//4 233//4
f 248//16 247//16 135//16
f 238//4 237//4 140//4
f 246//4 245//4 136//4
f 243//6 137//6 138//6
f 240//23 137//23 242//23
f 248//16 133//16 251//16
f 244//6 243//6 138//6
f 246//4 135//4 247//4
f 250//6 249//6 134//6
f 249//6 133//6 134//6
f 238//4 139//4 239//4
f 240//23 239//23 139//23
f 267//32 32//32 266//32
f 268//29 28//29 254//29
f 268//29 255//29 26//29
f 267//32 260//32 30//32
f 27//10 259//10 258//10
f 26//4 255//4 256//4
f 31//12 265//12 264//12
f 30//4 260//4 261//4
f 136//15 245//15 252//15
f 140//22 237//22 241//22
f 253//6 254//6 28//6
f 263//6 266//6 32//6
f 243//6 242//6 137//6
f 240//23 139//23 137//23
f 248//16 135//16 133//16
f 246//4 136//4 135//4
f 249//6 251//6 133//6
f 238//4 140//4 139//4
f 267//32 30//32 32//32
f 268//29 26//29 28//29
