# Blender v2.80 (sub 75) OBJ File: 'road.blend'
# www.blender.org
v 7.698346 -23.510445 29.021194
v 6.728690 -23.063431 27.899702
v 6.601912 -24.366890 29.627817
v 5.632256 -23.919876 28.506325
v 5.613393 -25.435907 30.056406
v 4.643736 -24.988894 28.934914
v 4.770777 -26.676414 30.290491
v 3.801120 -26.229401 29.168999
v 4.106445 -28.040739 30.321075
v 3.136788 -27.593727 29.199583
v 3.645928 -29.476454 30.146988
v 2.676271 -29.029440 29.025494
v 3.406922 -30.928383 29.774914
v 2.437266 -30.481369 28.653421
v 3.398614 -32.340729 29.219154
v 2.428957 -31.893715 28.097662
v 3.621321 -33.659214 28.501068
v 2.651664 -33.212200 27.379574
v 4.066485 -34.833176 27.648247
v 3.096829 -34.386162 26.526754
v 4.717000 -35.817493 26.693466
v 3.747343 -35.370480 25.571974
v 5.547866 -36.574341 25.673420
v 4.578209 -36.127331 24.551926
v 12.218176 -35.429855 20.362366
v 11.248519 -34.982841 19.240873
v 13.206694 -34.360836 19.933779
v 12.237038 -33.913822 18.812286
v 14.049309 -33.120331 19.699696
v 13.079653 -32.673317 18.578201
v 14.713639 -31.756002 19.669111
v 13.743982 -31.308989 18.547619
v 15.174155 -30.320290 19.843201
v 14.204498 -29.873276 18.721708
v 15.413159 -28.868362 20.215275
v 14.443502 -28.421349 19.093782
v 15.421466 -27.456018 20.771034
v 14.451809 -27.009005 19.649542
v 15.198758 -26.137531 21.489124
v 14.229101 -25.690519 20.367630
v 14.753593 -24.963573 22.341944
v 13.783937 -24.516560 21.220451
v 14.103078 -23.979256 23.296724
v 13.133421 -23.532242 22.175232
v 13.272213 -23.222408 24.316771
v 12.302556 -22.775394 23.195278
v 12.292926 -22.722113 25.362886
v 11.323269 -22.275099 24.241392
v 11.202851 -22.497597 26.394867
v 10.233194 -22.050583 25.273373
v 10.043880 -22.557489 27.373055
v 9.074224 -22.110476 26.251562
v 7.890903 -22.452471 27.138359
v 8.860559 -22.899485 28.259853
v 12.958943 -34.358086 20.149084
v 11.989286 -33.911072 19.027592
v 8.784942 -25.460800 25.166277
v 9.754601 -25.907814 26.287771
v 7.838285 -25.734396 25.875715
v 8.807944 -26.181410 26.997210
v 6.908515 -26.223164 26.484789
v 7.878173 -26.670179 27.606283
v 4.616552 -34.789192 27.190182
v 3.646898 -34.342182 26.068691
v 4.972683 -35.728363 26.507923
v 4.003030 -35.281349 25.386435
v 4.438388 -33.734406 27.764652
v 3.468731 -33.287392 26.643158
v 4.599793 -36.138355 24.528870
v 5.569449 -36.585369 25.650362
v 5.493102 -36.515823 25.744106
v 4.523438 -36.068806 24.622606
v 14.056669 -29.826637 21.006155
v 13.087015 -29.379625 19.884665
v 11.367608 -25.992735 22.721249
v 12.337266 -26.439749 23.842745
v 14.050024 -30.956512 20.561548
v 13.080369 -30.509501 19.440056
v 13.878503 -28.771849 21.580626
v 12.908847 -28.324837 20.459133
v 5.240552 -27.763535 27.312958
v 6.210210 -28.210548 28.434452
v 6.031367 -26.908321 26.970085
v 7.001026 -27.355335 28.091581
v 4.566459 -28.755939 27.500225
v 5.536118 -29.202953 28.621719
v 13.858820 -32.118057 20.263887
v 12.889166 -31.671041 19.142397
v 11.315193 -34.903481 19.214855
v 12.284854 -35.350494 20.336353
v 12.194013 -35.448730 20.375736
v 11.224356 -35.001717 19.254242
v 13.490408 -33.266624 20.124617
v 12.520753 -32.819614 19.003124
v 4.445034 -32.604530 28.209259
v 3.475378 -32.157516 27.087765
v 3.666580 -30.995972 27.385422
v 4.636239 -31.442986 28.506918
v 12.032301 -26.598213 21.905210
v 13.001959 -27.045227 23.026707
v 12.552713 -27.385668 21.141388
v 13.522371 -27.832682 22.262882
v 4.034994 -29.847401 27.524694
v 5.004653 -30.294415 28.646189
v 10.584179 -25.592499 23.558140
v 11.553837 -26.039513 24.679636
v 9.712119 -25.412888 24.383726
v 10.681777 -25.859901 25.505220
vn 0.2933 -0.7735 -0.5618
vn -0.7796 -0.2253 0.5843
vn 0.7636 0.0395 -0.6445
vn 0.5474 -0.4987 -0.6721
vn 0.6452 -0.3296 -0.6892
vn -0.7224 -0.5643 0.3997
vn 0.5552 0.8173 -0.1542
vn -0.5474 0.4987 0.6721
vn 0.6513 0.7043 -0.2824
vn -0.6452 0.3296 0.6892
vn 0.7224 0.5643 -0.3997
vn -0.7182 0.1479 0.6799
vn 0.7657 0.4025 -0.5016
vn -0.7636 -0.0395 0.6445
vn 0.0055 0.9305 0.3662
vn 0.7796 0.2253 -0.5843
vn 0.4286 -0.6485 -0.6291
vn -0.7657 -0.4025 0.5016
vn 0.7182 -0.1479 -0.6799
vn -0.4286 0.6485 0.6291
vn 0.4377 0.8989 -0.0202
vn -0.2933 0.7735 0.5619
vn 0.3034 0.9459 0.1147
vn -0.5552 -0.8173 0.1542
vn -0.6262 0.2887 -0.7243
vn -0.1467 0.8687 0.4731
vn 0.1575 0.9566 0.2451
vn -0.6513 -0.7043 0.2824
vn 0.6262 -0.2887 0.7243
vn -0.0055 -0.9305 -0.3662
vn 0.1467 -0.8687 -0.4731
vn -0.4377 -0.8989 0.0201
vn -0.1575 -0.9566 -0.2451
vn 0.2933 -0.7735 -0.5619
vn -0.3034 -0.9459 -0.1147
vn 0.2933 -0.7734 -0.5619
vn -0.6258 0.2886 -0.7246
vn -0.6264 0.2886 -0.7241
vn -0.6262 0.2887 -0.7242
vn -0.6262 0.2885 -0.7244
vn -0.6264 0.2883 -0.7242
vn 0.6255 -0.2900 0.7243
vn 0.6264 -0.2890 0.7239
vn 0.6262 -0.2887 0.7242
vn 0.6267 -0.2890 0.7237
vn 0.6270 -0.2892 0.7233
vn -0.4377 -0.8989 0.0202
s off
f 25//1 92//1 26//1
f 15//2 14//2 16//2
f 35//3 34//3 36//3
f 29//4 28//4 30//4
f 31//5 30//5 32//5
f 19//6 18//6 20//6
f 45//7 44//7 46//7
f 7//8 6//8 8//8
f 43//9 42//9 44//9
f 9//10 8//10 10//10
f 41//11 40//11 42//11
f 11//12 10//12 12//12
f 39//13 38//13 40//13
f 13//14 12//14 14//14
f 54//15 52//15 53//15
f 37//16 36//16 38//16
f 27//17 26//17 28//17
f 17//18 16//18 18//18
f 33//19 32//19 34//19
f 5//20 4//20 6//20
f 47//21 46//21 48//21
f 3//22 2//22 4//22
f 49//23 48//23 50//23
f 23//24 22//24 24//24
f 61//25 2//25 59//25
f 1//26 53//26 2//26
f 51//27 50//27 52//27
f 21//28 20//28 22//28
f 58//29 108//29 49//29
f 87//14 78//14 88//14
f 90//8 56//8 89//8
f 55//10 94//10 56//10
f 98//3 96//3 97//3
f 74//18 79//18 80//18
f 77//2 74//2 78//2
f 102//28 99//28 101//28
f 58//30 59//30 57//30
f 86//5 103//5 85//5
f 60//31 61//31 59//31
f 100//24 75//24 99//24
f 70//32 24//32 69//32
f 76//32 105//32 75//32
f 89//20 91//20 90//20
f 84//17 81//17 83//17
f 104//19 97//19 103//19
f 72//7 70//7 69//7
f 64//11 65//11 66//11
f 108//33 57//33 107//33
f 80//6 102//6 101//6
f 95//16 68//16 96//16
f 93//12 88//12 94//12
f 62//34 83//34 61//34
f 106//35 107//35 105//35
f 67//13 64//13 68//13
f 82//4 85//4 81//4
f 65//9 72//9 66//9
f 25//36 91//36 92//36
f 15//2 13//2 14//2
f 35//3 33//3 34//3
f 29//4 27//4 28//4
f 31//5 29//5 30//5
f 19//6 17//6 18//6
f 45//7 43//7 44//7
f 7//8 5//8 6//8
f 43//9 41//9 42//9
f 9//10 7//10 8//10
f 41//11 39//11 40//11
f 11//12 9//12 10//12
f 39//13 37//13 38//13
f 13//14 11//14 12//14
f 54//15 51//15 52//15
f 37//16 35//16 36//16
f 27//17 25//17 26//17
f 17//18 15//18 16//18
f 33//19 31//19 32//19
f 5//20 3//20 4//20
f 47//21 45//21 46//21
f 3//22 1//22 2//22
f 49//23 47//23 48//23
f 23//24 21//24 22//24
f 38//25 36//25 80//25
f 36//25 34//25 74//25
f 80//25 36//25 74//25
f 34//25 32//25 78//25
f 32//25 30//25 88//25
f 28//37 26//37 89//37
f 26//38 92//38 89//38
f 32//25 88//25 78//25
f 30//25 28//25 94//25
f 40//25 38//25 101//25
f 101//25 38//25 80//25
f 44//25 42//25 75//25
f 42//25 40//25 99//25
f 99//25 40//25 101//25
f 48//25 46//25 105//25
f 46//25 44//25 75//25
f 52//25 50//25 57//25
f 50//25 48//25 107//25
f 2//25 53//25 59//25
f 53//25 52//25 57//25
f 59//25 53//25 57//25
f 6//25 4//25 83//25
f 4//25 2//25 61//25
f 83//25 4//25 61//25
f 10//25 8//25 81//25
f 8//25 6//25 83//25
f 10//25 81//25 85//25
f 14//25 12//25 103//25
f 12//25 10//25 85//25
f 18//25 16//25 96//25
f 16//25 14//25 97//25
f 96//25 16//25 97//25
f 22//39 20//39 64//39
f 20//25 18//25 68//25
f 64//25 20//25 68//25
f 69//40 24//40 72//40
f 24//41 22//41 72//41
f 12//25 85//25 103//25
f 50//25 107//25 57//25
f 46//25 75//25 105//25
f 28//25 89//25 56//25
f 28//39 56//39 94//39
f 66//39 72//39 22//39
f 64//25 66//25 22//25
f 30//39 94//39 88//39
f 68//25 18//25 96//25
f 34//39 78//39 74//39
f 103//25 97//25 14//25
f 42//25 99//25 75//25
f 81//25 8//25 83//25
f 48//25 105//25 107//25
f 1//26 54//26 53//26
f 51//27 49//27 50//27
f 21//28 19//28 20//28
f 9//29 11//29 86//29
f 11//29 13//29 104//29
f 86//29 11//29 104//29
f 13//29 15//29 98//29
f 15//29 17//29 95//29
f 17//29 19//29 67//29
f 19//29 21//29 63//29
f 21//42 23//42 71//42
f 23//43 70//43 71//43
f 15//44 95//44 98//44
f 19//44 63//44 67//44
f 7//29 9//29 82//29
f 82//29 9//29 86//29
f 3//29 5//29 84//29
f 5//29 7//29 84//29
f 54//29 1//29 60//29
f 1//29 3//29 62//29
f 49//29 51//29 58//29
f 51//29 54//29 58//29
f 58//29 54//29 60//29
f 45//29 47//29 106//29
f 47//29 49//29 108//29
f 106//29 47//29 108//29
f 41//29 43//29 76//29
f 43//29 45//29 76//29
f 41//29 76//29 100//29
f 37//29 39//29 102//29
f 39//29 41//29 100//29
f 102//29 39//29 100//29
f 33//29 35//29 73//29
f 35//29 37//29 79//29
f 29//29 31//29 87//29
f 31//29 33//29 77//29
f 87//29 31//29 77//29
f 91//45 25//45 90//45
f 25//46 27//46 90//46
f 27//29 29//29 93//29
f 93//29 29//29 87//29
f 35//29 79//29 73//29
f 1//29 62//29 60//29
f 84//29 7//29 82//29
f 21//29 71//29 65//29
f 21//44 65//44 63//44
f 37//29 102//29 79//29
f 55//29 90//29 27//29
f 93//44 55//44 27//44
f 17//29 67//29 95//29
f 73//29 77//29 33//29
f 13//29 98//29 104//29
f 76//29 45//29 106//29
f 3//29 84//29 62//29
f 87//14 77//14 78//14
f 90//8 55//8 56//8
f 55//10 93//10 94//10
f 98//3 95//3 96//3
f 74//18 73//18 79//18
f 77//2 73//2 74//2
f 102//28 100//28 99//28
f 58//30 60//30 59//30
f 86//5 104//5 103//5
f 60//31 62//31 61//31
f 100//24 76//24 75//24
f 70//47 23//47 24//47
f 76//47 106//47 105//47
f 89//20 92//20 91//20
f 84//17 82//17 81//17
f 104//19 98//19 97//19
f 72//7 71//7 70//7
f 64//11 63//11 65//11
f 108//33 58//33 57//33
f 80//6 79//6 102//6
f 95//16 67//16 68//16
f 93//12 87//12 88//12
f 62//34 84//34 83//34
f 106//35 108//35 107//35
f 67//13 63//13 64//13
f 82//4 86//4 85//4
f 65//9 71//9 72//9
