# Blender v2.80 (sub 75) OBJ File: 'road.blend'
# www.blender.org
v 30.489826 3.981290 7.197206
v 30.035229 4.104668 8.036369
v 29.813484 3.535819 8.780222
v 29.954491 2.607966 8.993025
v 30.375645 1.864635 8.550121
v 30.830242 1.741258 7.710958
v 31.051987 2.310107 6.967104
v 30.910980 3.237959 6.754302
v 28.132645 3.130974 6.161901
v 27.740812 3.276993 7.028633
v 27.670593 2.762804 7.839037
v 27.963125 1.889612 8.118392
v 28.447044 1.168921 7.703055
v 28.838879 1.022903 6.836324
v 28.909096 1.537092 6.025920
v 28.616564 2.410284 5.746565
v 25.841921 1.865956 5.452341
v 25.511082 2.045657 6.337965
v 25.588118 1.612787 7.193982
v 26.027901 0.820913 7.518949
v 26.572815 0.133906 7.122505
v 26.903654 -0.045795 6.236880
v 26.826618 0.387075 5.380864
v 26.386833 1.178948 5.055897
v 23.705675 0.234847 5.095787
v 23.431717 0.457980 5.990905
v 23.646076 0.129961 6.869843
v 24.223183 -0.557060 7.217730
v 24.824978 -1.200636 6.830779
v 25.098936 -1.423769 5.935661
v 24.884577 -1.095749 5.056725
v 24.307470 -0.408729 4.708837
v 21.806009 -1.699668 5.105946
v 21.582634 -1.425026 6.000793
v 21.919107 -1.628689 6.879078
v 22.618330 -2.191355 7.226312
v 23.270706 -2.783422 6.839091
v 23.494081 -3.058064 5.944243
v 23.157608 -2.854400 5.065960
v 22.458385 -2.291735 4.718725
v 20.215923 -3.863247 5.482426
v 20.034887 -3.530997 6.367248
v 20.473576 -3.595580 7.221331
v 21.275013 -4.019165 7.544364
v 21.969727 -4.553622 7.147120
v 22.150764 -4.885874 6.262296
v 21.712074 -4.821290 5.408213
v 20.910639 -4.397705 5.085179
v 18.996529 -6.172741 6.210755
v 18.847961 -5.778996 7.076186
v 19.365034 -5.695119 7.883450
v 20.244856 -5.970245 8.159664
v 20.972038 -6.443208 7.743026
v 21.120607 -6.836953 6.877596
v 20.603535 -6.920830 6.070333
v 19.723713 -6.645704 5.794118
v 18.194677 -8.539406 7.262951
v 18.067459 -8.082644 8.100365
v 18.636078 -7.846633 8.839992
v 19.567446 -7.969624 9.048568
v 20.315979 -8.379571 8.603913
v 20.443197 -8.836332 7.766500
v 19.874578 -9.072344 7.026874
v 18.943211 -8.949353 6.818296
v 17.841190 -10.872288 8.598576
v 17.723383 -10.353410 9.400426
v 18.314724 -9.967435 10.054195
v 19.268816 -9.940462 10.176914
v 20.026762 -10.288292 9.696697
v 20.144567 -10.807171 8.894847
v 19.553226 -11.193146 8.241077
v 18.599134 -11.220118 8.118359
v 17.949648 -13.081736 10.166302
v 17.828955 -12.504026 10.926408
v 18.413324 -11.976023 11.479401
v 19.360443 -11.807022 11.501343
v 20.115501 -12.096022 10.979382
v 20.236195 -12.673731 10.219275
v 19.651825 -13.201735 9.666283
v 18.704706 -13.370735 9.644341
v 18.515886 -15.082841 11.905881
v 18.380116 -14.451849 12.619669
v 18.928085 -13.795210 13.060836
v 19.838806 -13.497574 12.970954
v 20.578787 -13.733290 12.402674
v 20.714558 -14.364283 11.688887
v 20.166586 -15.020921 11.247719
v 19.255867 -15.318558 11.337601
v 19.518139 -16.798698 13.750460
v 19.355682 -16.122019 14.415132
v 19.839226 -15.355080 14.737726
v 20.685518 -14.947144 14.529270
v 21.398813 -15.137173 13.911875
v 21.561270 -15.813852 13.247202
v 21.077728 -16.580791 12.924608
v 20.231434 -16.988728 13.133064
v 20.917904 -18.163380 15.629164
v 20.718174 -17.450363 16.243813
v 21.111738 -16.595699 16.445639
v 21.868050 -16.100039 16.116415
v 22.544073 -16.253731 15.448997
v 22.743801 -16.966747 14.834348
v 22.350239 -17.821411 14.632522
v 21.593925 -18.317072 14.961745
v 22.661369 -19.124428 17.469780
v 22.415216 -18.385822 18.035418
v 22.696707 -17.469379 18.118925
v 23.340944 -16.911942 17.671383
v 23.970545 -17.040043 16.954954
v 24.216698 -17.778648 16.389315
v 23.935207 -18.695091 16.305807
v 23.290970 -19.252531 16.753349
v 24.681549 -19.644920 19.201584
v 24.381607 -18.892456 19.721111
v 24.533234 -17.942554 19.693295
v 25.047609 -17.351656 19.134426
v 25.623419 -17.465900 18.371885
v 25.923363 -18.218365 17.852358
v 25.771734 -19.168266 17.880177
v 25.257359 -19.759163 18.439043
v 26.900805 -19.704849 20.758022
v 26.541771 -18.950790 21.236107
v 26.550739 -17.997036 21.108238
v 26.922455 -17.402285 20.449318
v 27.439175 -17.514933 19.645336
v 27.798208 -18.268993 19.167252
v 27.789240 -19.222748 19.295120
v 27.417522 -19.817497 19.954041
v 29.233849 -19.301914 22.079279
v 28.812695 -18.558582 22.522182
v 28.671688 -17.630730 22.309380
v 28.893431 -17.061882 21.565529
v 29.348028 -17.185259 20.726364
v 29.769184 -17.928589 20.283459
v 29.910189 -18.856441 20.496262
v 29.688446 -19.425291 21.240116
v 31.591028 -18.451597 23.114582
v 31.107109 -17.730907 23.529921
v 30.814579 -16.857716 23.250565
v 30.884796 -16.343527 22.440161
v 31.276630 -16.489546 21.573429
v 31.760548 -17.210236 21.158092
v 32.053078 -18.083427 21.437447
v 31.982861 -18.597618 22.247852
v 33.881752 -17.186581 23.824144
v 33.336838 -16.499575 24.220589
v 32.897053 -15.707702 23.895622
v 32.820019 -15.274831 23.039604
v 33.150856 -15.454534 22.153980
v 33.695770 -16.141541 21.757536
v 34.135555 -16.933414 22.082504
v 34.212589 -17.366283 22.938519
v 36.018002 -15.555470 24.180698
v 35.416206 -14.911894 24.567648
v 34.839100 -14.224873 24.219761
v 34.624741 -13.896853 23.340824
v 34.898697 -14.119986 22.445705
v 35.500492 -14.763562 22.058756
v 36.077599 -15.450583 22.406643
v 36.291958 -15.778602 23.285580
v 37.917664 -13.620958 24.170540
v 37.265285 -13.028893 24.557760
v 36.566063 -12.466227 24.210526
v 36.229591 -12.262563 23.332241
v 36.452965 -12.537205 22.437395
v 37.105343 -13.129272 22.050175
v 37.804565 -13.691938 22.397408
v 38.141037 -13.895601 23.275692
v 39.507744 -11.457385 23.794064
v 38.813030 -10.922928 24.191307
v 38.011593 -10.499342 23.868275
v 37.572906 -10.434757 23.014191
v 37.753944 -10.767008 22.129368
v 38.448658 -11.301466 21.732124
v 39.250095 -11.725052 22.055157
v 39.688782 -11.789636 22.909241
v 40.727150 -9.147881 23.065729
v 39.999966 -8.674917 23.482368
v 39.120140 -8.399792 23.206154
v 38.603069 -8.483668 22.398888
v 38.751637 -8.877414 21.533459
v 39.478821 -9.350377 21.116821
v 40.358643 -9.625503 21.393036
v 40.875717 -9.541626 22.200298
v 41.528996 -6.781221 22.013536
v 40.780464 -6.371274 22.458191
v 39.849094 -6.248283 22.249615
v 39.280476 -6.484294 21.509987
v 39.407696 -6.941056 20.672573
v 40.156227 -7.351003 20.227921
v 41.087597 -7.473994 20.436497
v 41.656216 -7.237983 21.176123
v 41.882484 -4.448334 20.677908
v 41.124542 -4.100503 21.158127
v 40.170448 -4.127476 21.035408
v 39.579109 -4.513451 20.381638
v 39.696915 -5.032330 19.579788
v 40.454857 -5.380159 19.099571
v 41.408951 -5.353187 19.222290
v 42.000290 -4.967212 19.876059
v 41.774025 -2.238891 19.110188
v 41.018970 -1.949891 19.632149
v 40.071850 -2.118892 19.610207
v 39.487480 -2.646895 19.057213
v 39.608173 -3.224604 18.297106
v 40.363232 -3.513604 17.775146
v 41.310352 -3.344603 17.797089
v 41.894722 -2.816600 18.350080
v 41.207787 -0.237781 17.370604
v 40.467808 -0.002064 17.938883
v 39.557087 -0.299701 18.028765
v 39.009117 -0.956341 17.587597
v 39.144886 -1.587332 16.873810
v 39.884869 -1.823050 16.305531
v 40.795586 -1.525412 16.215647
v 41.343559 -0.868773 16.656815
v 40.205532 1.478076 15.526024
v 39.492241 1.668105 16.143419
v 38.645947 1.260170 16.351875
v 38.162403 0.493231 16.029282
v 38.324860 -0.183449 15.364610
v 39.038155 -0.373478 14.747213
v 39.884449 0.034459 14.538758
v 40.367989 0.801396 14.861352
v 38.805779 2.842752 13.647329
v 38.129757 2.996444 14.314748
v 37.373444 2.500783 14.643970
v 36.979877 1.646120 14.442144
v 37.179607 0.933105 13.827496
v 37.855629 0.779411 13.160076
v 38.611942 1.275071 12.830853
v 39.005508 2.129735 13.032680
v 37.062305 3.803805 11.806705
v 36.432705 3.931909 12.523133
v 35.788467 3.374469 12.970676
v 35.506977 2.458027 12.887170
v 35.753128 1.719420 12.321530
v 36.382729 1.591318 11.605103
v 37.026966 2.148757 11.157558
v 37.308456 3.065200 11.241066
v 35.042130 4.324296 10.074904
v 34.466320 4.438540 10.837445
v 33.951942 3.847643 11.396312
v 33.800316 2.897741 11.424129
v 34.100258 2.145276 10.904602
v 34.676067 2.031033 10.142061
v 35.190445 2.621931 9.583194
v 35.342072 3.571831 9.555377
v 32.822868 4.384225 8.518462
v 32.306152 4.496875 9.322445
v 31.934433 3.902123 9.981365
v 31.925465 2.948369 10.109234
v 32.284500 2.194309 9.631149
v 32.801216 2.081660 8.827167
v 33.172935 2.676412 8.168247
v 33.181904 3.630166 8.040378
vn -0.2247 0.9392 -0.2598
vn -0.4701 0.7631 0.4435
vn -0.4393 0.1369 0.8878
vn -0.1507 -0.5676 0.8094
vn 0.2247 -0.9392 0.2598
vn 0.4701 -0.7631 -0.4435
vn 0.4393 -0.1369 -0.8878
vn 0.1507 0.5676 -0.8094
vn -0.3808 0.8681 -0.3184
vn -0.5349 0.7336 0.4191
vn -0.3744 0.1664 0.9122
vn 0.0054 -0.4966 0.8680
vn 0.3808 -0.8681 0.3184
vn 0.5349 -0.7336 -0.4191
vn 0.3744 -0.1664 -0.9122
vn -0.0054 0.4966 -0.8680
vn -0.5295 0.7709 -0.3542
vn -0.5967 0.6932 0.4042
vn -0.3126 0.2068 0.9271
vn 0.1541 -0.3993 0.9038
vn 0.5295 -0.7709 0.3542
vn 0.5967 -0.6932 -0.4042
vn 0.3126 -0.2068 -0.9271
vn -0.1541 0.3993 -0.9038
vn -0.6650 0.6511 -0.3658
vn -0.6531 0.6434 0.3994
vn -0.2563 0.2566 0.9319
vn 0.2896 -0.2796 0.9154
vn 0.6650 -0.6511 0.3658
vn 0.6531 -0.6434 -0.3994
vn 0.2563 -0.2566 -0.9319
vn -0.2896 0.2796 -0.9154
vn -0.7822 0.5135 -0.3528
vn -0.7018 0.5862 0.4048
vn -0.2076 0.3138 0.9265
vn 0.4068 -0.1419 0.9024
vn 0.7822 -0.5135 0.3528
vn 0.7018 -0.5862 -0.4048
vn 0.2076 -0.3138 -0.9265
vn -0.4068 0.1419 -0.9024
vn -0.8766 0.3632 -0.3157
vn -0.7410 0.5238 0.4202
vn -0.1684 0.3762 0.9111
vn 0.5012 0.0083 0.8653
vn 0.8766 -0.3632 0.3157
vn 0.7410 -0.5238 -0.4202
vn 0.1684 -0.3762 -0.9111
vn -0.5012 -0.0083 -0.8653
vn -0.9444 0.2062 -0.2559
vn -0.7692 0.4585 0.4451
vn -0.1402 0.4415 0.8862
vn 0.5690 0.1653 0.8055
vn 0.9444 -0.2062 0.2559
vn 0.7692 -0.4585 -0.4451
vn 0.1402 -0.4415 -0.8862
vn -0.5690 -0.1653 -0.8055
vn -0.9832 0.0484 -0.1758
vn -0.7853 0.3929 0.4784
vn -0.1240 0.5071 0.8529
vn 0.6078 0.3232 0.7253
vn 0.9832 -0.0484 0.1758
vn 0.7853 -0.3929 -0.4784
vn 0.1240 -0.5071 -0.8529
vn -0.6078 -0.3232 -0.7253
vn -0.9915 -0.1042 -0.0782
vn -0.7888 0.3295 0.5189
vn -0.1206 0.5705 0.8124
vn 0.6161 0.4757 0.6278
vn 0.9915 0.1042 0.0782
vn 0.7888 -0.3295 -0.5189
vn 0.1206 -0.5705 -0.8124
vn -0.6161 -0.4757 -0.6278
vn -0.9688 -0.2456 0.0328
vn -0.7793 0.2707 0.5651
vn -0.1300 0.6293 0.7662
vn 0.5934 0.6171 0.5167
vn 0.9688 0.2456 -0.0328
vn 0.7794 -0.2707 -0.5651
vn 0.1300 -0.6293 -0.7662
vn -0.5934 -0.6171 -0.5167
vn -0.9161 -0.3704 0.1532
vn -0.7575 0.2188 0.6151
vn -0.1519 0.6812 0.7162
vn 0.5407 0.7420 0.3964
vn 0.9161 0.3704 -0.1532
vn 0.7575 -0.2188 -0.6151
vn 0.1519 -0.6812 -0.7162
vn -0.5407 -0.7420 -0.3964
vn -0.8355 -0.4739 0.2782
vn -0.7239 0.1758 0.6671
vn -0.1855 0.7242 0.6642
vn 0.4601 0.8454 0.2713
vn 0.8355 0.4739 -0.2782
vn 0.7239 -0.1758 -0.6671
vn 0.1855 -0.7242 -0.6642
vn -0.4601 -0.8454 -0.2713
vn -0.7299 -0.5520 0.4032
vn -0.6800 0.1434 0.7190
vn -0.2293 0.7566 0.6123
vn 0.3545 0.9235 0.1464
vn 0.7299 0.5520 -0.4032
vn 0.6801 -0.1434 -0.7190
vn 0.2293 -0.7566 -0.6123
vn -0.3545 -0.9235 -0.1464
vn -0.6035 -0.6018 0.5231
vn -0.6275 0.1227 0.7689
vn -0.2819 0.7773 0.5624
vn 0.2281 0.9733 0.0264
vn 0.6035 0.6018 -0.5231
vn 0.6275 -0.1227 -0.7689
vn 0.2819 -0.7773 -0.5624
vn -0.2281 -0.9733 -0.0264
vn -0.4611 -0.6212 0.6336
vn -0.5683 0.1146 0.8148
vn -0.3411 0.7854 0.5165
vn 0.0857 0.9928 -0.0840
vn 0.4611 0.6213 -0.6336
vn 0.5683 -0.1146 -0.8148
vn 0.3411 -0.7854 -0.5165
vn -0.0857 -0.9928 0.0840
vn -0.3082 -0.6097 0.7302
vn -0.5048 0.1194 0.8549
vn -0.4046 0.7806 0.4764
vn -0.0672 0.9813 -0.1807
vn 0.3082 0.6097 -0.7302
vn 0.5048 -0.1194 -0.8549
vn 0.4046 -0.7806 -0.4764
vn 0.0672 -0.9813 0.1807
vn -0.4068 0.1420 -0.9024
vn -0.3410 0.7854 0.5165
vn 0.3410 -0.7854 -0.5165
vn 0.4611 0.6212 -0.6336
vn -0.7794 0.2707 0.5651
vn 0.7793 -0.2707 -0.5651
vn -0.8355 -0.4739 0.2783
vn -0.6801 0.1434 0.7190
vn 0.6800 -0.1434 -0.7190
vn -0.4611 -0.6213 0.6336
vn 0.3127 -0.2068 -0.9271
vn -0.7822 0.5135 -0.3529
vn 0.7822 -0.5135 0.3529
s off
f 9//1 2//1 1//1
f 10//2 3//2 2//2
f 11//3 4//3 3//3
f 12//4 5//4 4//4
f 13//5 6//5 5//5
f 14//6 7//6 6//6
f 7//7 16//7 8//7
f 16//8 1//8 8//8
f 9//9 18//9 10//9
f 18//10 11//10 10//10
f 19//11 12//11 11//11
f 20//12 13//12 12//12
f 13//13 22//13 14//13
f 14//14 23//14 15//14
f 15//15 24//15 16//15
f 24//16 9//16 16//16
f 25//17 18//17 17//17
f 26//18 19//18 18//18
f 27//19 20//19 19//19
f 28//20 21//20 20//20
f 29//21 22//21 21//21
f 30//22 23//22 22//22
f 31//23 24//23 23//23
f 32//24 17//24 24//24
f 25//25 34//25 26//25
f 34//26 27//26 26//26
f 35//27 28//27 27//27
f 36//28 29//28 28//28
f 37//29 30//29 29//29
f 30//30 39//30 31//30
f 39//31 32//31 31//31
f 40//32 25//32 32//32
f 41//33 34//33 33//33
f 34//34 43//34 35//34
f 35//35 44//35 36//35
f 44//36 37//36 36//36
f 45//37 38//37 37//37
f 46//38 39//38 38//38
f 47//39 40//39 39//39
f 48//40 33//40 40//40
f 49//41 42//41 41//41
f 50//42 43//42 42//42
f 51//43 44//43 43//43
f 52//44 45//44 44//44
f 53//45 46//45 45//45
f 46//46 55//46 47//46
f 55//47 48//47 47//47
f 56//48 41//48 48//48
f 49//49 58//49 50//49
f 58//50 51//50 50//50
f 59//51 52//51 51//51
f 60//52 53//52 52//52
f 61//53 54//53 53//53
f 54//54 63//54 55//54
f 63//55 56//55 55//55
f 64//56 49//56 56//56
f 65//57 58//57 57//57
f 58//58 67//58 59//58
f 67//59 60//59 59//59
f 60//60 69//60 61//60
f 69//61 62//61 61//61
f 70//62 63//62 62//62
f 71//63 64//63 63//63
f 72//64 57//64 64//64
f 73//65 66//65 65//65
f 74//66 67//66 66//66
f 67//67 76//67 68//67
f 76//68 69//68 68//68
f 77//69 70//69 69//69
f 78//70 71//70 70//70
f 71//71 80//71 72//71
f 80//72 65//72 72//72
f 81//73 74//73 73//73
f 82//74 75//74 74//74
f 83//75 76//75 75//75
f 84//76 77//76 76//76
f 85//77 78//77 77//77
f 86//78 79//78 78//78
f 87//79 80//79 79//79
f 88//80 73//80 80//80
f 89//81 82//81 81//81
f 90//82 83//82 82//82
f 91//83 84//83 83//83
f 92//84 85//84 84//84
f 85//85 94//85 86//85
f 86//86 95//86 87//86
f 87//87 96//87 88//87
f 96//88 81//88 88//88
f 97//89 90//89 89//89
f 98//90 91//90 90//90
f 91//91 100//91 92//91
f 92//92 101//92 93//92
f 101//93 94//93 93//93
f 102//94 95//94 94//94
f 103//95 96//95 95//95
f 104//96 89//96 96//96
f 97//97 106//97 98//97
f 106//98 99//98 98//98
f 99//99 108//99 100//99
f 100//100 109//100 101//100
f 109//101 102//101 101//101
f 110//102 103//102 102//102
f 103//103 112//103 104//103
f 112//104 97//104 104//104
f 105//105 114//105 106//105
f 114//106 107//106 106//106
f 115//107 108//107 107//107
f 108//108 117//108 109//108
f 117//109 110//109 109//109
f 118//110 111//110 110//110
f 119//111 112//111 111//111
f 120//112 105//112 112//112
f 121//113 114//113 113//113
f 114//114 123//114 115//114
f 123//115 116//115 115//115
f 124//116 117//116 116//116
f 125//117 118//117 117//117
f 118//118 127//118 119//118
f 127//119 120//119 119//119
f 120//120 121//120 113//120
f 129//121 122//121 121//121
f 122//122 131//122 123//122
f 131//123 124//123 123//123
f 132//124 125//124 124//124
f 125//125 134//125 126//125
f 126//126 135//126 127//126
f 135//127 128//127 127//127
f 128//128 129//128 121//128
f 137//4 130//4 129//4
f 130//3 139//3 131//3
f 131//2 140//2 132//2
f 140//1 133//1 132//1
f 141//8 134//8 133//8
f 142//7 135//7 134//7
f 143//6 136//6 135//6
f 144//5 129//5 136//5
f 137//12 146//12 138//12
f 146//11 139//11 138//11
f 147//10 140//10 139//10
f 148//9 141//9 140//9
f 141//16 150//16 142//16
f 150//15 143//15 142//15
f 151//14 144//14 143//14
f 152//13 137//13 144//13
f 153//20 146//20 145//20
f 154//19 147//19 146//19
f 155//18 148//18 147//18
f 156//17 149//17 148//17
f 157//24 150//24 149//24
f 158//23 151//23 150//23
f 159//22 152//22 151//22
f 160//21 145//21 152//21
f 161//28 154//28 153//28
f 154//27 163//27 155//27
f 163//26 156//26 155//26
f 164//25 157//25 156//25
f 157//32 166//32 158//32
f 158//31 167//31 159//31
f 167//30 160//30 159//30
f 160//29 161//29 153//29
f 169//36 162//36 161//36
f 162//35 171//35 163//35
f 171//34 164//34 163//34
f 172//33 165//33 164//33
f 165//129 174//129 166//129
f 166//39 175//39 167//39
f 175//38 168//38 167//38
f 176//37 161//37 168//37
f 169//44 178//44 170//44
f 178//43 171//43 170//43
f 179//42 172//42 171//42
f 180//41 173//41 172//41
f 181//48 174//48 173//48
f 182//47 175//47 174//47
f 183//46 176//46 175//46
f 184//45 169//45 176//45
f 185//52 178//52 177//52
f 178//51 187//51 179//51
f 187//50 180//50 179//50
f 188//49 181//49 180//49
f 189//56 182//56 181//56
f 190//55 183//55 182//55
f 191//54 184//54 183//54
f 192//53 177//53 184//53
f 193//60 186//60 185//60
f 194//59 187//59 186//59
f 187//58 196//58 188//58
f 196//57 189//57 188//57
f 197//64 190//64 189//64
f 198//63 191//63 190//63
f 199//62 192//62 191//62
f 192//61 193//61 185//61
f 193//68 202//68 194//68
f 194//67 203//67 195//67
f 203//66 196//66 195//66
f 204//65 197//65 196//65
f 205//72 198//72 197//72
f 206//71 199//71 198//71
f 207//70 200//70 199//70
f 208//69 193//69 200//69
f 209//76 202//76 201//76
f 210//75 203//75 202//75
f 211//74 204//74 203//74
f 212//73 205//73 204//73
f 213//80 206//80 205//80
f 206//79 215//79 207//79
f 215//78 208//78 207//78
f 208//77 209//77 201//77
f 217//84 210//84 209//84
f 218//83 211//83 210//83
f 211//82 220//82 212//82
f 220//81 213//81 212//81
f 221//88 214//88 213//88
f 222//87 215//87 214//87
f 215//86 224//86 216//86
f 224//85 209//85 216//85
f 217//92 226//92 218//92
f 226//91 219//91 218//91
f 219//90 228//90 220//90
f 228//89 221//89 220//89
f 229//96 222//96 221//96
f 230//95 223//95 222//95
f 223//94 232//94 224//94
f 232//93 217//93 224//93
f 233//100 226//100 225//100
f 234//99 227//99 226//99
f 235//98 228//98 227//98
f 236//97 229//97 228//97
f 229//104 238//104 230//104
f 238//103 231//103 230//103
f 231//102 240//102 232//102
f 240//101 225//101 232//101
f 233//108 242//108 234//108
f 242//107 235//107 234//107
f 243//106 236//106 235//106
f 244//105 237//105 236//105
f 245//112 238//112 237//112
f 246//111 239//111 238//111
f 239//110 248//110 240//110
f 248//109 233//109 240//109
f 249//116 242//116 241//116
f 250//130 243//130 242//130
f 251//114 244//114 243//114
f 252//113 245//113 244//113
f 245//120 254//120 246//120
f 246//131 255//131 247//131
f 247//118 256//118 248//118
f 256//132 241//132 248//132
f 249//124 2//124 250//124
f 2//123 251//123 250//123
f 251//122 4//122 252//122
f 252//121 5//121 253//121
f 5//128 254//128 253//128
f 6//127 255//127 254//127
f 7//126 256//126 255//126
f 8//125 249//125 256//125
f 9//1 10//1 2//1
f 10//2 11//2 3//2
f 11//3 12//3 4//3
f 12//4 13//4 5//4
f 13//5 14//5 6//5
f 14//6 15//6 7//6
f 7//7 15//7 16//7
f 16//8 9//8 1//8
f 9//9 17//9 18//9
f 18//10 19//10 11//10
f 19//11 20//11 12//11
f 20//12 21//12 13//12
f 13//13 21//13 22//13
f 14//14 22//14 23//14
f 15//15 23//15 24//15
f 24//16 17//16 9//16
f 25//17 26//17 18//17
f 26//18 27//18 19//18
f 27//19 28//19 20//19
f 28//20 29//20 21//20
f 29//21 30//21 22//21
f 30//22 31//22 23//22
f 31//23 32//23 24//23
f 32//24 25//24 17//24
f 25//25 33//25 34//25
f 34//26 35//26 27//26
f 35//27 36//27 28//27
f 36//28 37//28 29//28
f 37//29 38//29 30//29
f 30//30 38//30 39//30
f 39//31 40//31 32//31
f 40//32 33//32 25//32
f 41//33 42//33 34//33
f 34//34 42//34 43//34
f 35//35 43//35 44//35
f 44//36 45//36 37//36
f 45//37 46//37 38//37
f 46//38 47//38 39//38
f 47//39 48//39 40//39
f 48//40 41//40 33//40
f 49//41 50//41 42//41
f 50//42 51//42 43//42
f 51//43 52//43 44//43
f 52//44 53//44 45//44
f 53//45 54//45 46//45
f 46//46 54//46 55//46
f 55//47 56//47 48//47
f 56//48 49//48 41//48
f 49//49 57//49 58//49
f 58//50 59//50 51//50
f 59//51 60//51 52//51
f 60//52 61//52 53//52
f 61//53 62//53 54//53
f 54//54 62//54 63//54
f 63//55 64//55 56//55
f 64//56 57//56 49//56
f 65//57 66//57 58//57
f 58//58 66//58 67//58
f 67//59 68//59 60//59
f 60//60 68//60 69//60
f 69//61 70//61 62//61
f 70//62 71//62 63//62
f 71//63 72//63 64//63
f 72//64 65//64 57//64
f 73//65 74//65 66//65
f 74//66 75//66 67//66
f 67//67 75//67 76//67
f 76//68 77//68 69//68
f 77//69 78//69 70//69
f 78//70 79//70 71//70
f 71//71 79//71 80//71
f 80//72 73//72 65//72
f 81//73 82//73 74//73
f 82//133 83//133 75//133
f 83//75 84//75 76//75
f 84//76 85//76 77//76
f 85//77 86//77 78//77
f 86//134 87//134 79//134
f 87//79 88//79 80//79
f 88//80 81//80 73//80
f 89//81 90//81 82//81
f 90//82 91//82 83//82
f 91//83 92//83 84//83
f 92//84 93//84 85//84
f 85//85 93//85 94//85
f 86//86 94//86 95//86
f 87//87 95//87 96//87
f 96//88 89//88 81//88
f 97//135 98//135 90//135
f 98//90 99//90 91//90
f 91//91 99//91 100//91
f 92//92 100//92 101//92
f 101//93 102//93 94//93
f 102//94 103//94 95//94
f 103//95 104//95 96//95
f 104//96 97//96 89//96
f 97//97 105//97 106//97
f 106//136 107//136 99//136
f 99//99 107//99 108//99
f 100//100 108//100 109//100
f 109//101 110//101 102//101
f 110//137 111//137 103//137
f 103//103 111//103 112//103
f 112//104 105//104 97//104
f 105//105 113//105 114//105
f 114//106 115//106 107//106
f 115//107 116//107 108//107
f 108//108 116//108 117//108
f 117//109 118//109 110//109
f 118//110 119//110 111//110
f 119//111 120//111 112//111
f 120//112 113//112 105//112
f 121//138 122//138 114//138
f 114//114 122//114 123//114
f 123//115 124//115 116//115
f 124//116 125//116 117//116
f 125//117 126//117 118//117
f 118//118 126//118 127//118
f 127//119 128//119 120//119
f 120//120 128//120 121//120
f 129//121 130//121 122//121
f 122//122 130//122 131//122
f 131//123 132//123 124//123
f 132//124 133//124 125//124
f 125//125 133//125 134//125
f 126//126 134//126 135//126
f 135//127 136//127 128//127
f 128//128 136//128 129//128
f 137//4 138//4 130//4
f 130//3 138//3 139//3
f 131//2 139//2 140//2
f 140//1 141//1 133//1
f 141//8 142//8 134//8
f 142//7 143//7 135//7
f 143//6 144//6 136//6
f 144//5 137//5 129//5
f 137//12 145//12 146//12
f 146//11 147//11 139//11
f 147//10 148//10 140//10
f 148//9 149//9 141//9
f 141//16 149//16 150//16
f 150//15 151//15 143//15
f 151//14 152//14 144//14
f 152//13 145//13 137//13
f 153//20 154//20 146//20
f 154//19 155//19 147//19
f 155//18 156//18 148//18
f 156//17 157//17 149//17
f 157//24 158//24 150//24
f 158//139 159//139 151//139
f 159//22 160//22 152//22
f 160//21 153//21 145//21
f 161//28 162//28 154//28
f 154//27 162//27 163//27
f 163//26 164//26 156//26
f 164//25 165//25 157//25
f 157//32 165//32 166//32
f 158//31 166//31 167//31
f 167//30 168//30 160//30
f 160//29 168//29 161//29
f 169//36 170//36 162//36
f 162//35 170//35 171//35
f 171//34 172//34 164//34
f 172//140 173//140 165//140
f 165//40 173//40 174//40
f 166//39 174//39 175//39
f 175//38 176//38 168//38
f 176//141 169//141 161//141
f 169//44 177//44 178//44
f 178//43 179//43 171//43
f 179//42 180//42 172//42
f 180//41 181//41 173//41
f 181//48 182//48 174//48
f 182//47 183//47 175//47
f 183//46 184//46 176//46
f 184//45 177//45 169//45
f 185//52 186//52 178//52
f 178//51 186//51 187//51
f 187//50 188//50 180//50
f 188//49 189//49 181//49
f 189//56 190//56 182//56
f 190//55 191//55 183//55
f 191//54 192//54 184//54
f 192//53 185//53 177//53
f 193//60 194//60 186//60
f 194//59 195//59 187//59
f 187//58 195//58 196//58
f 196//57 197//57 189//57
f 197//64 198//64 190//64
f 198//63 199//63 191//63
f 199//62 200//62 192//62
f 192//61 200//61 193//61
f 193//68 201//68 202//68
f 194//67 202//67 203//67
f 203//66 204//66 196//66
f 204//65 205//65 197//65
f 205//72 206//72 198//72
f 206//71 207//71 199//71
f 207//70 208//70 200//70
f 208//69 201//69 193//69
f 209//76 210//76 202//76
f 210//75 211//75 203//75
f 211//74 212//74 204//74
f 212//73 213//73 205//73
f 213//80 214//80 206//80
f 206//79 214//79 215//79
f 215//134 216//134 208//134
f 208//77 216//77 209//77
f 217//84 218//84 210//84
f 218//83 219//83 211//83
f 211//82 219//82 220//82
f 220//81 221//81 213//81
f 221//88 222//88 214//88
f 222//87 223//87 215//87
f 215//86 223//86 224//86
f 224//85 217//85 209//85
f 217//92 225//92 226//92
f 226//91 227//91 219//91
f 219//90 227//90 228//90
f 228//89 229//89 221//89
f 229//96 230//96 222//96
f 230//95 231//95 223//95
f 223//94 231//94 232//94
f 232//93 225//93 217//93
f 233//100 234//100 226//100
f 234//99 235//99 227//99
f 235//136 236//136 228//136
f 236//97 237//97 229//97
f 229//104 237//104 238//104
f 238//103 239//103 231//103
f 231//102 239//102 240//102
f 240//101 233//101 225//101
f 233//108 241//108 242//108
f 242//107 243//107 235//107
f 243//106 244//106 236//106
f 244//105 245//105 237//105
f 245//112 246//112 238//112
f 246//111 247//111 239//111
f 239//110 247//110 248//110
f 248//109 241//109 233//109
f 249//116 250//116 242//116
f 250//115 251//115 243//115
f 251//114 252//114 244//114
f 252//113 253//113 245//113
f 245//120 253//120 254//120
f 246//119 254//119 255//119
f 247//118 255//118 256//118
f 256//132 249//132 241//132
f 249//124 1//124 2//124
f 2//123 3//123 251//123
f 251//122 3//122 4//122
f 252//121 4//121 5//121
f 5//128 6//128 254//128
f 6//127 7//127 255//127
f 7//126 8//126 256//126
f 8//125 1//125 249//125
