# Blender v2.80 (sub 75) OBJ File: 'road.blend'
# www.blender.org
v 8.879145 -11.217328 -1.000000
v 8.879145 -11.217328 1.000000
v 8.563940 -9.242322 -1.000000
v 8.563940 -9.242322 1.000000
v -45.581860 -17.883770 0.000000
v -45.538475 -17.876846 1.000000
v -44.755737 -19.777235 1.000000
v -44.799126 -19.784159 0.000001
v -45.533897 -17.876114 -1.000000
v -44.751160 -19.776505 -1.000000
vn 0.9875 0.1576 0.0000
vn 0.1576 -0.9875 -0.0000
vn 0.0000 0.0000 1.0000
vn -0.9238 -0.3805 0.0427
vn -0.1576 0.9875 0.0000
vn -0.9236 -0.3804 -0.0472
vn 0.0000 0.0000 -1.0000
s off
f 4//1 1//1 3//1
f 2//2 7//2 8//2
f 4//3 7//3 2//3
f 8//4 6//4 5//4
f 5//5 4//5 3//5
f 9//6 8//6 5//6
f 10//7 3//7 1//7
f 4//1 2//1 1//1
f 10//2 1//2 8//2
f 1//2 2//2 8//2
f 4//3 6//3 7//3
f 8//4 7//4 6//4
f 3//5 9//5 5//5
f 5//5 6//5 4//5
f 9//6 10//6 8//6
f 10//7 9//7 3//7
