# Blender v2.80 (sub 75) OBJ File: 'field.blend'
# www.blender.org
v -63.698471 3.225626 19.577902
v -59.750229 -3.281452 19.923025
v -62.587395 1.065874 26.799486
v -57.667648 15.501266 14.305310
v -62.452560 9.800465 15.935207
v -60.712715 16.366394 21.235773
v -64.257538 9.150896 24.334883
v -53.306988 19.956142 18.685909
v -37.510784 10.522661 25.769621
v -41.459026 17.029739 25.424465
v -41.542385 11.631409 32.138870
v -47.789524 17.497906 31.250191
v -55.195168 13.908167 33.799995
v -48.280804 11.319201 35.680889
v -53.525051 5.823202 36.264580
v -50.739464 -1.860458 33.538040
v -43.541603 -1.752983 31.042210
v -45.087215 4.416025 35.238003
v -44.869011 18.549002 17.659269
v -48.139107 20.503414 24.257679
v -55.111938 19.306503 27.085623
v -60.738438 14.396126 28.595732
v -56.340237 -4.800709 27.688217
v -57.897057 0.641073 32.788773
v -47.902298 -6.207859 26.661608
v -40.496536 -2.618109 24.111748
v -36.951744 4.597411 21.012619
v -38.756714 3.947811 29.412292
v -40.361786 6.116540 13.247495
v -43.312195 13.107214 12.558749
v -38.621857 12.682412 18.548038
v -47.684174 7.925074 9.082929
v -50.469791 15.608749 11.809449
v -56.122047 9.332257 10.109518
v -59.666893 2.116859 13.208627
v -53.419731 -3.749636 14.097318
v -46.097336 -5.558237 18.261879
v -53.070164 -6.755144 21.089821
v -46.014084 -0.159878 11.547490
v -40.470806 -0.647839 16.751755
v -47.792049 1.218550 28.157146
v -51.259140 3.355160 30.233694
v -51.821114 -0.363323 26.686640
v -54.530781 6.542931 30.052071
v -57.765404 7.464880 26.956055
v -55.782066 2.766256 27.800474
v -47.395554 -0.728426 24.040077
v -55.486851 0.216650 24.017467
v -58.327351 3.746397 23.409008
v -55.939487 1.222679 19.581161
v -54.723003 8.460129 15.568279
v -49.950111 10.393128 15.113831
v -50.762108 5.330525 14.454487
v -46.678505 7.205377 15.295432
v -46.741043 2.790543 16.480146
v -47.957626 -0.404497 19.514862
v -51.513958 0.857592 16.934578
v -54.798630 3.916769 16.068588
v -57.922817 5.921249 18.736755
v -45.427185 10.982016 17.547033
v -44.195679 1.810392 20.871574
v -51.918453 -1.317287 21.606834
v -53.813721 14.476692 21.307423
v -53.417233 12.529734 17.190376
v -57.110889 10.983866 19.396107
v -43.443829 6.283395 18.391453
v -42.881908 10.001889 21.938515
v -44.098392 2.764408 25.951393
v -54.468208 10.957729 28.867357
v -53.251621 14.152805 25.832649
v -57.013577 11.937878 24.475929
v -49.388161 14.111593 18.660860
v -49.290802 15.065578 23.740692
v -45.722431 13.531638 21.330017
v -50.447151 8.417763 30.893038
v -45.269791 12.525606 25.766357
v -49.695297 12.890713 28.412933
v -46.410622 9.831520 29.278938
v -43.357880 0.407061 21.730339
v -41.665558 4.853973 19.321022
v -41.655350 3.994637 25.290489
v -42.643311 9.904349 17.913082
v -45.090179 6.484981 14.632117
v -46.776558 12.216049 15.459993
v -53.209251 -2.435011 21.338017
v -51.284157 -2.158411 26.304146
v -56.815155 -0.378799 24.686901
v -47.999973 16.183300 24.009478
v -49.925114 15.906701 19.043339
v -53.333221 16.147148 24.013397
v -52.025101 10.566435 31.594391
v -49.908600 14.516191 28.702288
v -55.699112 12.845678 28.471661
v -58.583370 5.305929 17.278467
v -59.973938 4.171253 22.300743
v -59.553932 9.753664 20.057011
v -56.145847 9.513181 15.086979
v -59.543678 8.894318 26.026508
v -57.851376 13.341246 23.617167
v -56.119102 7.263306 30.715401
v -55.715611 14.236170 18.812767
v -54.459499 3.782059 14.259006
v -56.825371 0.480589 18.717346
v -44.394104 14.127086 20.660622
v -54.432697 1.532234 29.887531
v -58.565941 3.843924 27.434422
v -50.588131 5.483620 32.332672
v -45.063427 4.235107 30.260536
v -46.749756 9.966211 31.088497
v -42.625885 8.442358 28.069059
v -50.621151 8.264666 13.014847
v -52.053169 12.932102 15.161673
v -49.184124 3.181839 13.753122
v -47.876030 -2.398880 21.334106
v -45.493660 -0.487885 26.534718
v -49.156078 0.816170 30.185837
v -45.510147 0.902607 16.875858
v -41.235313 9.577033 23.046780
v -44.691521 1.160080 15.139519
v -47.587601 -3.018719 18.501316
v -50.519779 0.624022 13.437467
v -51.474117 2.329092 32.821007
v -47.724915 7.094126 33.445908
v -54.591377 7.561262 33.066727
v -51.384842 -4.242567 23.109392
v -51.574303 -2.331608 28.894215
v -56.917961 -2.126932 24.545300
v -46.617878 6.187026 12.280766
v -44.835926 11.793421 30.853184
v -46.755249 16.299875 27.225470
v -50.689495 13.124247 31.910034
v -49.824409 17.990870 22.238117
v -49.634956 16.079914 16.453293
v -55.401405 16.630974 20.188662
v -56.373325 1.954866 14.494332
v -59.850071 1.515881 19.481438
v -59.250729 7.205296 15.637009
v -61.714645 7.629993 22.060192
v -59.545547 12.356792 18.881550
v -59.335609 13.455387 24.873238
v -59.934975 7.765999 28.717737
v -56.517750 12.588192 30.207979
v -53.621658 16.766989 26.846189
v -55.348911 12.768274 14.480372
v -54.453987 -2.551565 18.122040
v -44.291290 15.875200 20.802204
v -53.484322 6.654163 11.901619
v -49.735115 11.419215 12.526510
v -56.970421 1.735840 30.253635
v -60.565250 2.677393 25.422153
v -41.359150 12.232410 25.866058
v -40.644001 11.070877 19.925346
v -39.494614 6.118279 23.287312
v -41.873646 0.292900 20.474283
v -41.663708 1.391491 26.465977
v -45.807850 -2.882702 25.158844
v -52.256439 13.080151 33.452232
v -52.189323 17.855532 28.531765
v -58.281685 13.354042 30.189873
v -51.648876 19.350864 21.861576
v -47.087566 17.536654 17.073755
v -54.771477 16.842796 16.295486
v -44.559853 2.391270 32.712864
v -51.182453 0.910275 33.697220
v -46.437778 -3.094507 29.052002
v -48.952789 0.668121 11.895281
v -49.019924 -4.107227 16.815739
v -55.360390 -0.728380 13.898602
v -56.649406 11.357020 12.634664
v -53.186726 5.861305 10.437501
v -59.884304 5.554352 14.333195
v -60.863766 12.341240 17.953634
v -55.717495 -4.414194 20.711384
v -60.347389 0.145939 18.522987
v -60.462147 -0.409464 25.356588
v -63.037388 5.751509 21.414688
v -61.441612 6.377388 28.977055
v -62.013721 11.692438 24.682463
v -50.026794 12.838018 11.650269
v -45.502815 6.555241 11.215633
v -42.927570 0.394247 15.157654
v -57.924580 17.039873 23.377079
v -45.491756 18.162468 24.636124
v -38.171890 7.996780 23.932831
v -39.195526 2.055866 20.665043
v -39.767643 7.370900 16.370468
vn -0.8541 -0.5195 -0.0240
vn -0.7557 0.5208 -0.3971
vn -0.9800 -0.1722 0.0993
vn -0.5002 0.8045 -0.3202
vn 0.7725 0.4902 0.4037
vn -0.0028 0.5829 0.8125
vn -0.1630 0.2567 0.9526
vn 0.2927 -0.4865 0.8232
vn 0.4654 0.8845 -0.0313
vn -0.1518 0.9874 0.0438
vn -0.4433 0.8960 -0.0259
vn -0.6125 0.7641 0.2024
vn -0.3110 -0.6958 0.6474
vn -0.0811 -0.8572 0.5085
vn 0.2140 -0.7834 0.5836
vn 0.9114 -0.3761 0.1668
vn 0.1344 0.9663 -0.2196
vn -0.6876 -0.7074 0.1635
vn 0.7679 0.2667 -0.5824
vn 0.2323 0.3990 -0.8870
vn -0.6275 0.3243 -0.7079
vn -0.7725 -0.4902 -0.4037
vn 0.5147 0.1338 -0.8469
vn -0.0024 -0.9188 -0.3948
vn 0.1608 -0.7702 -0.6172
vn 0.4584 -0.6954 -0.5534
vn 0.0073 -0.6908 0.7230
vn -0.7064 -0.1749 0.6859
vn 0.1872 -0.8809 0.4346
vn -0.7720 -0.6324 -0.0646
vn -0.1545 0.1519 -0.9762
vn 0.1550 0.1031 -0.9825
vn 0.2265 -0.7147 -0.6617
vn -0.4316 -0.6426 -0.6331
vn -0.7300 -0.4068 -0.5491
vn -0.8692 -0.4152 -0.2685
vn 0.4034 0.3663 -0.8385
vn 0.5672 -0.6704 -0.4784
vn 0.0290 -0.9825 0.1840
vn -0.5468 0.7353 -0.4004
vn 0.7064 0.1749 -0.6859
vn 0.8558 0.2835 -0.4327
vn 0.5468 -0.7353 0.4004
vn -0.4034 -0.3663 0.8385
vn -0.5672 0.6704 0.4784
vn -0.1872 0.8809 -0.4346
vn -0.0290 0.9825 -0.1840
vn 0.2818 0.9420 -0.1823
vn -0.1550 -0.1031 0.9825
vn 0.4736 0.8681 0.1486
vn 0.3224 0.8472 0.4223
vn 0.4316 0.6426 0.6331
vn 0.9226 -0.3817 -0.0565
vn 0.6020 0.2849 -0.7459
vn -0.3500 -0.9179 0.1868
vn -0.0068 0.9986 -0.0530
vn -0.2164 0.6496 0.7288
vn -0.9608 -0.0381 -0.2746
vn -0.8080 0.1751 -0.5625
vn -0.7687 0.5051 0.3924
vn -0.7148 0.3064 0.6286
vn -0.4643 0.3602 0.8091
vn -0.5215 0.8501 -0.0735
vn -0.6047 -0.0632 -0.7940
vn -0.8519 -0.4082 -0.3281
vn 0.3500 0.9179 -0.1868
vn -0.6298 -0.5899 0.5053
vn -0.3919 -0.7908 0.4701
vn 0.3442 -0.0343 0.9383
vn 0.6047 0.0632 0.7940
vn 0.1104 0.4431 -0.8897
vn 0.3410 0.2319 -0.9110
vn 0.2603 -0.0663 -0.9632
vn 0.0068 -0.9986 0.0530
vn 0.2618 -0.9385 0.2249
vn 0.2186 -0.8287 0.5152
vn 0.8080 -0.1751 0.5625
vn 0.7687 -0.5051 -0.3924
vn 0.9967 -0.0803 -0.0133
vn 0.2573 -0.7077 -0.6580
vn -0.0606 -0.0828 0.9947
vn -0.2740 -0.9158 0.2936
vn 0.2911 -0.3862 -0.8753
vn 0.2768 0.6713 0.6875
vn -0.1140 0.9422 -0.3150
vn -0.7701 -0.2995 -0.5632
vn -0.9151 0.1761 -0.3627
vn -0.9279 -0.1367 -0.3469
vn -0.9181 0.3943 -0.0401
vn -0.7797 0.4049 0.4777
vn -0.2532 0.9662 0.0480
vn -0.2742 0.7953 -0.5407
vn -0.6026 -0.6402 -0.4765
vn -0.6140 0.1991 0.7638
vn 0.2740 0.9158 -0.2936
vn 0.0606 0.0828 -0.9947
vn 0.0381 -0.2290 -0.9727
vn -0.6937 -0.5995 0.3993
vn -0.4367 -0.7469 0.5014
vn -0.2911 0.3862 0.8753
vn -0.0381 0.2290 0.9727
vn 0.2429 0.3499 0.9048
vn 0.7942 0.6072 -0.0231
vn 0.9617 0.2664 0.0637
vn 0.6976 -0.7087 0.1055
vn -0.3245 0.6810 0.6565
vn -0.0436 0.9198 -0.3900
vn 0.2467 -0.5949 0.7650
vn -0.0615 -0.7158 -0.6956
vn -0.5035 0.0280 -0.8635
vn -0.7419 0.2291 -0.6302
vn -0.5245 -0.7371 -0.4262
vn -0.2356 -0.8496 -0.4720
vn -0.6828 -0.7272 -0.0706
vn -0.9101 -0.4116 -0.0487
vn -0.9421 -0.2532 0.2198
vn -0.9778 0.0576 0.2016
vn -0.5832 0.5795 -0.5693
vn -0.1975 0.2541 -0.9468
vn -0.8302 0.2936 0.4740
vn -0.2467 0.5949 -0.7650
vn -0.0020 0.7564 -0.6542
vn 0.4337 -0.3500 -0.8303
vn -0.7210 0.6246 0.3001
vn -0.4716 0.7857 0.4004
vn 0.2445 0.9607 -0.1311
vn 0.9778 -0.0576 -0.2016
s 1
f 1//1 2//1 3//1
f 4//2 5//2 6//2
f 1//3 3//3 7//3
f 4//4 6//4 8//4
f 9//5 10//5 11//5
f 12//6 13//6 14//6
f 13//7 15//7 14//7
f 16//8 17//8 18//8
f 19//9 20//9 10//9
f 8//10 21//10 20//10
f 8//11 6//11 21//11
f 6//12 22//12 21//12
f 23//13 16//13 24//13
f 23//14 25//14 16//14
f 25//15 17//15 16//15
f 26//16 27//16 28//16
f 19//17 8//17 20//17
f 3//18 2//18 23//18
f 29//19 30//19 31//19
f 32//20 33//20 30//20
f 34//21 5//21 4//21
f 35//22 2//22 1//22
f 29//23 32//23 30//23
f 36//24 37//24 38//24
f 36//25 39//25 37//25
f 39//26 40//26 37//26
f 41//27 42//27 43//27
f 44//28 45//28 46//28
f 41//29 43//29 47//29
f 48//30 49//30 50//30
f 51//31 52//31 53//31
f 52//32 54//32 53//32
f 55//33 56//33 57//33
f 57//34 50//34 58//34
f 50//35 59//35 58//35
f 50//36 49//36 59//36
f 60//37 54//37 52//37
f 61//38 56//38 55//38
f 47//39 43//39 62//39
f 63//40 64//40 65//40
f 60//41 66//41 54//41
f 60//42 67//42 66//42
f 68//43 41//43 47//43
f 42//44 44//44 46//44
f 69//45 70//45 71//45
f 63//46 72//46 64//46
f 63//47 73//47 72//47
f 73//48 74//48 72//48
f 75//49 44//49 42//49
f 73//50 76//50 74//50
f 73//51 77//51 76//51
f 77//52 78//52 76//52
f 79//53 80//53 81//53
f 82//54 83//54 84//54
f 85//55 86//55 87//55
f 88//56 89//56 90//56
f 91//57 92//57 93//57
f 94//58 95//58 96//58
f 97//59 94//59 96//59
f 98//60 93//60 99//60
f 98//61 100//61 93//61
f 100//62 91//62 93//62
f 90//63 101//63 99//63
f 102//64 94//64 97//64
f 103//65 95//65 94//65
f 104//66 89//66 88//66
f 87//67 105//67 106//67
f 87//68 86//68 105//68
f 107//69 108//69 109//69
f 108//70 110//70 109//70
f 84//71 111//71 112//71
f 84//72 83//72 111//72
f 83//73 113//73 111//73
f 114//74 86//74 85//74
f 114//75 115//75 86//75
f 115//76 116//76 86//76
f 81//77 110//77 108//77
f 80//78 79//78 117//78
f 81//79 80//79 118//79
f 119//80 120//80 121//80
f 122//81 123//81 124//81
f 125//82 126//82 127//82
f 119//83 121//83 128//83
f 129//84 130//84 131//84
f 132//85 133//85 134//85
f 135//86 136//86 137//86
f 137//87 138//87 139//87
f 137//88 136//88 138//88
f 138//89 140//89 139//89
f 141//90 142//90 140//90
f 143//91 132//91 134//91
f 134//92 133//92 144//92
f 145//93 136//93 135//93
f 124//94 142//94 141//94
f 146//95 133//95 132//95
f 128//96 147//96 148//96
f 128//97 121//97 147//97
f 127//98 149//98 150//98
f 127//99 126//99 149//99
f 124//100 131//100 142//100
f 124//101 123//101 131//101
f 123//102 129//102 131//102
f 151//103 152//103 146//103
f 153//104 152//104 151//104
f 154//105 155//105 156//105
f 157//106 158//106 159//106
f 160//107 161//107 162//107
f 163//108 164//108 165//108
f 166//109 167//109 168//109
f 169//110 170//110 171//110
f 172//111 169//111 171//111
f 168//112 173//112 174//112
f 168//113 167//113 173//113
f 173//114 175//114 174//114
f 175//115 176//115 174//115
f 175//116 177//116 176//116
f 177//117 178//117 176//117
f 162//118 169//118 172//118
f 179//119 170//119 169//119
f 159//120 178//120 177//120
f 162//121 179//121 169//121
f 162//122 161//122 179//122
f 180//123 181//123 166//123
f 159//124 182//124 178//124
f 159//125 158//125 182//125
f 183//126 161//126 160//126
f 184//127 185//127 186//127
