# Blender v2.80 (sub 75) OBJ File: 'jwst.blend'
# www.blender.org
v 253.455231 123.705612 -87.421310
v 253.453125 123.708160 -87.420738
v 253.456970 123.703865 -87.424759
v 253.452713 123.707291 -87.425880
v 253.454056 123.707130 -87.428131
v 253.411728 123.688141 -87.418663
v 253.415298 123.681984 -87.415260
v 253.414337 123.687157 -87.415237
v 253.412277 123.685303 -87.413277
v 253.413284 123.684898 -87.416611
v 253.408005 123.689003 -87.414612
v 253.407532 123.689850 -87.409615
v 253.409698 123.687805 -87.414047
v 253.409790 123.688568 -87.417320
v 253.413910 123.688339 -87.414474
v 253.412735 123.689316 -87.416267
v 253.447678 123.714569 -87.389023
v 253.447586 123.714722 -87.394203
v 253.444153 123.717064 -87.393120
v 253.444016 123.719078 -87.389160
v 253.413300 123.685211 -87.401489
v 253.408218 123.691994 -87.404976
v 253.406143 123.692482 -87.406059
v 253.411636 123.686577 -87.404976
v 253.410156 123.686928 -87.408394
v 253.412384 123.690903 -87.407028
v 253.408844 123.692101 -87.405991
v 253.446762 123.717590 -87.386993
v 253.410263 123.691956 -87.407463
vn -0.6353 -0.7687 0.0741
vn -0.6486 -0.7576 0.0735
vn -0.6398 -0.7664 0.0572
vn -0.6362 -0.1480 -0.7572
vn -0.6366 -0.1014 -0.7645
vn -0.6119 -0.1237 -0.7812
vn -0.6760 -0.1575 0.7199
vn -0.6667 -0.1239 0.7350
vn -0.6791 -0.1087 0.7259
vn -0.7486 0.1150 -0.6530
vn -0.7720 0.1479 -0.6182
vn -0.7390 0.1576 -0.6550
vn 0.3174 -0.9236 -0.2150
vn 0.3153 -0.9279 -0.1988
vn 0.3013 -0.9312 -0.2052
vn 0.0690 -0.8562 -0.5120
vn 0.0533 -0.8638 -0.5010
vn 0.0278 -0.8575 -0.5137
vn 0.0824 -0.9033 0.4210
vn 0.0814 -0.9106 0.4053
vn 0.0947 -0.9069 0.4106
vn -0.8132 -0.3232 0.4840
vn -0.7905 -0.3499 0.5027
vn -0.7884 -0.3390 0.5134
vn -0.7501 -0.5979 0.2828
vn -0.7605 -0.5881 0.2752
vn -0.7474 -0.6047 0.2753
vn -0.9178 -0.1234 0.3774
vn -0.9088 -0.1363 0.3942
vn -0.9100 -0.1277 0.3944
vn -0.3962 -0.8619 -0.3165
vn -0.3768 -0.8663 -0.3280
vn -0.3819 -0.8712 -0.3086
vn -0.5534 -0.7841 -0.2809
vn -0.5548 -0.7873 -0.2691
vn -0.5662 -0.7743 -0.2825
vn -0.7345 -0.6592 0.1609
vn -0.7350 -0.6546 0.1769
vn -0.7459 -0.6455 0.1640
vn 0.3594 0.1361 -0.9232
vn 0.3819 0.1162 -0.9169
vn 0.3646 0.1160 -0.9239
vn -0.0402 -0.3496 -0.9360
vn -0.0715 -0.3644 -0.9285
vn -0.0512 -0.3232 -0.9449
vn -0.7891 -0.0100 0.6141
vn -0.7957 0.0031 0.6057
vn -0.8138 -0.0157 0.5810
vn -0.8263 -0.4816 0.2920
vn -0.8465 -0.4469 0.2892
vn -0.8413 -0.4752 0.2577
vn -0.5640 -0.8257 -0.0118
vn -0.5713 -0.8207 -0.0061
vn -0.5724 -0.8197 -0.0237
vn -0.6756 -0.5432 0.4985
vn -0.6882 -0.5263 0.4994
vn -0.6849 -0.5388 0.4905
vn -0.1352 -0.9747 -0.1777
vn -0.1242 -0.9786 -0.1639
vn -0.1456 -0.9760 -0.1619
vn -0.4695 -0.0518 0.8814
vn -0.4561 -0.0453 0.8888
vn -0.4617 -0.0351 0.8864
vn 0.1117 -0.7742 0.6230
vn 0.1014 -0.7793 0.6184
vn 0.1182 -0.7811 0.6131
vn -0.4965 -0.3079 -0.8116
vn -0.4865 -0.2930 -0.8231
vn -0.4782 -0.3124 -0.8208
vn -0.8504 0.3344 0.4061
vn -0.8426 0.3487 0.4103
vn -0.8512 0.3496 0.3914
vn -0.3656 -0.3915 0.8444
vn -0.3594 -0.3806 0.8521
vn -0.3756 -0.3830 0.8440
vn -0.1393 -0.9893 -0.0428
vn -0.1287 -0.9912 -0.0299
vn -0.1455 -0.9891 -0.0233
vn -0.3619 -0.8828 -0.2994
vn -0.3690 -0.8843 -0.2862
vn -0.3847 -0.8751 -0.2937
s 1
f 4//1 3//2 1//3
f 8//4 7//5 9//6
f 8//7 10//8 7//9
f 15//10 8//11 9//12
f 13//13 14//14 16//15
f 13//16 16//17 15//18
f 6//19 16//20 14//21
f 8//22 16//23 6//24
f 19//25 17//26 20//27
f 21//28 24//29 25//30
f 26//31 22//32 27//33
f 4//34 5//35 3//36
f 2//37 4//38 1//39
f 9//40 11//41 13//42
f 13//43 15//44 9//45
f 6//46 10//47 8//48
f 16//49 8//50 15//51
f 19//52 18//53 17//54
f 20//55 17//56 28//57
f 22//58 23//59 27//60
f 26//61 12//62 25//63
f 12//64 29//65 23//66
f 26//67 24//68 22//69
f 26//70 25//71 24//72
f 29//73 12//74 26//75
f 27//76 23//77 29//78
f 27//79 29//80 26//81
