# Blender v2.80 (sub 75) OBJ File: 'dirac.blend'
# www.blender.org
v -2.726680 6.844925 13.128789
v -2.849290 6.856229 13.232224
v -2.758326 6.932726 13.061205
v -2.925980 6.878897 13.316214
v -2.881539 6.794271 13.378383
v -2.617210 6.898006 12.991469
v -2.620989 6.800096 13.119446
v -2.764390 6.774300 13.268194
v -2.927652 6.852365 13.407963
v -2.771198 7.008982 13.025251
v -2.875456 6.952652 13.171388
v -2.832880 7.026722 13.109059
v -2.531146 6.949928 12.906742
v -2.643376 6.994430 12.930633
v -2.548363 7.017798 12.890574
v -2.537535 6.783350 13.124447
v -2.506049 6.861837 12.988975
v -2.467242 6.837958 13.054521
v -2.781569 6.739431 13.377509
v -2.653229 6.738130 13.265700
v -2.701672 6.735690 13.374297
v -2.923908 6.950250 13.280087
v -2.689489 7.052525 12.960213
v -2.463464 6.935868 12.926544
v -2.558226 6.761505 13.225545
v -2.842787 6.770410 13.444033
v -2.752761 6.517185 13.567989
v -2.867598 6.626323 13.540377
v -2.794375 6.479464 13.668631
v -2.938827 6.717524 13.532465
v -2.885049 6.750272 13.437352
v -2.657270 6.394868 13.665795
v -2.645692 6.489452 13.535814
v -2.775708 6.632441 13.458314
v -2.931997 6.797787 13.481084
v -2.814266 6.467723 13.750617
v -2.903741 6.597230 13.647667
v -2.870371 6.556388 13.739324
v -2.580962 6.323777 13.745893
v -2.693403 6.365768 13.773184
v -2.603221 6.328752 13.814082
v -2.561332 6.484654 13.524779
v -2.544720 6.375756 13.640368
v -2.499753 6.429454 13.602038
v -2.782474 6.727987 13.392889
v -2.663177 6.613375 13.432891
v -2.702948 6.719323 13.396280
v -2.943531 6.703223 13.611061
v -2.740326 6.413348 13.816916
v -2.511331 6.334870 13.732019
v -2.572977 6.576313 13.473784
v -2.840127 6.803950 13.399026
v -3.253920 6.939694 13.510807
v -3.217695 6.922940 13.454104
v -3.227526 6.880549 13.486010
v -3.099283 6.871304 13.390136
v -3.102749 6.920726 13.412930
v -3.209599 6.892361 13.535414
v -3.188680 6.942028 13.534157
v -3.193676 6.960912 13.483884
v -2.950683 6.836759 13.348456
v -3.116047 6.799246 13.444369
v -3.136644 6.840344 13.415059
v -2.981462 6.744753 13.381526
v -3.085503 6.819287 13.528475
v -3.128567 6.809810 13.496373
v -2.958539 6.737680 13.481203
v -3.049889 6.903796 13.526259
v -3.089702 6.871243 13.544516
v -2.913538 6.825294 13.509717
v -3.058369 6.935914 13.440755
v -3.073734 6.939814 13.492982
v -2.908692 6.886562 13.427636
v -2.971621 6.787137 13.349719
v -2.976511 6.725849 13.431803
v -2.934520 6.775652 13.510983
v -2.903697 6.867677 13.477909
v -2.926620 6.874751 13.378232
v -2.835270 6.708635 13.333177
v -2.795501 6.741168 13.314924
v -2.696523 6.670383 13.325282
v -2.826790 6.676517 13.418680
v -2.811469 6.672596 13.366457
v -2.691528 6.651499 13.375555
v -2.785921 6.741107 13.469303
v -2.782410 6.691704 13.446506
v -2.667509 6.689471 13.405334
v -2.769102 6.813178 13.415164
v -2.748560 6.772067 13.444380
v -2.657633 6.731881 13.373426
v -2.799637 6.793098 13.330956
v -2.756592 6.802620 13.363063
v -2.675560 6.720070 13.324022
v -2.631239 6.672736 13.348628
v -3.164712 7.198451 13.255372
v -3.015365 7.049685 13.288697
v -3.112258 7.244128 13.118871
v -2.928243 6.917449 13.290199
v -2.998059 6.876328 13.417823
v -3.293868 7.356178 13.122577
v -3.309143 7.230929 13.294711
v -3.137034 7.041509 13.397403
v -2.945311 6.798479 13.348233
v -3.093153 7.248236 13.001225
v -2.973283 7.078948 13.139292
v -3.026974 7.118153 13.006276
v -3.402119 7.438871 13.007548
v -3.251831 7.385422 12.973174
v -3.380692 7.419623 12.907291
v -3.428150 7.225796 13.300380
v -3.448715 7.372223 13.149014
v -3.517701 7.286224 13.188139
v -3.135257 6.903528 13.475103
v -3.291857 7.057618 13.423841
v -3.248590 6.902354 13.460645
v -2.930036 6.923728 13.176099
v -3.199092 7.307611 12.903687
v -3.502381 7.411492 13.016001
v -3.420763 7.091799 13.357962
v -3.067000 6.790349 13.456944
v -3.199221 6.764387 13.837135
v -3.039548 6.745183 13.696757
v -3.160028 6.643943 13.923209
v -2.945261 6.703788 13.576555
v -3.002683 6.818067 13.495945
v -3.346884 6.689855 14.015507
v -3.341923 6.819516 13.846101
v -3.151948 6.853711 13.649128
v -2.951051 6.726263 13.445136
v -3.150215 6.531507 13.961811
v -3.010753 6.608292 13.770123
v -3.076535 6.495343 13.840997
v -3.468102 6.609709 14.118810
v -3.318063 6.553028 14.088874
v -3.453341 6.507123 14.130268
v -3.459645 6.830240 13.830539
v -3.499949 6.728563 14.011663
v -3.560726 6.745294 13.913128
v -3.136495 6.888386 13.495392
v -3.305013 6.892419 13.645286
v -3.250317 6.880710 13.489707
v -2.956056 6.596582 13.614545
v -3.266466 6.461167 14.037966
v -3.565722 6.615606 14.082634
v -3.440247 6.846534 13.686676
v -3.063441 6.834753 13.397405
vn -0.5348 -0.6279 -0.5654
vn -0.6441 -0.6428 -0.4146
vn -0.4613 -0.6396 -0.6149
vn -0.3624 -0.7350 -0.5730
vn -0.3756 -0.7818 -0.4977
vn -0.8127 -0.5557 -0.1755
vn -0.8081 -0.0305 -0.5883
vn -0.3091 -0.2939 -0.9045
vn 0.2256 -0.8648 -0.4486
vn -0.0485 -0.9979 -0.0441
vn -0.9997 0.0232 -0.0115
vn -0.6917 0.4084 -0.5956
vn 0.2451 -0.1654 -0.9553
vn 0.5755 -0.8157 -0.0585
vn -0.0267 -0.9154 0.4017
vn 0.2784 -0.9550 0.1027
vn 0.1644 -0.9706 -0.1761
vn 0.4591 -0.7121 -0.5312
vn 0.0775 -0.6684 -0.7397
vn -0.4124 0.1316 -0.9014
vn -0.5986 -0.0688 -0.7981
vn -0.8994 0.1830 -0.3969
vn -0.8972 -0.1784 -0.4039
vn -0.7221 -0.6668 0.1839
vn -0.4809 -0.8761 -0.0346
vn -0.2986 -0.8947 -0.3323
vn -0.2885 -0.8571 -0.4267
vn -0.1551 -0.8969 -0.4142
vn -0.1379 -0.8428 -0.5203
vn -0.2615 -0.7628 -0.5913
vn -0.2422 -0.6980 -0.6738
vn -0.3800 -0.5651 -0.7323
vn -0.4739 -0.5583 -0.6810
vn -0.5688 -0.4273 -0.7027
vn -0.4555 -0.8249 -0.3347
vn -0.5273 -0.7342 -0.4276
vn -0.4849 -0.7203 -0.4961
vn -0.6614 -0.4083 -0.6292
vn -0.6270 -0.5302 -0.5707
vn -0.7002 -0.5071 -0.5025
vn 0.5400 0.6901 0.4819
vn 0.6361 0.5442 0.5470
vn 0.4696 0.7452 0.4735
vn 0.3622 0.7380 0.5693
vn 0.3670 0.6786 0.6363
vn 0.7908 0.2808 0.5438
vn 0.8469 0.5265 -0.0737
vn 0.3599 0.9317 0.0495
vn -0.2401 0.6891 0.6837
vn -0.0049 0.3250 0.9457
vn 0.9973 -0.0528 0.0501
vn 0.7573 0.4150 -0.5042
vn -0.1812 0.9748 -0.1303
vn -0.6143 0.3226 0.7201
vn -0.0556 -0.1222 0.9909
vn -0.3391 0.1910 0.9211
vn -0.2054 0.4558 0.8661
vn -0.4581 0.7377 0.4960
vn -0.0593 0.9034 0.4246
vn 0.4869 0.8008 -0.3488
vn 0.6529 0.7488 -0.1141
vn 0.9361 0.2762 -0.2177
vn 0.9139 0.3862 0.1250
vn 0.6669 -0.0264 0.7447
vn 0.4308 0.2571 0.8650
vn 0.2717 0.5568 0.7850
vn 0.2710 0.6374 0.7214
vn 0.1351 0.6443 0.7528
vn 0.1292 0.7310 0.6701
vn 0.2623 0.7690 0.5829
vn 0.2531 0.8306 0.4961
vn 0.4020 0.8406 0.3631
vn 0.4918 0.7844 0.3780
vn 0.5956 0.7622 0.2537
vn 0.4315 0.5303 0.7298
vn 0.5159 0.5894 0.6217
vn 0.4798 0.6531 0.5859
vn 0.6831 0.6812 0.2633
vn 0.6374 0.6621 0.3942
vn 0.7064 0.5861 0.3969
vn -0.8524 -0.1736 -0.4933
vn -0.3053 0.3811 -0.8727
vn -0.7637 -0.5079 0.3985
vn -0.3376 0.1656 0.9266
vn -0.1621 0.9183 0.3611
vn -0.1586 0.4043 -0.9008
vn -0.5210 -0.6531 -0.5496
vn -0.2708 -0.7620 0.5882
vn 0.2456 0.2280 0.9422
vn 0.3148 0.9489 0.0217
vn -0.2515 0.0816 -0.9644
vn -0.4671 -0.8418 -0.2705
vn -0.0756 -0.5853 0.8073
vn 0.3807 0.4969 0.7799
vn 0.2720 0.9089 -0.3160
vn -0.1470 -0.3413 -0.9284
vn -0.1749 -0.9843 0.0226
vn 0.3053 -0.3810 0.8727
vn 0.6302 0.6337 0.4487
vn 0.3506 0.6589 -0.6655
vn 0.7637 0.5079 -0.3985
vn 0.5639 0.7332 -0.3799
vn 0.5831 0.8120 -0.0246
vn 0.8521 0.1732 0.4939
vn 0.6674 0.3422 0.6614
vn 0.5024 0.0863 0.8603
vn 0.4804 -0.7089 0.5165
vn 0.2332 -0.6871 0.6881
vn -0.0063 -0.8735 0.4869
vn 0.1622 -0.9183 -0.3611
vn -0.1384 -0.9316 -0.3362
vn -0.2396 -0.7393 -0.6293
vn 0.3373 -0.1658 -0.9267
vn 0.0662 -0.0532 -0.9964
vn 0.1246 0.3015 -0.9453
vn 0.2706 0.7617 -0.5887
vn 0.3426 0.8780 -0.3342
vn 0.4594 0.8856 -0.0691
vn 0.5209 0.6519 0.5511
vn 0.4517 0.4661 0.7608
vn 0.4176 0.2080 0.8845
vn 0.1586 -0.4044 0.9007
vn -0.0052 -0.6151 0.7885
vn -0.0938 -0.8033 0.5881
vn -0.3145 -0.9490 -0.0210
vn -0.3957 -0.8718 -0.2888
vn -0.3672 -0.7502 -0.5498
vn -0.2457 -0.2282 -0.9421
vn -0.1807 0.0512 -0.9822
vn -0.0260 0.2930 -0.9558
vn 0.4668 0.8421 0.2699
vn 0.3954 0.8719 0.2889
vn 0.3671 0.7506 0.5494
vn 0.2515 -0.0817 0.9644
vn 0.1806 -0.0513 0.9822
vn 0.0261 -0.2930 0.9558
vn -0.2717 -0.9088 0.3165
vn -0.3425 -0.8778 0.3348
vn -0.4595 -0.8855 0.0692
vn -0.3807 -0.4969 -0.7799
vn -0.4515 -0.4661 -0.7608
vn -0.4174 -0.2084 -0.8845
vn 0.0755 0.5850 -0.8075
vn 0.0051 0.6148 -0.7886
vn 0.0938 0.8033 -0.5881
vn 0.1748 0.9844 -0.0221
vn 0.1384 0.9316 0.3362
vn 0.2395 0.7396 0.6289
vn 0.1468 0.3412 0.9285
vn -0.0663 0.0531 0.9964
vn -0.1249 -0.3019 0.9451
vn -0.3509 -0.6590 0.6653
vn -0.5639 -0.7332 0.3799
vn -0.5831 -0.8120 0.0246
vn 0.0062 0.8735 -0.4868
vn -0.2332 0.6872 -0.6881
vn -0.4804 0.7089 -0.5164
vn -0.6300 -0.6348 -0.4473
vn -0.6676 -0.3427 -0.6610
vn -0.5024 -0.0863 -0.8603
vn 0.5779 0.6809 0.4499
vn 0.7025 0.4689 0.5354
vn 0.4784 0.7609 0.4384
vn 0.3254 0.7506 0.5750
vn 0.3318 0.6645 0.6696
vn 0.8530 0.1249 0.5068
vn 0.8722 0.4350 -0.2238
vn 0.3094 0.9439 -0.1151
vn -0.4071 0.6282 0.6630
vn -0.1261 0.1954 0.9726
vn 0.9879 -0.1534 -0.0240
vn 0.7331 0.3503 -0.5830
vn -0.2745 0.9318 -0.2375
vn -0.6838 0.2559 0.6833
vn -0.1209 -0.2279 0.9661
vn -0.4338 0.0916 0.8963
vn -0.3497 0.3536 0.8676
vn -0.5930 0.6752 0.4386
vn -0.2185 0.9085 0.3563
vn 0.4497 0.7449 -0.4928
vn 0.6552 0.6993 -0.2859
vn 0.9292 0.1827 -0.3212
vn 0.9633 0.2683 -0.0004
vn 0.6602 -0.1999 0.7240
vn 0.3994 0.0946 0.9119
vn 0.1960 0.4831 0.8534
vn 0.1950 0.5984 0.7771
vn 0.0124 0.5982 0.8012
vn 0.0021 0.7189 0.6951
vn 0.1821 0.7873 0.5890
vn 0.1694 0.8689 0.4652
vn 0.3778 0.8828 0.2791
vn 0.5052 0.8090 0.3005
vn 0.6353 0.7613 0.1297
vn 0.4186 0.4497 0.7890
vn 0.5421 0.5361 0.6471
vn 0.4935 0.6298 0.5998
vn 0.7484 0.6474 0.1441
vn 0.7044 0.6325 0.3223
vn 0.7882 0.5230 0.3244
vn -0.5711 -0.5921 -0.5685
vn -0.7137 -0.6062 -0.3510
vn -0.4664 -0.6097 -0.6409
vn -0.3248 -0.7464 -0.5808
vn -0.3433 -0.8119 -0.4721
vn -0.8806 -0.4720 -0.0419
vn -0.8264 0.1390 -0.5456
vn -0.2451 -0.1424 -0.9590
vn 0.3905 -0.8371 -0.3830
vn 0.0622 -0.9934 0.0966
vn -0.9904 0.1226 0.0646
vn -0.6655 0.4988 -0.5552
vn 0.3440 -0.0552 -0.9373
vn 0.6434 -0.7655 0.0000
vn 0.0335 -0.8660 0.4989
vn 0.3688 -0.9082 0.1980
vn 0.3022 -0.9509 -0.0670
vn 0.5954 -0.6464 -0.4770
vn 0.2416 -0.6132 -0.7520
vn -0.3675 0.2843 -0.8855
vn -0.5907 0.1111 -0.7992
vn -0.8902 0.3075 -0.3361
vn -0.9437 -0.0220 -0.3301
vn -0.7236 -0.5979 0.3449
vn -0.4613 -0.8768 0.1360
vn -0.2327 -0.9434 -0.2362
vn -0.2192 -0.9035 -0.3683
vn -0.0394 -0.9369 -0.3474
vn -0.0143 -0.8706 -0.4919
vn -0.1817 -0.7783 -0.6010
vn -0.1551 -0.6841 -0.7127
vn -0.3469 -0.4989 -0.7942
vn -0.4798 -0.4910 -0.7271
vn -0.5992 -0.3062 -0.7397
vn -0.4509 -0.8599 -0.2393
vn -0.5585 -0.7416 -0.3717
vn -0.5013 -0.7259 -0.4709
vn -0.7190 -0.2810 -0.6357
vn -0.6897 -0.4494 -0.5678
vn -0.7797 -0.4152 -0.4686
s 1
f 1//1 2//1 3//1
f 4//2 2//2 5//2
f 1//3 3//3 6//3
f 1//4 6//4 7//4
f 1//5 7//5 8//5
f 4//6 5//6 9//6
f 10//7 11//7 12//7
f 13//8 14//8 15//8
f 16//9 17//9 18//9
f 19//10 20//10 21//10
f 4//11 9//11 22//11
f 10//12 12//12 23//12
f 13//13 15//13 24//13
f 16//14 18//14 25//14
f 19//15 21//15 26//15
f 21//16 20//16 25//16
f 20//17 16//17 25//17
f 18//18 17//18 24//18
f 17//19 13//19 24//19
f 15//20 14//20 23//20
f 14//21 10//21 23//21
f 12//22 11//22 22//22
f 11//23 4//23 22//23
f 9//24 5//24 26//24
f 5//25 19//25 26//25
f 8//26 20//26 19//26
f 8//27 7//27 20//27
f 7//28 16//28 20//28
f 7//29 17//29 16//29
f 7//30 6//30 17//30
f 6//31 13//31 17//31
f 6//32 14//32 13//32
f 6//33 3//33 14//33
f 3//34 10//34 14//34
f 5//35 8//35 19//35
f 5//36 2//36 8//36
f 2//37 1//37 8//37
f 3//38 11//38 10//38
f 3//39 2//39 11//39
f 2//40 4//40 11//40
f 27//41 28//41 29//41
f 30//42 28//42 31//42
f 27//43 29//43 32//43
f 27//44 32//44 33//44
f 27//45 33//45 34//45
f 30//46 31//46 35//46
f 36//47 37//47 38//47
f 39//48 40//48 41//48
f 42//49 43//49 44//49
f 45//50 46//50 47//50
f 30//51 35//51 48//51
f 36//52 38//52 49//52
f 39//53 41//53 50//53
f 42//54 44//54 51//54
f 45//55 47//55 52//55
f 47//56 46//56 51//56
f 46//57 42//57 51//57
f 44//58 43//58 50//58
f 43//59 39//59 50//59
f 41//60 40//60 49//60
f 40//61 36//61 49//61
f 38//62 37//62 48//62
f 37//63 30//63 48//63
f 35//64 31//64 52//64
f 31//65 45//65 52//65
f 34//66 46//66 45//66
f 34//67 33//67 46//67
f 33//68 42//68 46//68
f 33//69 43//69 42//69
f 33//70 32//70 43//70
f 32//71 39//71 43//71
f 32//72 40//72 39//72
f 32//73 29//73 40//73
f 29//74 36//74 40//74
f 31//75 34//75 45//75
f 31//76 28//76 34//76
f 28//77 27//77 34//77
f 29//78 37//78 36//78
f 29//79 28//79 37//79
f 28//80 30//80 37//80
f 53//81 54//81 55//81
f 56//82 54//82 57//82
f 53//83 55//83 58//83
f 53//84 58//84 59//84
f 53//85 59//85 60//85
f 56//86 57//86 61//86
f 62//87 63//87 64//87
f 65//88 66//88 67//88
f 68//89 69//89 70//89
f 71//90 72//90 73//90
f 56//91 61//91 74//91
f 62//92 64//92 75//92
f 65//93 67//93 76//93
f 68//94 70//94 77//94
f 71//95 73//95 78//95
f 79//96 80//96 81//96
f 82//97 83//97 84//97
f 85//98 86//98 87//98
f 88//99 89//99 90//99
f 91//100 92//100 93//100
f 93//101 90//101 94//101
f 93//102 92//102 90//102
f 92//103 88//103 90//103
f 90//104 87//104 94//104
f 90//105 89//105 87//105
f 89//106 85//106 87//106
f 87//107 84//107 94//107
f 87//108 86//108 84//108
f 86//109 82//109 84//109
f 84//110 81//110 94//110
f 84//111 83//111 81//111
f 83//112 79//112 81//112
f 81//113 93//113 94//113
f 81//114 80//114 93//114
f 80//115 91//115 93//115
f 78//116 92//116 91//116
f 78//117 73//117 92//117
f 73//118 88//118 92//118
f 77//119 89//119 88//119
f 77//120 70//120 89//120
f 70//121 85//121 89//121
f 76//122 86//122 85//122
f 76//123 67//123 86//123
f 67//124 82//124 86//124
f 75//125 83//125 82//125
f 75//126 64//126 83//126
f 64//127 79//127 83//127
f 74//128 80//128 79//128
f 74//129 61//129 80//129
f 61//130 91//130 80//130
f 73//131 77//131 88//131
f 73//132 72//132 77//132
f 72//133 68//133 77//133
f 70//134 76//134 85//134
f 70//135 69//135 76//135
f 69//136 65//136 76//136
f 67//137 75//137 82//137
f 67//138 66//138 75//138
f 66//139 62//139 75//139
f 64//140 74//140 79//140
f 64//141 63//141 74//141
f 63//142 56//142 74//142
f 61//143 78//143 91//143
f 61//144 57//144 78//144
f 57//145 71//145 78//145
f 60//146 72//146 71//146
f 60//147 59//147 72//147
f 59//148 68//148 72//148
f 59//149 69//149 68//149
f 59//150 58//150 69//150
f 58//151 65//151 69//151
f 58//152 66//152 65//152
f 58//153 55//153 66//153
f 55//154 62//154 66//154
f 57//155 60//155 71//155
f 57//156 54//156 60//156
f 54//157 53//157 60//157
f 55//158 63//158 62//158
f 55//159 54//159 63//159
f 54//160 56//160 63//160
f 95//161 96//161 97//161
f 98//162 96//162 99//162
f 95//163 97//163 100//163
f 95//164 100//164 101//164
f 95//165 101//165 102//165
f 98//166 99//166 103//166
f 104//167 105//167 106//167
f 107//168 108//168 109//168
f 110//169 111//169 112//169
f 113//170 114//170 115//170
f 98//171 103//171 116//171
f 104//172 106//172 117//172
f 107//173 109//173 118//173
f 110//174 112//174 119//174
f 113//175 115//175 120//175
f 115//176 114//176 119//176
f 114//177 110//177 119//177
f 112//178 111//178 118//178
f 111//179 107//179 118//179
f 109//180 108//180 117//180
f 108//181 104//181 117//181
f 106//182 105//182 116//182
f 105//183 98//183 116//183
f 103//184 99//184 120//184
f 99//185 113//185 120//185
f 102//186 114//186 113//186
f 102//187 101//187 114//187
f 101//188 110//188 114//188
f 101//189 111//189 110//189
f 101//190 100//190 111//190
f 100//191 107//191 111//191
f 100//192 108//192 107//192
f 100//193 97//193 108//193
f 97//194 104//194 108//194
f 99//195 102//195 113//195
f 99//196 96//196 102//196
f 96//197 95//197 102//197
f 97//198 105//198 104//198
f 97//199 96//199 105//199
f 96//200 98//200 105//200
f 121//201 122//201 123//201
f 124//202 122//202 125//202
f 121//203 123//203 126//203
f 121//204 126//204 127//204
f 121//205 127//205 128//205
f 124//206 125//206 129//206
f 130//207 131//207 132//207
f 133//208 134//208 135//208
f 136//209 137//209 138//209
f 139//210 140//210 141//210
f 124//211 129//211 142//211
f 130//212 132//212 143//212
f 133//213 135//213 144//213
f 136//214 138//214 145//214
f 139//215 141//215 146//215
f 141//216 140//216 145//216
f 140//217 136//217 145//217
f 138//218 137//218 144//218
f 137//219 133//219 144//219
f 135//220 134//220 143//220
f 134//221 130//221 143//221
f 132//222 131//222 142//222
f 131//223 124//223 142//223
f 129//224 125//224 146//224
f 125//225 139//225 146//225
f 128//226 140//226 139//226
f 128//227 127//227 140//227
f 127//228 136//228 140//228
f 127//229 137//229 136//229
f 127//230 126//230 137//230
f 126//231 133//231 137//231
f 126//232 134//232 133//232
f 126//233 123//233 134//233
f 123//234 130//234 134//234
f 125//235 128//235 139//235
f 125//236 122//236 128//236
f 122//237 121//237 128//237
f 123//238 131//238 130//238
f 123//239 122//239 131//239
f 122//240 124//240 131//240
