# Blender v2.80 (sub 75) OBJ File: 'jwst.blend'
# www.blender.org
v 0.068132 2.102699 -1.488138
v 0.038605 -1.815509 -0.199480
v 0.040724 -1.534341 0.287605
v 0.040759 -1.529727 -0.712423
v 0.040724 -1.534341 -0.686565
v 0.038667 -1.807235 0.798082
v 0.040787 -1.525987 0.310997
v 0.040787 -1.525987 1.285167
v 0.044962 -0.971926 0.287605
v 0.047081 -0.690758 -0.199480
v 0.045025 -0.963572 0.310997
v 0.047144 -0.682404 0.798082
v 0.047307 -0.660684 -0.203777
v 0.045189 -0.941852 0.303438
v 0.047307 -0.660684 -0.183647
v 0.051546 -0.098268 -0.183647
v 0.053665 0.182979 0.303438
v 0.045151 -0.946944 1.304899
v 0.047269 -0.665776 1.791984
v 0.051546 -0.098268 0.790523
v 0.045025 -0.963572 1.285167
v 0.047269 -0.665776 0.817813
v 0.051507 -0.103360 0.817813
v 0.068704 2.178661 -1.369278
v 0.068075 2.095151 -1.482649
v 0.041412 -1.443044 -1.568025
v 0.041677 -1.407833 -1.626774
v 0.071056 2.490720 1.285087
v 0.073175 2.771968 0.798002
v 0.071056 2.490720 0.310917
v 0.042798 -1.259148 -1.526466
v 0.041284 -1.459983 -1.539767
v 0.038640 -1.810894 -1.199509
v 0.042941 -1.240071 -1.686594
v 0.047308 -0.660684 0.790523
v 0.053792 0.199767 0.314656
v 0.051673 -0.081401 0.801742
v 0.053783 0.198653 2.283843
v 0.054841 0.338918 2.283843
v 0.051507 -0.103360 1.791984
v 0.051664 -0.082595 1.796757
v 0.053627 0.177887 1.304899
v 0.053783 0.198653 1.309672
v 0.064699 1.647137 0.798002
v 0.066755 1.920030 0.299301
v 0.066818 1.928305 0.310917
v 0.070993 2.482446 0.299301
v 0.073112 2.763614 -0.187785
v 0.054841 0.338918 2.071983
v 0.055795 0.465579 1.817641
v 0.053792 0.199767 1.288827
v 0.064570 1.630032 0.818052
v 0.064535 1.625417 0.799514
v 0.066654 1.906585 0.312429
v 0.066818 1.928305 1.285087
v 0.066689 1.911279 1.305137
v 0.064570 1.630032 1.792222
v 0.060332 1.067616 1.792222
v 0.060332 1.067616 0.818052
v 0.060149 1.043429 0.801742
v 0.043418 -1.176818 -1.640565
v 0.042814 -1.256987 -1.529463
v 0.060140 1.042236 1.796757
v 0.058022 0.761068 1.309672
v 0.056856 0.606402 1.817641
v 0.057387 0.676813 2.071983
v 0.056856 0.606402 2.071983
v 0.055795 0.465579 2.119255
v 0.055533 0.430811 2.071983
v 0.058213 0.786448 1.305137
v 0.058030 0.762182 1.288827
v 0.058030 0.762182 0.314656
v 0.060297 1.063002 0.799514
v 0.064636 1.638783 -0.187785
v 0.058022 0.761068 2.283843
v 0.057387 0.676813 2.283843
v 0.066755 1.920030 -0.674870
v 0.064535 1.625417 -0.174657
v 0.064661 1.642125 -2.160153
v 0.066780 1.923372 -1.673068
v 0.051580 -0.093654 -1.205317
v 0.051694 -0.078617 -1.180175
v 0.051805 -0.063818 -2.184102
v 0.053924 0.217349 -2.671107
v 0.058162 0.779765 -2.671107
v 0.051580 -0.093654 -2.179487
v 0.053924 0.217349 -1.697017
v 0.053700 0.187594 -1.692402
v 0.058177 0.781754 0.312429
v 0.053813 0.202551 -1.667260
v 0.060282 1.061012 -2.184102
v 0.058162 0.779765 -1.697017
v 0.060423 1.079709 -2.160153
v 0.058304 0.798541 -1.673068
v 0.064535 1.625417 -0.194786
v 0.058051 0.764967 -1.667260
v 0.060297 1.063002 -0.194786
v 0.060297 1.063002 -0.174657
v 0.060170 1.046214 -1.180175
v 0.055917 0.481730 -0.693090
v 0.060423 1.079709 -1.186062
v 0.060297 1.063002 -1.168956
v 0.058177 0.781754 -0.681871
v 0.066868 1.935068 -1.657235
v 0.064661 1.642125 -1.186062
v 0.058051 0.764967 -0.693090
v 0.053665 0.182979 -0.690862
v 0.053813 0.202551 -0.693090
v 0.051546 -0.098268 -1.177947
v 0.066654 1.906585 -0.681871
v 0.051546 -0.098268 -0.203777
v 0.045189 -0.941852 -0.690862
v 0.071035 2.488036 -1.482536
v 0.070324 2.393609 -1.525573
v 0.071107 2.497483 -0.683065
v 0.066869 1.935068 -0.683065
v 0.073225 2.778651 -1.170150
v 0.071215 2.511927 -1.454067
v 0.045223 -0.937237 -1.692402
v 0.047343 -0.655990 -2.179487
v 0.044997 -0.967311 -1.686594
v 0.047343 -0.655990 -1.205317
v 0.070993 2.482446 -0.674870
v 0.064750 1.653900 -1.170150
v 0.069870 2.333387 -1.655801
v 0.068684 2.176019 -1.372863
v 0.064535 1.625417 -1.168956
v 0.071765 2.584886 -1.505822
v 0.043418 -1.176855 -1.640592
v 0.043371 -1.182988 -1.645053
v 0.047116 -0.686064 -1.199509
v 0.044997 -0.967311 -0.712423
v 0.044962 -0.971926 -0.686565
v 0.047307 -0.660684 -1.177947
vn 1.0000 -0.0075 -0.0000
vn 1.0000 -0.0073 0.0011
s off
f 3//1 2//1 9//1
f 9//1 2//1 10//1
f 7//1 12//1 6//1
f 11//1 12//1 7//1
f 10//1 2//1 5//1
f 19//1 18//1 23//1
f 22//1 23//1 18//1
f 29//1 28//1 30//1
f 26//1 31//1 32//1
f 8//1 6//1 12//1
f 21//1 8//1 12//1
f 15//1 16//1 14//1
f 35//1 14//1 20//1
f 16//1 17//1 14//1
f 17//1 20//1 14//1
f 42//1 40//1 23//1
f 19//1 23//1 40//1
f 49//1 39//1 38//1
f 41//1 43//1 50//1
f 38//1 41//1 49//1
f 46//1 30//1 44//1
f 28//1 55//1 30//1
f 44//1 30//1 55//1
f 56//1 57//1 52//1
f 43//1 64//1 50//1
f 65//1 63//1 66//1
f 67//1 65//1 66//1
f 68//1 69//1 50//1
f 49//1 50//1 69//1
f 63//1 65//1 64//1
f 58//1 52//1 57//1
f 49//1 41//1 50//1
f 65//1 50//1 64//1
f 36//1 72//1 37//1
f 71//1 37//1 60//1
f 51//1 37//1 71//1
f 58//1 70//1 52//1
f 59//1 52//1 70//1
f 60//1 37//1 72//1
f 74//1 77//1 45//1
f 63//1 75//1 66//1
f 76//1 66//1 75//1
f 83//1 84//1 85//1
f 73//1 89//1 54//1
f 53//1 73//1 54//1
f 85//1 91//1 83//1
f 91//1 92//1 83//1
f 87//1 83//1 92//1
f 78//1 54//1 98//1
f 98//1 54//1 89//1
f 93//1 79//1 94//1
f 99//1 100//1 82//1
f 90//1 96//1 82//1
f 99//1 82//1 96//1
f 94//1 79//1 101//1
f 80//1 105//1 79//1
f 101//1 79//1 105//1
f 95//1 97//1 102//1
f 106//1 100//1 99//1
f 82//1 100//1 108//1
f 102//1 110//1 95//1
f 13//1 112//1 111//1
f 113//1 118//1 24//1
f 118//1 115//1 24//1
f 116//1 24//1 115//1
f 120//1 86//1 119//1
f 88//1 119//1 86//1
f 88//1 81//1 119//1
f 47//1 45//1 77//1
f 123//1 48//1 77//1
f 47//1 77//1 48//1
f 116//1 124//1 24//1
f 114//1 113//1 24//1
f 25//1 126//1 124//1
f 104//1 25//1 124//1
f 126//1 24//1 124//1
f 25//1 104//1 1//1
f 125//1 1//1 104//1
f 110//1 102//1 127//1
f 128//1 117//1 118//1
f 115//1 118//1 117//1
f 33//1 32//1 4//1
f 62//1 61//1 131//1
f 121//1 131//1 61//1
f 61//2 129//2 121//2
f 34//1 121//1 130//1
f 129//1 130//1 121//1
f 31//1 4//1 32//1
f 26//1 27//1 31//1
f 122//1 119//1 81//1
f 4//1 31//1 132//1
f 132//1 31//1 131//1
f 10//1 5//1 133//1
f 107//1 112//1 109//1
f 134//1 109//1 112//1
f 107//1 111//1 112//1
f 103//1 102//1 97//1
