# Blender v2.80 (sub 75) OBJ File: 'jwst.blend'
# www.blender.org
v 0.591847 -3.940408 -2.945946
v 0.454288 -3.994127 -2.948414
v 0.482791 -3.913753 -2.961035
v 0.582993 -0.533408 -3.208624
v 6.391701 -0.705951 -2.899870
v -7.302808 1.706074 -2.857708
v -7.223415 1.664604 -2.866498
v -7.260350 1.586380 -2.897675
v -1.584542 0.863474 -3.122931
v 6.372815 -0.572810 -2.903773
v -7.165230 1.553940 -2.875372
v 0.601269 0.466308 -3.208616
v -7.300600 -0.364371 -2.886817
v 6.043673 0.486296 -2.923945
v -6.807705 0.444757 -2.901042
v -2.021876 0.550922 -3.099428
v 0.766859 4.819937 -2.958629
v 0.647784 4.832917 -2.946382
v 0.619806 1.463342 -3.208621
v -1.487094 0.087431 -3.179389
v -1.922665 0.158499 -3.104026
v -0.966638 0.519614 -3.225417
v -1.030088 0.368698 -3.250230
v 6.476343 1.284422 -2.899326
v 6.468483 1.431832 -2.892009
v 6.409554 1.404872 -2.901002
vn -0.1184 0.0760 0.9901
vn -0.0507 0.0766 0.9958
vn 0.0208 -0.1691 0.9854
vn -0.0097 -0.3663 0.9305
vn -0.0524 0.0218 0.9984
vn -0.0526 0.0010 0.9986
vn 0.2491 0.0634 0.9664
vn 0.0936 -0.0780 0.9926
vn -0.0543 -0.0718 0.9959
vn 0.0414 -0.0012 0.9991
vn 0.0406 -0.0072 0.9991
vn 0.0415 -0.0009 0.9991
vn 0.0416 -0.0097 0.9991
vn 0.0457 0.0112 0.9989
vn 0.0417 -0.0779 0.9961
vn -0.0522 0.0028 0.9986
vn 0.0422 0.0733 0.9964
vn -0.0107 0.0002 0.9999
vn -0.0522 0.0010 0.9986
vn -0.0427 0.3087 0.9502
vn -0.0532 -0.0156 0.9985
vn -0.0528 -0.0022 0.9986
vn 0.0140 -0.0003 0.9999
vn -0.0540 -0.2078 0.9767
vn -0.0159 -0.1557 0.9877
vn 0.0437 -0.0179 0.9989
vn 0.0794 -0.1510 0.9853
s off
f 3//1 1//1 4//1
f 4//2 1//2 5//2
f 6//3 7//3 9//3
f 9//4 7//4 8//4
f 4//5 5//5 10//5
f 4//6 10//6 12//6
f 4//7 2//7 3//7
f 19//8 17//8 18//8
f 17//9 19//9 25//9
f 21//10 16//10 15//10
f 13//11 4//11 15//11
f 4//12 21//12 15//12
f 11//13 15//13 16//13
f 16//14 9//14 11//14
f 6//15 19//15 18//15
f 10//16 14//16 12//16
f 4//17 13//17 2//17
f 12//18 19//18 22//18
f 19//19 12//19 14//19
f 20//20 12//20 23//20
f 19//21 24//21 26//21
f 24//22 19//22 14//22
f 20//23 4//23 12//23
f 25//24 19//24 26//24
f 23//25 12//25 22//25
f 6//26 9//26 19//26
f 22//27 19//27 9//27
