# Blender v2.80 (sub 75) OBJ File: 'jwst.blend'
# www.blender.org
v -1.039939 0.428723 -2.785070
v -1.607720 0.859596 -2.767626
v -1.204384 0.550547 -3.769805
v -1.162773 0.556513 -3.817101
v -1.135012 0.544803 -3.839647
v -1.155931 0.559195 -3.843087
v -1.098720 0.547559 -2.807358
v -1.039047 0.547109 -4.023028
v -1.481568 0.786047 -4.282189
v -1.040088 0.408992 -4.023028
v -1.327288 0.551182 -2.792115
v -1.205806 0.559422 -3.890761
v -1.204405 0.558769 -3.792221
v -1.214371 0.549808 -3.772599
v -1.194957 0.548284 -3.912833
v -1.204692 0.548358 -3.915587
v -1.329785 0.548256 -4.280401
v -1.136682 0.402304 -3.784394
v -1.130784 0.409478 -3.802769
v -1.122341 0.408992 -3.843084
v -1.276285 0.405748 -3.785178
v -1.132820 0.407676 -3.886784
v -1.205875 0.391384 -3.842753
v -1.165692 0.420738 -3.930776
v -1.132219 0.409686 -3.887223
v -1.126468 0.409643 -2.809840
v -1.331918 0.412266 -4.237255
v -1.336471 0.407181 -2.791836
v -1.613447 0.105188 -2.767622
v -1.289754 0.419384 -3.844742
v -1.290627 0.410880 -3.842753
v -1.254214 0.396363 -3.842753
v -1.247878 0.395736 -3.868189
v -1.281938 0.420486 -3.817452
v -1.279247 0.410794 -3.887223
v -1.278225 0.409195 -3.886592
v -1.377698 0.272219 -4.290210
v -1.536809 0.340963 -4.594826
v -1.800194 0.214087 -4.497172
v -1.613837 0.124602 -4.290429
v -1.929779 0.227143 -4.282880
v -1.768857 0.477110 -4.645738
v -1.944823 0.693851 -2.737944
v -1.992178 0.618660 -2.641218
v -2.019677 0.485436 -2.589191
v -1.994189 0.351813 -2.641218
v -2.018540 0.562778 -4.282409
v -1.385585 0.542736 -4.491049
v -1.552364 0.762200 -4.486724
v -1.584668 0.582698 -4.624956
v -1.811355 0.736773 -4.508125
v -1.966089 0.447878 -4.515676
v -1.855685 0.784257 -4.282619
v -1.671941 0.827970 -4.282658
v -1.668414 0.831524 -4.282658
v -1.947969 0.275970 -2.737944
vn 0.6748 0.3675 0.6400
vn 0.0771 0.9970 -0.0054
vn -0.0273 0.9996 -0.0017
vn 0.9988 -0.0075 0.0490
vn 0.8968 0.4423 -0.0072
vn -0.0018 1.0000 0.0067
vn -0.6528 0.7574 0.0143
vn 0.1349 0.9814 0.1368
vn 0.2485 0.9095 0.3334
vn 0.5595 0.7119 -0.4244
vn 0.2991 0.9029 -0.3086
vn 0.0059 1.0000 -0.0023
vn 0.0159 0.9999 0.0014
vn 0.8842 0.4560 0.1012
vn -0.0711 0.9974 -0.0096
vn 0.0260 0.9993 0.0262
vn 0.7302 0.6357 -0.2505
vn 0.0084 1.0000 -0.0032
vn 0.0289 -0.9521 -0.3043
vn 0.9228 -0.3220 -0.2116
vn 0.2139 -0.9768 0.0051
vn 0.7054 -0.7070 -0.0496
vn 0.0229 -0.9996 0.0169
vn -0.0231 -0.9997 -0.0106
vn 0.0348 -0.9993 0.0159
vn -0.1750 -0.9780 -0.1137
vn -0.0522 -0.9971 0.0559
vn 0.5917 -0.0045 -0.8061
vn 0.7407 0.6712 0.0291
vn 0.8429 0.5380 -0.0025
vn -0.0840 0.9965 -0.0018
vn -0.5357 -0.8368 -0.1128
vn -0.1017 -0.9873 0.1219
vn -0.7316 -0.6594 -0.1730
vn -0.5413 -0.8195 0.1881
vn -0.0253 -0.9768 0.2128
vn 0.2056 -0.9767 -0.0610
vn 0.0736 -0.9557 -0.2851
vn -0.2720 -0.4986 -0.8231
vn -0.0978 -0.8733 -0.4773
vn -0.4499 -0.8883 0.0923
vn -0.0247 -0.9997 -0.0001
vn -0.3089 -0.9423 -0.1294
vn 0.0124 -0.9999 0.0074
vn 0.0000 -1.0000 -0.0035
vn 0.9867 -0.1254 -0.1037
vn 0.7033 -0.7103 0.0282
vn 0.0810 -0.9966 -0.0164
vn -0.4596 -0.8857 0.0654
vn 0.6428 -0.2408 -0.7272
vn 0.9035 -0.1425 -0.4043
vn 0.9503 -0.3114 0.0019
vn 0.7380 -0.6736 0.0404
vn 0.5301 -0.8479 -0.0109
vn -0.0912 -0.4815 -0.8717
vn 0.4803 -0.7677 -0.4241
vn 0.1979 -0.8219 -0.5341
vn 0.9557 -0.1570 -0.2490
vn 0.7982 -0.3439 -0.4945
vn 0.5604 0.4397 -0.7019
vn 0.5591 0.0074 -0.8291
vn 0.1626 -0.0903 -0.9826
vn -0.1542 0.4428 -0.8832
vn 0.0057 0.6095 -0.7928
vn -0.4650 -0.3928 -0.7934
vn -0.7292 -0.5497 -0.4075
vn -0.9628 -0.2545 -0.0911
vn -0.8043 0.4412 -0.3982
vn -0.7753 0.5698 -0.2724
vn -0.5544 0.3171 -0.7695
vn -0.2112 0.8874 -0.4098
vn -0.0773 0.9724 -0.2200
vn 0.2118 0.9596 -0.1852
vn 0.8209 0.5222 -0.2311
vn 0.7494 0.5760 -0.3265
vn -0.0002 0.0003 -1.0000
vn -0.3089 -0.9510 -0.0120
vn -0.4530 -0.8912 0.0228
vn -0.8501 -0.5265 0.0066
vn -0.9666 -0.2556 -0.0185
vn -0.9829 -0.1840 -0.0091
vn -0.9786 0.2054 0.0087
vn -0.8056 0.5923 -0.0118
vn -0.8487 0.5289 -0.0044
vn -0.4391 0.8980 0.0272
vn -0.2447 0.9696 -0.0082
vn 0.2365 0.9713 -0.0275
s off
f 4//1 3//1 5//1
f 3//2 7//2 5//2
f 5//3 7//3 8//3
f 8//4 7//4 10//4
f 1//5 10//5 7//5
f 12//6 13//6 6//6
f 13//7 12//7 14//7
f 13//8 4//8 6//8
f 13//9 3//9 4//9
f 6//10 5//10 15//10
f 6//11 15//11 12//11
f 8//12 17//12 15//12
f 11//13 7//13 3//13
f 12//14 11//14 14//14
f 14//15 11//15 3//15
f 15//16 5//16 8//16
f 17//17 12//17 16//17
f 15//18 17//18 16//18
f 22//19 23//19 24//19
f 25//20 20//20 22//20
f 26//21 18//21 1//21
f 1//22 18//22 19//22
f 1//23 19//23 20//23
f 25//24 10//24 20//24
f 1//25 20//25 10//25
f 10//26 25//26 24//26
f 27//27 10//27 24//27
f 10//28 27//28 8//28
f 2//29 11//29 9//29
f 17//30 9//30 11//30
f 12//31 17//31 11//31
f 32//32 30//32 33//32
f 23//33 21//33 32//33
f 21//34 34//34 32//34
f 34//35 30//35 32//35
f 23//36 18//36 21//36
f 23//37 20//37 18//37
f 33//38 24//38 23//38
f 35//39 24//39 36//39
f 36//40 24//40 33//40
f 33//41 30//41 36//41
f 21//42 18//42 28//42
f 40//43 41//43 39//43
f 26//44 28//44 18//44
f 28//45 27//45 31//45
f 30//46 31//46 27//46
f 31//47 34//47 28//47
f 24//48 35//48 27//48
f 35//49 30//49 27//49
f 17//50 8//50 27//50
f 37//51 17//51 27//51
f 37//52 27//52 28//52
f 29//53 37//53 28//53
f 37//54 29//54 40//54
f 38//55 39//55 42//55
f 38//56 37//56 40//56
f 38//57 40//57 39//57
f 17//58 37//58 48//58
f 48//59 37//59 38//59
f 48//60 50//60 49//60
f 38//61 50//61 48//61
f 50//62 38//62 42//62
f 51//63 50//63 42//63
f 51//64 49//64 50//64
f 52//65 42//65 39//65
f 41//66 52//66 39//66
f 41//67 47//67 52//67
f 47//68 51//68 52//68
f 51//69 47//69 53//69
f 52//70 51//70 42//70
f 53//71 54//71 49//71
f 53//72 49//72 51//72
f 54//73 9//73 49//73
f 9//74 17//74 48//74
f 9//75 48//75 49//75
f 55//76 54//76 53//76
f 40//77 29//77 41//77
f 56//78 41//78 29//78
f 46//79 41//79 56//79
f 41//80 46//80 47//80
f 45//81 47//81 46//81
f 45//82 44//82 47//82
f 43//83 53//83 47//83
f 44//84 43//84 47//84
f 43//85 2//85 53//85
f 2//86 55//86 53//86
f 9//87 55//87 2//87
