# Blender v2.80 (sub 75) OBJ File: 'field.blend'
# www.blender.org
v -1.698636 -0.178576 -7.445479
v -1.972948 5.469795 -6.960270
v -14.622109 -0.181375 -7.363172
v -20.271978 -0.189991 -7.290453
v -20.946041 3.655315 -6.615943
v 4.458532 -0.187221 -7.327513
v 21.290068 -0.296695 -5.998854
v 19.801254 2.161143 -5.342849
v -10.974898 3.810094 -6.895419
v 8.894790 -0.213928 -6.976075
v 11.227516 1.780638 -6.342144
v 6.768974 7.668660 -6.165428
v -14.446291 4.786264 -6.541480
v 23.248966 5.726486 -4.319583
v 20.078405 6.415868 -4.306212
v -22.265490 5.872796 -5.965369
v -7.022818 6.920407 -6.496874
v 12.688629 7.450406 -5.061417
v 15.540852 3.425245 -5.389521
v -20.835773 7.130087 -5.505757
v -13.439365 6.406832 -6.112196
v 2.206697 6.575549 -6.763482
v -2.074800 6.919737 -6.728753
v 15.569492 9.052190 -4.230680
v 19.765430 8.665864 -3.929912
v -20.730574 8.602701 -4.825039
v -10.220016 7.545315 -5.991142
v -1.031842 8.354014 -6.424665
v -10.421278 8.449639 -5.568200
v -3.550589 9.377109 -5.896036
v 3.673157 9.544717 -5.994862
v 7.237736 8.833711 -5.816892
v 13.253155 9.876376 -4.330458
v -17.250929 11.919798 -2.987078
v -21.790295 11.753746 -3.220951
v -15.336165 8.630316 -4.978817
v -3.973583 10.947579 -4.968032
v 7.210876 10.504644 -5.198232
v 23.993811 11.963470 -3.045283
v -11.296312 10.510509 -4.249898
v -12.473923 12.886984 -2.606564
v -0.142417 10.146701 -5.753777
v 4.908451 11.503165 -4.904507
v 19.959791 11.331784 -3.212514
v -9.004326 12.914091 -2.925384
v 11.294346 12.434576 -3.438243
v 13.356972 10.907668 -3.909442
v 14.210117 12.521914 -3.008036
v -0.541523 12.179204 -4.413564
v -2.582183 14.544875 -2.366584
v -12.100664 14.441860 -1.741687
v 18.166323 12.013436 -3.003395
v 13.004528 15.603181 -1.361563
v 17.879757 15.822304 -1.271716
v 21.666967 16.031208 -1.403436
v -21.877277 16.481630 -1.335236
v 9.846220 14.538847 -2.204175
v 5.878382 15.228935 -1.984781
v -5.590950 15.496328 -1.518145
v -9.084997 16.961222 -0.658930
v 1.180411 15.124852 -2.098448
v -0.700282 16.741587 -1.045098
v 4.613430 16.734383 -1.117310
v -15.291276 15.095123 -1.414295
v -17.777563 16.127245 -1.109921
v 12.681839 17.022255 -0.809702
v 18.432756 17.385311 -0.811553
v 22.158381 18.197433 -0.886224
v -17.982607 18.259544 -0.528553
v -23.633892 18.026716 -1.162624
v -10.903825 18.239134 -0.256767
v 3.234463 17.942699 -0.621947
v 5.113578 19.175680 -0.293210
v 14.092123 18.945116 -0.381785
v -19.069742 19.880928 -0.392612
v -13.319576 19.809984 -0.037671
v -6.815372 19.726927 -0.014320
v 15.283043 20.803764 -0.218385
v 9.222221 20.770273 -0.081409
v 21.511806 21.150755 -0.612640
v -16.360859 21.772028 -0.126340
v -21.781992 21.640062 -0.656740
v -10.681168 21.014772 0.109093
v 3.291492 22.468142 0.067527
v 21.061447 22.836630 -0.640231
v -19.978239 23.120270 -0.599775
v -10.872678 23.310743 0.021367
v 12.816780 23.211546 -0.133277
v 15.153069 -0.271437 -6.318672
v 3.506186 12.282474 -4.400804
v 24.258549 23.857407 -1.228239
v 24.258549 21.615641 -0.966228
v 24.258549 21.010332 -0.936834
v 24.258549 19.650599 -1.028687
v 24.258549 17.769073 -1.199465
v 24.258549 16.830542 -1.443992
v 24.258549 13.799066 -2.379627
v 24.258549 6.694396 -4.156418
v 24.258549 5.733280 -4.321975
v 24.258551 11.996361 -3.048234
v 24.258549 11.519122 -3.148366
v 24.258549 7.829633 -3.996354
v 24.258549 3.585284 -4.893819
v 24.258549 0.419872 -5.762259
v 24.258499 -0.295540 -5.958980
v -24.258549 23.324905 -1.319356
v -24.258549 22.858130 -1.227750
v -24.258549 19.936815 -1.069196
v -24.258549 20.742212 -1.027513
v -24.258549 22.220293 -1.131047
v -24.258549 17.803596 -1.302710
v -24.258549 18.460802 -1.204810
v -24.258549 12.001621 -3.320791
v -24.258549 13.192758 -2.834829
v -24.258549 14.242481 -2.423699
v -24.258549 16.771862 -1.571765
v -24.258549 9.778944 -4.321513
v -24.258549 8.263086 -5.108687
v -24.258549 7.698245 -5.368327
v -24.258549 6.921976 -5.636854
v -24.258549 4.854587 -6.268236
v -24.258549 1.323790 -7.016908
v -24.258499 -0.191262 -7.282093
v -24.258549 3.715373 -6.603543
v -5.364037 24.258551 -0.088849
v -12.245090 24.258551 -0.166165
v -16.292877 24.258551 -0.429716
v -16.762417 24.258551 -0.458637
v -16.997326 24.258551 -0.478900
v -20.426899 24.258551 -0.894383
v -20.894268 24.258551 -0.968570
v -24.258499 24.258551 -1.539910
v 24.258520 24.258532 -1.281321
v 22.392750 24.258551 -1.016993
v 18.397154 24.258551 -0.617645
v 13.678316 24.258551 -0.303316
v 13.309444 24.258551 -0.278827
v 7.253951 24.258551 -0.105324
v 6.852992 24.258551 -0.098758
v 5.985577 24.258551 -0.097001
vn 0.0064 -0.0853 0.9963
vn -0.0031 -0.1743 0.9847
vn -0.0012 -0.1730 0.9849
vn 0.0028 -0.1734 0.9848
vn -0.0192 -0.0865 0.9961
vn -0.0128 -0.2651 0.9641
vn 0.0129 -0.1706 0.9853
vn 0.0075 -0.1700 0.9854
vn 0.0106 -0.1656 0.9861
vn 0.0342 -0.1471 0.9885
vn 0.0311 -0.1467 0.9887
vn 0.0354 -0.1503 0.9880
vn -0.1463 -0.1402 0.9793
vn 0.0309 -0.2416 0.9699
vn -0.0467 -0.2336 0.9712
vn 0.0423 -0.1809 0.9826
vn 0.0410 -0.1906 0.9808
vn 0.0477 -0.1863 0.9813
vn -0.1867 -0.1704 0.9675
vn -0.1453 -0.1822 0.9725
vn 0.0184 -0.3617 0.9321
vn 0.0811 -0.3020 0.9498
vn -0.0047 -0.1580 0.9874
vn -0.0163 -0.3269 0.9449
vn -0.1684 -0.1980 0.9656
vn -0.0865 -0.1760 0.9806
vn 0.0331 -0.4213 0.9063
vn 0.0831 -0.3347 0.9387
vn -0.0083 -0.2016 0.9794
vn -0.0262 -0.1396 0.9899
vn -0.0328 -0.4174 0.9081
vn 0.0635 -0.4112 0.9093
vn 0.0663 -0.3244 0.9436
vn -0.0287 -0.2372 0.9710
vn -0.0978 -0.2489 0.9636
vn -0.1867 -0.2119 0.9593
vn -0.1328 -0.2575 0.9571
vn -0.0294 -0.4605 0.8872
vn -0.0288 -0.4612 0.8868
vn 0.0284 -0.5034 0.8636
vn 0.0243 -0.5077 0.8612
vn 0.0272 -0.5061 0.8620
vn 0.1068 -0.4843 0.8683
vn -0.1685 -0.3446 0.9235
vn 0.0966 -0.5333 0.8404
vn 0.0750 -0.4923 0.8672
vn -0.0797 -0.4460 0.8915
vn 0.0007 -0.2599 0.9656
vn 0.0332 -0.5035 0.8634
vn 0.0338 -0.5063 0.8617
vn 0.0365 -0.5029 0.8636
vn 0.1139 -0.5606 0.8202
vn -0.1181 -0.5210 0.8453
vn -0.1186 -0.4356 0.8923
vn 0.0872 -0.6050 0.7915
vn 0.0859 -0.6085 0.7889
vn 0.0867 -0.6049 0.7916
vn 0.0302 -0.4914 0.8704
vn -0.0654 -0.4893 0.8697
vn -0.0640 -0.4897 0.8696
vn -0.0629 -0.4889 0.8701
vn 0.0030 -0.4137 0.9104
vn 0.0033 -0.4136 0.9104
vn 0.0026 -0.4135 0.9105
vn -0.0459 -0.5327 0.8450
vn -0.0468 -0.5302 0.8466
vn -0.0481 -0.5352 0.8433
vn 0.0014 -0.4140 0.9103
vn 0.0020 -0.4140 0.9103
vn 0.0018 -0.4138 0.9104
vn 0.0394 -0.4340 0.9001
vn 0.0459 -0.5073 0.8606
vn -0.0455 -0.5308 0.8463
vn -0.0466 -0.5252 0.8497
vn -0.0465 -0.5277 0.8481
vn -0.0181 -0.3227 0.9463
vn -0.0184 -0.3225 0.9464
vn -0.0224 -0.3668 0.9300
vn 0.0185 -0.2884 0.9573
vn 0.0496 -0.2982 0.9532
vn -0.0997 -0.2217 0.9700
vn -0.0377 -0.2662 0.9632
vn 0.0121 -0.3674 0.9300
vn -0.0207 -0.3994 0.9166
vn 0.0199 -0.2858 0.9581
vn 0.0185 -0.2803 0.9597
vn 0.0152 -0.2905 0.9567
vn 0.0109 -0.2192 0.9756
vn 0.0001 -0.2145 0.9767
vn 0.0040 -0.2200 0.9755
vn 0.0147 -0.2274 0.9737
vn 0.0079 -0.2286 0.9735
vn 0.0186 -0.2331 0.9723
vn -0.1297 -0.0907 0.9874
vn -0.0627 -0.1250 0.9902
vn -0.0054 -0.1463 0.9892
vn 0.0138 -0.1976 0.9802
vn 0.0509 -0.1198 0.9915
vn 0.0060 -0.1468 0.9891
vn -0.0974 -0.0007 0.9952
vn -0.0446 -0.0240 0.9987
vn 0.0091 -0.0768 0.9970
vn 0.0095 -0.0625 0.9980
vn 0.0087 -0.0695 0.9975
vn 0.0084 -0.0640 0.9979
vn 0.0089 -0.0566 0.9984
vn 0.0085 -0.0496 0.9987
vn -0.1524 0.1481 0.9771
vn -0.0990 0.0825 0.9917
vn -0.0610 0.1225 0.9906
vn -0.0111 0.1787 0.9838
vn 0.0659 0.1069 0.9921
vn -0.1043 -0.1884 0.9765
vn -0.0510 -0.2863 0.9568
vn 0.0330 -0.1447 0.9889
vn 0.0293 -0.1402 0.9897
vn 0.0300 -0.1433 0.9892
vn -0.0229 -0.0907 0.9956
vn -0.0792 -0.1090 0.9909
vn -0.1257 -0.2294 0.9652
vn -0.0804 -0.2350 0.9687
vn -0.0806 -0.2372 0.9681
vn -0.0787 -0.2338 0.9691
vn -0.0126 -0.2646 0.9643
vn -0.0793 -0.2291 0.9702
vn -0.0810 -0.2323 0.9693
vn -0.0792 -0.2311 0.9697
vn 0.0346 -0.2623 0.9644
vn 0.0506 -0.2850 0.9572
vn -0.1106 -0.2962 0.9487
vn -0.0987 -0.1281 0.9868
vn -0.1007 -0.2002 0.9746
vn 0.0279 -0.4350 0.9000
vn 0.1007 -0.3823 0.9185
vn 0.0454 -0.2387 0.9700
vn 0.0942 -0.4045 0.9097
vn 0.0927 -0.3582 0.9290
vn -0.0763 -0.2144 0.9738
vn 0.0447 -0.3695 0.9281
vn 0.0036 -0.3521 0.9360
vn -0.1931 -0.2416 0.9510
vn -0.0923 -0.2525 0.9632
vn -0.0698 -0.1740 0.9823
vn 0.0838 -0.5115 0.8552
vn 0.1140 -0.5005 0.8582
vn -0.1156 -0.3465 0.9309
vn -0.0197 -0.4768 0.8788
vn -0.1691 -0.3579 0.9183
vn -0.1686 -0.3587 0.9181
vn 0.0114 -0.5489 0.8358
vn -0.0286 -0.3612 0.9320
vn 0.0812 -0.5393 0.8382
vn 0.0588 -0.5415 0.8387
vn 0.0578 -0.5356 0.8425
vn 0.0632 -0.5381 0.8405
vn 0.0569 -0.5305 0.8458
vn -0.1511 -0.4722 0.8685
vn 0.0875 -0.6013 0.7942
vn 0.0853 -0.5981 0.7969
vn 0.0899 -0.5981 0.7964
vn -0.0604 -0.4621 0.8848
vn -0.0309 -0.4283 0.9031
vn 0.0045 -0.2825 0.9593
vn -0.0518 -0.3952 0.9171
vn 0.0010 -0.4443 0.8959
vn -0.0525 -0.6152 0.7866
vn -0.0561 -0.6066 0.7930
vn -0.0560 -0.6112 0.7895
vn 0.0659 -0.5473 0.8343
vn 0.0648 -0.5422 0.8378
vn 0.0593 -0.5401 0.8395
vn 0.0424 -0.6326 0.7733
vn 0.0134 -0.6227 0.7823
vn -0.0048 -0.6318 0.7751
vn 0.0617 0.0313 0.9976
vn 0.0606 0.0279 0.9978
vn 0.0627 0.0289 0.9976
vn -0.1078 -0.5571 0.8234
vn -0.1089 -0.5581 0.8226
vn -0.1060 -0.5571 0.8236
vn -0.1064 -0.5551 0.8249
vn -0.1050 -0.5559 0.8246
vn -0.1038 -0.5549 0.8254
vn 0.0512 -0.3492 0.9357
vn 0.0530 -0.3479 0.9360
vn 0.0518 -0.3482 0.9360
vn -0.0666 -0.4904 0.8690
vn -0.0676 -0.4912 0.8684
vn -0.0652 -0.4905 0.8690
vn 0.0356 -0.6001 0.7991
vn 0.0107 -0.4056 0.9140
vn 0.0292 -0.4530 0.8910
vn 0.0107 -0.5371 0.8435
vn -0.0097 -0.5053 0.8629
vn -0.0009 -0.3626 0.9319
vn 0.0462 -0.1543 0.9869
vn 0.0733 -0.2473 0.9662
vn -0.0760 -0.2691 0.9601
vn -0.0181 -0.3234 0.9461
vn -0.0181 -0.3231 0.9462
vn 0.0308 -0.4203 0.9069
vn 0.0197 -0.2827 0.9590
vn 0.0181 -0.2706 0.9625
vn 0.0183 -0.2763 0.9609
vn -0.0051 -0.2503 0.9682
vn 0.0493 -0.1354 0.9896
vn -0.1040 -0.1521 0.9829
vn -0.0382 -0.1954 0.9800
vn 0.0152 -0.1700 0.9853
vn 0.0230 -0.1022 0.9945
vn 0.0673 -0.0774 0.9947
vn -0.0622 -0.0513 0.9967
vn -0.0050 -0.1102 0.9939
vn 0.0226 -0.0086 0.9997
vn 0.0217 -0.0064 0.9997
vn 0.0232 -0.0066 0.9997
vn -0.0367 0.0351 0.9987
vn -0.0010 0.0381 0.9993
vn 0.0224 -0.0103 0.9997
vn 0.0221 -0.0127 0.9997
vn 0.0223 -0.0106 0.9997
vn -0.0853 0.1184 0.9893
vn 0.0020 0.0885 0.9961
vn 0.0163 0.0602 0.9981
vn -0.1177 0.2051 0.9716
vn 0.0284 0.1245 0.9918
vn 0.0661 0.1081 0.9919
vn 0.0980 0.1681 0.9809
vn -0.1661 -0.3583 0.9187
vn -0.1670 -0.3582 0.9186
vn 0.0031 -0.5389 0.8424
vn 0.0831 -0.4996 0.8623
vn -0.0592 -0.6078 0.7918
vn -0.0609 -0.6031 0.7953
vn -0.0645 -0.5994 0.7979
vn 0.0638 0.0334 0.9974
vn 0.0613 0.0327 0.9976
vn 0.0621 0.0305 0.9976
vn 0.0451 -0.1819 0.9823
vn 0.0461 -0.1723 0.9840
vn 0.0396 -0.1763 0.9835
vn 0.1290 -0.0896 0.9876
vn 0.0035 -0.2240 0.9746
vn 0.0035 -0.1698 0.9855
vn 0.1136 -0.0670 0.9913
vn 0.1391 0.1299 0.9817
vn 0.0536 -0.3472 0.9362
vn 0.0524 -0.3470 0.9364
vn 0.0538 -0.3471 0.9363
vn 0.0364 -0.2052 0.9780
vn 0.0362 -0.2050 0.9781
vn 0.1195 0.0482 0.9917
vn 0.0040 -0.2573 0.9663
vn 0.0925 -0.2510 0.9635
vn 0.1053 -0.2933 0.9502
vn 0.1441 0.1149 0.9829
vn -0.1259 -0.2503 0.9599
vn -0.0824 -0.3634 0.9280
vn -0.0270 -0.4607 0.8872
vn -0.0279 -0.4608 0.8871
vn -0.1319 -0.3164 0.9394
vn -0.0779 -0.4093 0.9091
vn -0.1721 0.0688 0.9827
vn -0.1297 -0.0512 0.9902
vn -0.0752 -0.3767 0.9233
vn 0.0039 -0.2921 0.9564
vn -0.0033 -0.1717 0.9851
vn 0.0029 -0.1728 0.9850
vn 0.0026 -0.1653 0.9862
vn 0.0019 -0.2845 0.9587
vn -0.0015 -0.2824 0.9593
vn -0.1668 -0.1453 0.9752
vn -0.1539 0.1903 0.9696
vn -0.1631 0.2268 0.9602
vn 0.0007 0.1114 0.9938
vn -0.0646 0.1028 0.9926
vn -0.0034 -0.1721 0.9851
vn -0.0002 -0.1675 0.9859
vn 0.0013 -0.1756 0.9845
vn 0.0541 -0.3462 0.9366
vn 0.0526 -0.3478 0.9361
vn -0.0277 -0.4611 0.8869
vn -0.0008 -0.2863 0.9582
s off
f 1//1 2//1 3//1
f 4//2 122//3 123//4
f 1//5 6//5 2//5
f 7//6 104//6 8//6
f 3//7 5//8 4//9
f 2//10 9//11 3//12
f 10//13 11//13 12//13
f 9//14 13//14 5//14
f 8//15 14//15 15//15
f 9//16 17//17 13//18
f 11//19 18//19 12//19
f 11//20 19//20 18//20
f 13//21 20//21 16//21
f 17//22 21//22 13//22
f 2//23 22//23 23//23
f 16//24 119//24 120//24
f 18//25 19//25 24//25
f 15//26 25//26 24//26
f 21//27 26//27 20//27
f 17//28 27//28 21//28
f 23//29 22//29 28//29
f 14//30 102//30 15//30
f 20//31 118//31 119//31
f 17//32 29//32 27//32
f 28//33 30//33 17//33
f 22//34 31//34 28//34
f 12//35 32//35 31//35
f 12//36 18//36 32//36
f 18//37 24//37 33//37
f 26//38 34//39 35//39
f 36//40 34//41 26//42
f 30//43 37//43 29//43
f 32//44 33//44 38//44
f 40//45 41//45 36//45
f 42//46 37//46 30//46
f 31//47 38//47 43//47
f 25//48 39//48 44//48
f 41//49 34//50 36//51
f 37//52 45//52 40//52
f 38//53 46//53 43//53
f 47//54 48//54 46//54
f 49//55 50//56 45//57
f 41//58 51//58 34//58
f 48//59 52//60 53//61
f 39//62 54//63 52//64
f 57//65 53//66 58//67
f 52//68 54//69 53//70
f 59//71 60//71 51//71
f 61//72 62//72 59//72
f 58//73 53//74 63//75
f 64//76 60//77 65//76
f 53//78 66//78 63//78
f 54//79 67//79 66//79
f 55//80 67//80 54//80
f 56//81 69//81 70//81
f 65//82 71//82 69//82
f 63//83 72//83 62//83
f 63//84 66//84 72//84
f 72//85 73//86 60//87
f 66//88 74//89 73//90
f 67//91 74//92 66//93
f 70//94 108//94 112//94
f 69//95 76//95 75//95
f 71//96 77//96 76//96
f 73//97 77//97 71//97
f 68//98 78//98 74//98
f 74//99 79//99 73//99
f 75//100 81//100 82//100
f 76//101 83//101 81//101
f 79//102 83//103 77//104
f 79//105 84//106 83//107
f 82//108 107//108 110//108
f 82//109 81//109 86//109
f 81//110 127//110 128//110
f 87//111 125//111 126//111
f 136//112 88//112 85//112
f 10//113 89//113 11//113
f 89//114 7//114 8//114
f 3//115 9//116 5//117
f 2//118 6//118 22//118
f 22//119 6//119 10//119
f 11//120 89//120 19//120
f 89//121 8//122 19//123
f 8//124 103//124 14//124
f 19//125 8//126 15//127
f 5//128 13//128 16//128
f 13//129 21//129 20//129
f 47//130 24//130 52//130
f 22//131 10//131 12//131
f 19//132 15//132 24//132
f 21//133 36//133 26//133
f 21//134 27//134 36//134
f 23//135 28//135 17//135
f 27//136 29//136 36//136
f 17//137 30//137 29//137
f 22//138 12//138 31//138
f 28//139 42//139 30//139
f 28//140 31//140 42//140
f 32//141 18//141 33//141
f 24//142 25//142 44//142
f 25//143 15//143 39//143
f 29//144 40//144 36//144
f 29//145 37//145 40//145
f 31//146 32//146 38//146
f 42//147 31//147 43//147
f 38//148 33//148 47//149
f 42//150 90//150 49//150
f 24//151 44//151 52//151
f 40//152 45//152 41//152
f 42//153 49//153 37//153
f 51//154 45//155 59//156
f 38//157 47//157 46//157
f 37//158 49//159 45//160
f 47//161 52//161 48//161
f 35//162 34//162 64//162
f 44//163 39//163 52//163
f 35//164 64//164 65//164
f 34//165 51//165 64//165
f 57//166 90//167 43//168
f 45//169 50//170 59//171
f 50//172 49//172 61//172
f 49//173 90//173 61//173
f 90//174 58//174 61//174
f 78//175 85//176 88//177
f 43//178 46//179 57//180
f 46//181 48//182 57//183
f 39//184 55//185 54//186
f 57//187 48//188 53//189
f 50//190 61//190 59//190
f 51//191 60//191 64//191
f 59//192 62//192 60//192
f 61//193 63//193 62//193
f 61//194 58//194 63//194
f 53//195 54//195 66//195
f 17//196 2//196 23//196
f 55//197 68//197 67//197
f 56//198 65//198 69//198
f 65//199 60//200 71//199
f 62//201 72//201 60//201
f 60//202 73//203 71//204
f 72//205 66//205 73//205
f 67//206 68//206 74//206
f 70//207 69//207 75//207
f 69//208 71//208 76//208
f 73//209 79//209 77//209
f 74//210 78//210 79//210
f 68//211 80//211 78//211
f 75//212 76//212 81//212
f 76//213 77//213 83//213
f 79//214 78//215 84//216
f 81//217 83//217 87//217
f 83//218 84//218 87//218
f 78//219 88//220 84//221
f 81//222 129//222 86//222
f 84//223 140//223 87//223
f 84//224 138//224 139//224
f 86//225 129//225 130//225
f 88//226 137//226 138//226
f 85//227 135//227 136//227
f 85//228 134//228 135//228
f 47//229 33//230 24//230
f 42//231 43//231 90//231
f 51//232 41//232 45//232
f 57//233 58//234 90//235
f 78//236 80//237 85//238
f 17//239 9//240 2//241
f 95//242 94//242 68//242
f 101//243 15//243 102//243
f 99//244 98//244 14//244
f 94//245 80//245 68//245
f 91//246 134//246 85//246
f 97//247 39//248 100//249
f 101//250 100//251 39//250
f 92//252 80//252 93//252
f 103//253 99//253 14//253
f 96//254 68//254 55//254
f 97//255 96//255 55//255
f 92//256 91//256 85//256
f 116//257 70//257 111//257
f 114//258 56//258 115//258
f 117//259 26//260 35//259
f 116//261 115//261 56//261
f 113//262 117//262 35//262
f 110//263 109//263 82//263
f 108//264 82//264 109//264
f 114//265 35//265 65//265
f 120//266 121//266 16//266
f 124//267 122//268 5//269
f 124//270 16//271 121//271
f 112//272 111//272 70//272
f 131//273 107//273 86//273
f 131//274 132//274 106//274
f 140//275 125//275 87//275
f 126//276 127//276 87//276
f 4//277 5//278 122//279
f 7//6 105//6 104//6
f 16//24 20//24 119//24
f 14//30 98//30 102//30
f 20//31 26//31 118//31
f 70//94 75//94 108//94
f 82//108 86//108 107//108
f 81//110 87//110 127//110
f 136//112 137//112 88//112
f 8//124 104//124 103//124
f 81//222 128//222 129//222
f 84//223 139//223 140//223
f 84//224 88//224 138//224
f 101//243 39//243 15//243
f 94//245 93//245 80//245
f 91//246 133//246 134//246
f 97//247 55//280 39//281
f 92//252 85//252 80//252
f 96//254 95//254 68//254
f 116//257 56//257 70//257
f 114//258 65//258 56//258
f 117//259 118//259 26//282
f 108//264 75//264 82//264
f 114//265 113//265 35//265
f 124//283 5//271 16//271
f 86//273 130//273 131//273
f 131//273 106//273 107//273
