# Blender v2.80 (sub 75) OBJ File: 'road.blend'
# www.blender.org
v 3.145690 26.737232 27.482992
v 2.999743 26.699274 27.606613
v 4.443101 26.224319 27.389380
v 4.164914 25.292097 28.641624
v 2.931627 26.471012 27.913237
v 3.212712 27.313953 26.739611
v 3.077308 26.860205 27.349127
v 4.560420 26.781157 26.642370
v 4.572587 26.716738 26.711967
v 3.089475 26.795784 27.418726
v 4.437182 26.262989 27.321484
v 2.208766 24.869013 26.559986
v 2.276865 25.097218 26.253441
v 3.442044 23.690067 27.288416
v 2.422838 25.135191 26.129786
v 3.835688 25.193100 25.299156
v 2.352576 25.272148 26.005915
v 2.487980 25.725897 25.396399
v 2.364744 25.207727 26.075512
v 3.847855 25.128679 25.368755
v 3.712451 24.674931 25.978270
v 3.720230 24.622286 26.036175
vn 0.3290 0.7210 0.6098
vn -0.3290 -0.7210 -0.6098
s 1
f 1//1 2//1 3//1
f 4//1 3//1 5//1
f 6//1 7//1 8//1
f 9//1 10//1 11//1
f 5//1 3//1 2//1
f 12//2 13//2 14//2
f 15//2 14//2 13//2
f 16//2 17//2 18//2
f 19//2 20//2 21//2
f 15//2 22//2 14//2
