# Blender v2.80 (sub 75) OBJ File: 'road.blend'
# www.blender.org
v -46.034855 2.048154 0.000000
v -46.034855 2.948154 0.000000
v -47.434853 2.048154 0.000000
v -47.434853 2.948154 0.000000
v -48.434853 0.048154 0.000000
v -48.034855 0.048154 0.000000
v -48.434853 0.948154 0.000000
v -48.034855 0.948154 0.000000
v -46.434853 1.048124 0.000000
v -45.534855 1.048124 0.000000
v -46.434853 1.948124 0.000000
v -45.534855 1.948124 0.000000
v -46.534855 1.548154 0.000000
v -46.534855 1.948154 0.000000
v -47.434853 1.548154 0.000000
v -47.434853 1.948154 0.000000
v -48.434853 1.041904 0.000000
v -47.534855 1.041904 0.000000
v -48.434853 2.948154 0.000000
v -47.534855 2.948154 0.000000
v -45.934853 2.048154 0.000000
v -45.534855 2.048154 0.000000
v -45.934853 2.948154 0.000000
v -45.534855 2.948154 0.000000
v -46.434853 -0.958097 0.000000
v -45.534855 -0.958097 0.000000
v -46.434853 0.948154 0.000000
v -45.534855 0.948154 0.000000
v -47.434853 0.548154 0.000000
v -46.534855 0.548154 0.000000
v -47.434853 1.448154 0.000000
v -46.534855 1.448154 0.000000
v -48.434853 -0.951846 0.000000
v -48.034855 -0.951846 0.000000
v -48.434853 -0.051846 0.000000
v -48.034855 -0.051846 0.000000
v -48.441105 -1.051846 0.000000
v -48.441105 -1.951846 0.000000
v -46.534855 -1.051846 0.000000
v -46.534855 -1.951846 0.000000
v -47.934853 -0.051846 0.000000
v -47.934853 -0.951846 0.000000
v -46.534855 -0.051846 0.000000
v -46.534855 -0.951846 0.000000
v -46.534855 0.048154 0.000000
v -46.534855 0.448154 0.000000
v -47.434853 0.048154 0.000000
v -47.434853 0.448154 0.000000
v -47.434853 -2.951846 0.000000
v -47.034855 -2.951846 0.000000
v -47.434853 -2.051846 0.000000
v -47.034855 -2.051846 0.000000
v -45.934853 -2.951846 0.000000
v -45.534855 -2.951846 0.000000
v -45.934853 -2.051846 0.000000
v -45.534855 -2.051846 0.000000
v -46.934853 -2.051846 0.000000
v -46.934853 -2.951846 0.000000
v -46.034855 -2.051846 0.000000
v -46.034855 -2.951846 0.000000
v -45.534855 -1.951846 0.000000
v -45.534855 -1.551846 0.000000
v -46.434853 -1.951846 0.000000
v -46.434853 -1.551846 0.000000
v -45.534855 -1.451846 0.000000
v -45.534855 -1.051846 0.000000
v -46.434853 -1.451846 0.000000
v -46.434853 -1.051846 0.000000
v -48.434853 -2.951846 0.000000
v -47.534855 -2.951846 0.000000
v -48.434853 -2.051846 0.000000
v -47.534855 -2.051846 0.000000
v -44.976170 -2.048154 0.000000
v -44.976170 -2.948154 0.000000
v -43.576168 -2.048154 0.000000
v -43.576168 -2.948154 0.000000
v -42.576168 -0.048154 0.000000
v -42.976170 -0.048154 0.000000
v -42.576168 -0.948154 0.000000
v -42.976170 -0.948154 0.000000
v -43.076168 -0.048154 0.000000
v -43.476170 -0.048154 0.000000
v -43.076168 -0.948154 0.000000
v -43.476170 -0.948154 0.000000
v -44.476170 -1.548154 0.000000
v -44.476170 -1.948154 0.000000
v -43.576168 -1.548154 0.000000
v -43.576168 -1.948154 0.000000
v -42.576168 -1.041904 0.000000
v -43.476170 -1.041904 0.000000
v -42.576168 -2.948154 0.000000
v -43.476170 -2.948154 0.000000
v -45.076168 -2.048154 0.000000
v -45.476170 -2.048154 0.000000
v -45.076168 -2.948154 0.000000
v -45.476170 -2.948154 0.000000
v -44.576168 0.958097 0.000000
v -45.476170 0.958096 0.000000
v -44.576168 -0.948154 0.000000
v -45.476170 -0.948154 0.000000
v -42.576168 0.951846 0.000000
v -42.976170 0.951846 0.000000
v -42.576168 0.051846 0.000000
v -42.976170 0.051846 0.000000
v -43.076168 0.051846 0.000000
v -43.076168 0.951846 0.000000
v -44.476170 0.051846 0.000000
v -44.476170 0.951846 0.000000
v -44.476170 -0.048154 0.000000
v -44.476170 -0.448154 0.000000
v -43.576168 -0.048154 0.000000
v -43.576168 -0.448154 0.000000
v -43.576168 2.951846 0.000000
v -43.976170 2.951846 0.000000
v -43.576168 2.051846 0.000000
v -43.976170 2.051846 0.000000
v -45.076168 2.951846 0.000000
v -45.476170 2.951846 0.000000
v -45.076168 2.051846 0.000000
v -45.476170 2.051846 0.000000
v -44.076168 2.051846 0.000000
v -44.076168 2.951846 0.000000
v -44.976170 2.051846 0.000000
v -44.976170 2.951846 0.000000
v -45.476170 1.951846 0.000000
v -45.476170 1.551846 0.000000
v -44.576168 1.951846 0.000000
v -44.576168 1.551846 0.000000
v -45.476170 1.451846 0.000000
v -45.476170 1.051846 0.000000
v -44.576168 1.451846 0.000000
v -44.576168 1.051846 0.000000
v -42.576168 2.951846 0.000000
v -43.476170 2.951846 0.000000
v -42.576168 2.051846 0.000000
v -43.476170 2.051846 0.000000
v -37.507355 -2.445658 0.000000
v -36.607357 -2.445658 0.000000
v -37.507355 -1.045657 0.000000
v -36.607357 -1.045657 0.000000
v -39.507359 -0.045657 0.000000
v -39.507359 -0.445657 0.000000
v -38.607357 -0.045657 0.000000
v -38.607357 -0.445657 0.000000
v -39.507359 -0.545657 0.000000
v -39.507359 -0.945657 0.000000
v -38.607357 -0.545657 0.000000
v -38.607357 -0.945657 0.000000
v -38.507385 -2.045657 0.000000
v -38.507385 -2.945657 0.000000
v -37.607388 -2.045658 0.000000
v -37.607388 -2.945657 0.000000
v -38.513607 -0.045657 0.000000
v -38.513607 -0.945657 0.000000
v -36.607357 -0.045657 0.000000
v -36.607357 -0.945657 0.000000
v -37.507359 -2.545657 0.000000
v -37.507359 -2.945657 0.000000
v -36.607357 -2.545657 0.000000
v -36.607357 -2.945657 0.000000
v -39.007359 -1.045657 0.000000
v -39.007359 -1.945657 0.000000
v -38.107357 -1.045657 0.000000
v -38.107357 -1.945657 0.000000
v -40.607357 -0.039407 0.000000
v -41.507359 -0.039407 0.000000
v -40.607357 -1.945657 0.000000
v -41.507359 -1.945657 0.000000
v -39.607357 -0.545657 0.000000
v -40.507359 -0.545657 0.000000
v -39.607357 -1.945657 0.000000
v -40.507359 -1.945657 0.000000
v -39.507359 -1.945657 0.000000
v -39.107357 -1.945657 0.000000
v -39.507359 -1.045657 0.000000
v -39.107357 -1.045657 0.000000
v -42.507359 -1.045657 0.000000
v -42.507359 -1.445657 0.000000
v -41.607357 -1.045657 0.000000
v -41.607357 -1.445657 0.000000
v -42.507359 -2.545658 0.000000
v -42.507359 -2.945657 0.000000
v -41.607357 -2.545658 0.000000
v -41.607357 -2.945657 0.000000
v -41.607357 -1.545658 0.000000
v -42.507359 -1.545658 0.000000
v -41.607357 -2.445658 0.000000
v -42.507359 -2.445658 0.000000
v -41.507359 -2.945657 0.000000
v -41.107357 -2.945657 0.000000
v -41.507359 -2.045658 0.000000
v -41.107357 -2.045657 0.000000
v -41.007359 -2.945657 0.000000
v -40.607357 -2.945657 0.000000
v -41.007359 -2.045657 0.000000
v -40.607357 -2.045657 0.000000
v -42.507359 -0.045657 0.000000
v -42.507359 -0.945657 0.000000
v -41.607357 -0.045657 0.000000
v -41.607357 -0.945657 0.000000
v -41.603664 2.470658 0.000000
v -42.503666 2.470658 0.000000
v -41.603664 1.070658 0.000000
v -42.503666 1.070658 0.000000
v -39.603664 0.070658 0.000000
v -39.603664 0.470658 0.000000
v -40.503666 0.070658 0.000000
v -40.503666 0.470658 0.000000
v -39.603664 0.570658 0.000000
v -39.603664 0.970658 0.000000
v -40.503666 0.570658 0.000000
v -40.503666 0.970658 0.000000
v -40.603634 2.070658 0.000000
v -40.603634 2.970658 0.000000
v -41.503635 2.070658 0.000000
v -41.503635 2.970658 0.000000
v -41.103664 1.970658 0.000000
v -41.503666 1.970658 0.000000
v -41.103664 1.070658 0.000000
v -41.503666 1.070658 0.000000
v -40.597416 0.070658 0.000000
v -40.597416 0.970658 0.000000
v -42.503666 0.070658 0.000000
v -42.503666 0.970658 0.000000
v -41.603664 2.570658 0.000000
v -41.603664 2.970658 0.000000
v -42.503666 2.570658 0.000000
v -42.503666 2.970658 0.000000
v -40.103664 1.070658 0.000000
v -40.103664 1.970658 0.000000
v -41.003666 1.070658 0.000000
v -41.003666 1.970658 0.000000
v -38.603664 0.070658 0.000000
v -38.603664 0.470658 0.000000
v -39.503666 0.070658 0.000000
v -39.503666 0.470658 0.000000
v -38.503666 0.064408 0.000000
v -37.603664 0.064408 0.000000
v -38.503666 1.970658 0.000000
v -37.603664 1.970658 0.000000
v -39.503666 0.570658 0.000000
v -38.603664 0.570658 0.000000
v -39.503666 1.970658 0.000000
v -38.603664 1.970658 0.000000
v -39.603664 1.970658 0.000000
v -40.003666 1.970658 0.000000
v -39.603664 1.070658 0.000000
v -40.003666 1.070658 0.000000
v -36.603664 1.070658 0.000000
v -36.603664 1.470658 0.000000
v -37.503666 1.070658 0.000000
v -37.503666 1.470658 0.000000
v -36.603664 2.570658 0.000000
v -36.603664 2.970658 0.000000
v -37.503666 2.570658 0.000000
v -37.503666 2.970658 0.000000
v -37.503666 1.570658 0.000000
v -36.603664 1.570658 0.000000
v -37.503666 2.470658 0.000000
v -36.603664 2.470658 0.000000
v -37.603664 2.970658 0.000000
v -38.003666 2.970658 0.000000
v -37.603664 2.070658 0.000000
v -38.003666 2.070658 0.000000
v -38.103664 2.970658 0.000000
v -38.503666 2.970658 0.000000
v -38.103664 2.070658 0.000000
v -38.503666 2.070658 0.000000
v -36.603664 0.070658 0.000000
v -36.603664 0.970658 0.000000
v -37.503666 0.070658 0.000000
v -37.503666 0.970658 0.000000
v -27.076170 -1.998154 0.000000
v -27.076170 -2.898154 0.000000
v -25.676168 -1.998154 0.000000
v -25.676168 -2.898154 0.000000
v -24.676168 0.001846 0.000000
v -25.076168 0.001846 0.000000
v -24.676168 -0.898154 0.000000
v -25.076168 -0.898154 0.000000
v -25.176168 0.001846 0.000000
v -25.576168 0.001846 0.000000
v -25.176168 -0.898154 0.000000
v -25.576168 -0.898154 0.000000
v -26.676168 -0.998123 0.000000
v -27.576168 -0.998123 0.000000
v -26.676168 -1.898123 0.000000
v -27.576168 -1.898123 0.000000
v -26.576168 -1.498154 0.000000
v -26.576168 -1.898153 0.000000
v -25.676168 -1.498154 0.000000
v -25.676168 -1.898153 0.000000
v -24.676168 -0.991904 0.000000
v -25.576168 -0.991904 0.000000
v -24.676168 -2.898154 0.000000
v -25.576168 -2.898154 0.000000
v -27.176168 -1.998154 0.000000
v -27.576168 -1.998154 0.000000
v -27.176168 -2.898154 0.000000
v -27.576168 -2.898154 0.000000
v -25.676168 -0.498154 0.000000
v -26.576168 -0.498154 0.000000
v -25.676168 -1.398154 0.000000
v -26.576168 -1.398154 0.000000
v -24.676168 1.001846 0.000000
v -25.076168 1.001846 0.000000
v -24.676168 0.101846 0.000000
v -25.076168 0.101846 0.000000
v -24.669918 1.101846 0.000000
v -24.669918 2.001847 0.000000
v -26.576168 1.101846 0.000000
v -26.576168 2.001847 0.000000
v -25.176168 0.101846 0.000000
v -25.176168 1.001846 0.000000
v -26.576168 0.101846 0.000000
v -26.576168 1.001846 0.000000
v -26.576168 0.001847 0.000000
v -26.576168 -0.398154 0.000000
v -25.676168 0.001847 0.000000
v -25.676168 -0.398154 0.000000
v -25.676168 3.001846 0.000000
v -26.076168 3.001846 0.000000
v -25.676168 2.101846 0.000000
v -26.076168 2.101846 0.000000
v -27.176168 3.001846 0.000000
v -27.576168 3.001846 0.000000
v -27.176168 2.101846 0.000000
v -27.576168 2.101846 0.000000
v -26.176168 2.101846 0.000000
v -26.176168 3.001846 0.000000
v -27.076170 2.101846 0.000000
v -27.076170 3.001846 0.000000
v -27.576168 2.001846 0.000000
v -27.576168 1.601846 0.000000
v -26.676168 2.001847 0.000000
v -26.676168 1.601846 0.000000
v -27.576168 1.501846 0.000000
v -27.576168 1.101846 0.000000
v -26.676168 1.501846 0.000000
v -26.676168 1.101846 0.000000
v -24.676168 3.001846 0.000000
v -25.576168 3.001846 0.000000
v -24.676168 2.101846 0.000000
v -25.576168 2.101846 0.000000
v -30.534855 0.098154 0.000000
v -30.134853 0.098154 0.000000
v -30.534855 0.998154 0.000000
v -30.134853 0.998154 0.000000
v -30.034853 0.098154 0.000000
v -29.634853 0.098154 0.000000
v -30.034853 0.998154 0.000000
v -29.634853 0.998154 0.000000
v -28.534855 1.098124 0.000000
v -27.634853 1.098124 0.000000
v -28.534855 1.998124 0.000000
v -27.634853 1.998124 0.000000
v -28.634853 1.598154 0.000000
v -28.634853 1.998154 0.000000
v -29.534853 1.598154 0.000000
v -29.534853 1.998154 0.000000
v -30.534855 1.091904 0.000000
v -29.634853 1.091904 0.000000
v -30.534853 2.998154 0.000000
v -29.634853 2.998154 0.000000
v -28.034853 2.098154 0.000000
v -27.634853 2.098154 0.000000
v -28.034853 2.998154 0.000000
v -27.634853 2.998154 0.000000
v -28.534855 -0.908096 0.000000
v -27.634853 -0.908096 0.000000
v -28.534855 0.998154 0.000000
v -27.634853 0.998154 0.000000
v -29.534853 0.598154 0.000000
v -28.634853 0.598154 0.000000
v -29.534853 1.498154 0.000000
v -28.634853 1.498154 0.000000
v -30.534855 -0.901846 0.000000
v -30.134853 -0.901846 0.000000
v -30.534855 -0.001846 0.000000
v -30.134853 -0.001846 0.000000
v -30.034853 -0.001846 0.000000
v -30.034853 -0.901846 0.000000
v -28.634853 -0.001846 0.000000
v -28.634853 -0.901846 0.000000
v -28.634853 0.098154 0.000000
v -28.634853 0.498154 0.000000
v -29.534853 0.098154 0.000000
v -29.534853 0.498154 0.000000
v -29.534855 -2.901845 0.000000
v -29.134853 -2.901845 0.000000
v -29.534855 -2.001845 0.000000
v -29.134853 -2.001845 0.000000
v -28.034853 -2.901845 0.000000
v -27.634853 -2.901845 0.000000
v -28.034853 -2.001845 0.000000
v -27.634853 -2.001845 0.000000
v -29.034853 -2.001845 0.000000
v -29.034853 -2.901845 0.000000
v -28.134853 -2.001845 0.000000
v -28.134853 -2.901845 0.000000
v -27.634853 -1.901846 0.000000
v -27.634853 -1.501846 0.000000
v -28.534855 -1.901846 0.000000
v -28.534855 -1.501846 0.000000
v -27.634853 -1.401846 0.000000
v -27.634853 -1.001846 0.000000
v -28.534855 -1.401846 0.000000
v -28.534855 -1.001846 0.000000
v -30.534855 -2.901846 0.000000
v -29.634853 -2.901845 0.000000
v -30.534855 -2.001846 0.000000
v -29.634853 -2.001845 0.000000
v -33.603668 0.095657 0.000000
v -33.603668 0.495658 0.000000
v -34.503666 0.095657 0.000000
v -34.503666 0.495658 0.000000
v -33.603668 0.595658 0.000000
v -33.603668 0.995658 0.000000
v -34.503666 0.595658 0.000000
v -34.503666 0.995658 0.000000
v -34.603638 2.095658 0.000000
v -34.603638 2.995658 0.000000
v -35.503635 2.095658 0.000000
v -35.503635 2.995658 0.000000
v -35.103664 1.995658 0.000000
v -35.503666 1.995658 0.000000
v -35.103664 1.095658 0.000000
v -35.503666 1.095658 0.000000
v -34.597416 0.095658 0.000000
v -34.597416 0.995658 0.000000
v -36.503666 0.095658 0.000000
v -36.503666 0.995658 0.000000
v -35.603664 2.595658 0.000000
v -35.603664 2.995658 0.000000
v -36.503666 2.595658 0.000000
v -36.503666 2.995658 0.000000
v -32.597416 2.095657 0.000000
v -32.597416 2.995657 0.000000
v -34.503666 2.095658 0.000000
v -34.503666 2.995658 0.000000
v -34.103664 1.095658 0.000000
v -34.103664 1.995658 0.000000
v -35.003666 1.095658 0.000000
v -35.003666 1.995658 0.000000
v -32.603664 0.095658 0.000000
v -32.603664 0.495658 0.000000
v -33.503666 0.095657 0.000000
v -33.503666 0.495658 0.000000
v -32.503666 0.089407 0.000000
v -31.603664 0.089407 0.000000
v -32.503666 1.995657 0.000000
v -31.603664 1.995657 0.000000
v -33.603664 1.995658 0.000000
v -34.003666 1.995658 0.000000
v -33.603664 1.095658 0.000000
v -34.003666 1.095658 0.000000
v -30.603664 1.095657 0.000000
v -30.603664 1.495657 0.000000
v -31.503666 1.095658 0.000000
v -31.503666 1.495657 0.000000
v -30.603664 2.595658 0.000000
v -30.603664 2.995657 0.000000
v -31.503666 2.595658 0.000000
v -31.503666 2.995657 0.000000
v -31.503666 1.595658 0.000000
v -30.603664 1.595658 0.000000
v -31.503666 2.495658 0.000000
v -30.603664 2.495658 0.000000
v -31.603664 2.995657 0.000000
v -32.003666 2.995657 0.000000
v -31.603664 2.095657 0.000000
v -32.003666 2.095657 0.000000
v -32.103664 2.995657 0.000000
v -32.503666 2.995657 0.000000
v -32.103664 2.095657 0.000000
v -32.503666 2.095657 0.000000
v -30.603664 0.095658 0.000000
v -30.603664 0.995658 0.000000
v -31.503666 0.095658 0.000000
v -31.503666 0.995658 0.000000
v -31.507357 -2.420658 0.000000
v -30.607357 -2.420658 0.000000
v -31.507359 -1.020657 0.000000
v -30.607357 -1.020657 0.000000
v -33.507359 -0.020658 0.000000
v -33.507359 -0.420657 0.000000
v -32.607357 -0.020657 0.000000
v -32.607357 -0.420657 0.000000
v -33.507359 -0.520658 0.000000
v -33.507359 -0.920657 0.000000
v -32.607357 -0.520657 0.000000
v -32.607357 -0.920657 0.000000
v -32.507389 -2.020658 0.000000
v -32.507389 -2.920658 0.000000
v -31.607388 -2.020658 0.000000
v -31.607388 -2.920658 0.000000
v -32.007355 -1.920658 0.000000
v -31.607357 -1.920658 0.000000
v -32.007355 -1.020658 0.000000
v -31.607357 -1.020658 0.000000
v -32.513607 -0.020658 0.000000
v -32.513607 -0.920657 0.000000
v -30.607357 -0.020658 0.000000
v -30.607357 -0.920657 0.000000
v -31.507359 -2.520658 0.000000
v -31.507359 -2.920658 0.000000
v -30.607357 -2.520658 0.000000
v -30.607357 -2.920658 0.000000
v -34.513607 -2.020658 0.000000
v -34.513607 -2.920658 0.000000
v -32.607357 -2.020658 0.000000
v -32.607357 -2.920658 0.000000
v -33.007355 -1.020657 0.000000
v -33.007355 -1.920658 0.000000
v -32.107357 -1.020657 0.000000
v -32.107357 -1.920658 0.000000
v -34.507359 -0.020658 0.000000
v -34.507359 -0.420657 0.000000
v -33.607357 -0.020658 0.000000
v -33.607357 -0.420657 0.000000
v -34.607357 -0.014407 0.000000
v -35.507355 -0.014408 0.000000
v -34.607357 -1.920658 0.000000
v -35.507355 -1.920658 0.000000
v -33.507359 -1.920658 0.000000
v -33.107357 -1.920658 0.000000
v -33.507359 -1.020658 0.000000
v -33.107357 -1.020657 0.000000
v -36.507355 -1.020658 0.000000
v -36.507355 -1.420658 0.000000
v -35.607357 -1.020658 0.000000
v -35.607357 -1.420657 0.000000
v -36.507355 -2.520658 0.000000
v -36.507355 -2.920658 0.000000
v -35.607357 -2.520658 0.000000
v -35.607357 -2.920658 0.000000
v -35.607357 -1.520658 0.000000
v -36.507355 -1.520658 0.000000
v -35.607357 -2.420658 0.000000
v -36.507355 -2.420658 0.000000
v -35.507355 -2.920658 0.000000
v -35.107357 -2.920658 0.000000
v -35.507355 -2.020658 0.000000
v -35.107357 -2.020658 0.000000
v -35.007359 -2.920658 0.000000
v -34.607357 -2.920658 0.000000
v -35.007359 -2.020658 0.000000
v -34.607357 -2.020658 0.000000
v -36.507355 -0.020658 0.000000
v -36.507355 -0.920657 0.000000
v -35.607357 -0.020658 0.000000
v -35.607357 -0.920657 0.000000
vn 0.0000 0.0000 1.0000
s off
f 2//1 3//1 1//1
f 6//1 7//1 5//1
f 10//1 11//1 9//1
f 14//1 15//1 13//1
f 18//1 19//1 17//1
f 22//1 23//1 21//1
f 26//1 27//1 25//1
f 30//1 31//1 29//1
f 34//1 35//1 33//1
f 38//1 39//1 37//1
f 42//1 43//1 41//1
f 46//1 47//1 45//1
f 50//1 51//1 49//1
f 54//1 55//1 53//1
f 58//1 59//1 57//1
f 62//1 63//1 61//1
f 66//1 67//1 65//1
f 70//1 71//1 69//1
f 74//1 75//1 73//1
f 78//1 79//1 77//1
f 82//1 83//1 81//1
f 86//1 87//1 85//1
f 90//1 91//1 89//1
f 94//1 95//1 93//1
f 98//1 99//1 97//1
f 102//1 103//1 101//1
f 106//1 107//1 105//1
f 110//1 111//1 109//1
f 114//1 115//1 113//1
f 118//1 119//1 117//1
f 121//1 124//1 123//1
f 126//1 127//1 125//1
f 130//1 131//1 129//1
f 134//1 135//1 133//1
f 138//1 139//1 137//1
f 142//1 143//1 141//1
f 146//1 147//1 145//1
f 150//1 151//1 149//1
f 154//1 155//1 153//1
f 158//1 159//1 157//1
f 162//1 163//1 161//1
f 166//1 167//1 165//1
f 170//1 171//1 169//1
f 174//1 175//1 173//1
f 178//1 179//1 177//1
f 182//1 183//1 181//1
f 186//1 187//1 185//1
f 190//1 191//1 189//1
f 194//1 195//1 193//1
f 198//1 199//1 197//1
f 202//1 203//1 201//1
f 206//1 207//1 205//1
f 210//1 211//1 209//1
f 214//1 215//1 213//1
f 218//1 219//1 217//1
f 222//1 223//1 221//1
f 226//1 227//1 225//1
f 230//1 231//1 229//1
f 234//1 235//1 233//1
f 238//1 239//1 237//1
f 242//1 243//1 241//1
f 246//1 247//1 245//1
f 250//1 251//1 249//1
f 254//1 255//1 253//1
f 258//1 259//1 257//1
f 262//1 263//1 261//1
f 266//1 267//1 265//1
f 270//1 271//1 269//1
f 274//1 275//1 273//1
f 278//1 279//1 277//1
f 282//1 283//1 281//1
f 286//1 287//1 285//1
f 290//1 291//1 289//1
f 294//1 295//1 293//1
f 298//1 299//1 297//1
f 302//1 303//1 301//1
f 306//1 307//1 305//1
f 310//1 311//1 309//1
f 314//1 315//1 313//1
f 318//1 319//1 317//1
f 322//1 323//1 321//1
f 326//1 327//1 325//1
f 330//1 331//1 329//1
f 334//1 335//1 333//1
f 338//1 339//1 337//1
f 342//1 343//1 341//1
f 346//1 347//1 345//1
f 349//1 352//1 351//1
f 354//1 355//1 353//1
f 358//1 359//1 357//1
f 362//1 363//1 361//1
f 366//1 367//1 365//1
f 370//1 371//1 369//1
f 374//1 375//1 373//1
f 378//1 379//1 377//1
f 382//1 383//1 381//1
f 386//1 387//1 385//1
f 390//1 391//1 389//1
f 394//1 395//1 393//1
f 398//1 399//1 397//1
f 402//1 403//1 401//1
f 406//1 407//1 405//1
f 410//1 411//1 409//1
f 414//1 415//1 413//1
f 418//1 419//1 417//1
f 422//1 423//1 421//1
f 426//1 427//1 425//1
f 430//1 431//1 429//1
f 434//1 435//1 433//1
f 438//1 439//1 437//1
f 442//1 443//1 441//1
f 446//1 447//1 445//1
f 450//1 451//1 449//1
f 454//1 455//1 453//1
f 458//1 459//1 457//1
f 462//1 463//1 461//1
f 466//1 467//1 465//1
f 470//1 471//1 469//1
f 474//1 475//1 473//1
f 478//1 479//1 477//1
f 481//1 484//1 483//1
f 486//1 487//1 485//1
f 490//1 491//1 489//1
f 494//1 495//1 493//1
f 498//1 499//1 497//1
f 502//1 503//1 501//1
f 506//1 507//1 505//1
f 510//1 511//1 509//1
f 514//1 515//1 513//1
f 518//1 519//1 517//1
f 522//1 523//1 521//1
f 526//1 527//1 525//1
f 529//1 532//1 531//1
f 534//1 535//1 533//1
f 538//1 539//1 537//1
f 542//1 543//1 541//1
f 546//1 547//1 545//1
f 550//1 551//1 549//1
f 2//1 4//1 3//1
f 6//1 8//1 7//1
f 10//1 12//1 11//1
f 14//1 16//1 15//1
f 18//1 20//1 19//1
f 22//1 24//1 23//1
f 26//1 28//1 27//1
f 30//1 32//1 31//1
f 34//1 36//1 35//1
f 38//1 40//1 39//1
f 42//1 44//1 43//1
f 46//1 48//1 47//1
f 50//1 52//1 51//1
f 54//1 56//1 55//1
f 58//1 60//1 59//1
f 62//1 64//1 63//1
f 66//1 68//1 67//1
f 70//1 72//1 71//1
f 74//1 76//1 75//1
f 78//1 80//1 79//1
f 82//1 84//1 83//1
f 86//1 88//1 87//1
f 90//1 92//1 91//1
f 94//1 96//1 95//1
f 98//1 100//1 99//1
f 102//1 104//1 103//1
f 106//1 108//1 107//1
f 110//1 112//1 111//1
f 114//1 116//1 115//1
f 118//1 120//1 119//1
f 121//1 122//1 124//1
f 126//1 128//1 127//1
f 130//1 132//1 131//1
f 134//1 136//1 135//1
f 138//1 140//1 139//1
f 142//1 144//1 143//1
f 146//1 148//1 147//1
f 150//1 152//1 151//1
f 154//1 156//1 155//1
f 158//1 160//1 159//1
f 162//1 164//1 163//1
f 166//1 168//1 167//1
f 170//1 172//1 171//1
f 174//1 176//1 175//1
f 178//1 180//1 179//1
f 182//1 184//1 183//1
f 186//1 188//1 187//1
f 190//1 192//1 191//1
f 194//1 196//1 195//1
f 198//1 200//1 199//1
f 202//1 204//1 203//1
f 206//1 208//1 207//1
f 210//1 212//1 211//1
f 214//1 216//1 215//1
f 218//1 220//1 219//1
f 222//1 224//1 223//1
f 226//1 228//1 227//1
f 230//1 232//1 231//1
f 234//1 236//1 235//1
f 238//1 240//1 239//1
f 242//1 244//1 243//1
f 246//1 248//1 247//1
f 250//1 252//1 251//1
f 254//1 256//1 255//1
f 258//1 260//1 259//1
f 262//1 264//1 263//1
f 266//1 268//1 267//1
f 270//1 272//1 271//1
f 274//1 276//1 275//1
f 278//1 280//1 279//1
f 282//1 284//1 283//1
f 286//1 288//1 287//1
f 290//1 292//1 291//1
f 294//1 296//1 295//1
f 298//1 300//1 299//1
f 302//1 304//1 303//1
f 306//1 308//1 307//1
f 310//1 312//1 311//1
f 314//1 316//1 315//1
f 318//1 320//1 319//1
f 322//1 324//1 323//1
f 326//1 328//1 327//1
f 330//1 332//1 331//1
f 334//1 336//1 335//1
f 338//1 340//1 339//1
f 342//1 344//1 343//1
f 346//1 348//1 347//1
f 349//1 350//1 352//1
f 354//1 356//1 355//1
f 358//1 360//1 359//1
f 362//1 364//1 363//1
f 366//1 368//1 367//1
f 370//1 372//1 371//1
f 374//1 376//1 375//1
f 378//1 380//1 379//1
f 382//1 384//1 383//1
f 386//1 388//1 387//1
f 390//1 392//1 391//1
f 394//1 396//1 395//1
f 398//1 400//1 399//1
f 402//1 404//1 403//1
f 406//1 408//1 407//1
f 410//1 412//1 411//1
f 414//1 416//1 415//1
f 418//1 420//1 419//1
f 422//1 424//1 423//1
f 426//1 428//1 427//1
f 430//1 432//1 431//1
f 434//1 436//1 435//1
f 438//1 440//1 439//1
f 442//1 444//1 443//1
f 446//1 448//1 447//1
f 450//1 452//1 451//1
f 454//1 456//1 455//1
f 458//1 460//1 459//1
f 462//1 464//1 463//1
f 466//1 468//1 467//1
f 470//1 472//1 471//1
f 474//1 476//1 475//1
f 478//1 480//1 479//1
f 481//1 482//1 484//1
f 486//1 488//1 487//1
f 490//1 492//1 491//1
f 494//1 496//1 495//1
f 498//1 500//1 499//1
f 502//1 504//1 503//1
f 506//1 508//1 507//1
f 510//1 512//1 511//1
f 514//1 516//1 515//1
f 518//1 520//1 519//1
f 522//1 524//1 523//1
f 526//1 528//1 527//1
f 529//1 530//1 532//1
f 534//1 536//1 535//1
f 538//1 540//1 539//1
f 542//1 544//1 543//1
f 546//1 548//1 547//1
f 550//1 552//1 551//1
