# Blender v2.80 (sub 75) OBJ File: 'road.blend'
# www.blender.org
v -22.184855 2.048154 0.000000
v -22.184855 2.948154 0.000000
v -23.584856 2.048154 0.000000
v -23.584856 2.948154 0.000000
v -24.584856 0.048154 0.000000
v -24.184855 0.048154 0.000000
v -24.584856 0.948154 0.000000
v -24.184855 0.948154 0.000000
v -24.084856 0.048154 0.000000
v -23.684855 0.048154 0.000000
v -24.084856 0.948154 0.000000
v -23.684856 0.948154 0.000000
v -22.584856 1.048124 0.000000
v -21.684855 1.048124 0.000000
v -22.584856 1.948124 0.000000
v -21.684856 1.948124 0.000000
v -22.684855 1.548154 0.000000
v -22.684855 1.948154 0.000000
v -23.584856 1.548154 0.000000
v -23.584856 1.948154 0.000000
v -24.584856 1.041904 0.000000
v -23.684855 1.041904 0.000000
v -24.584856 2.948154 0.000000
v -23.684855 2.948154 0.000000
v -22.084856 2.048154 0.000000
v -21.684856 2.048154 0.000000
v -22.084856 2.948154 0.000000
v -21.684856 2.948154 0.000000
v -22.584856 -0.958097 0.000000
v -21.684855 -0.958097 0.000000
v -22.584856 0.948154 0.000000
v -21.684855 0.948154 0.000000
v -24.584856 -0.951846 0.000000
v -24.184855 -0.951846 0.000000
v -24.584856 -0.051846 0.000000
v -24.184855 -0.051846 0.000000
v -24.591106 -1.051846 0.000000
v -24.591106 -1.951846 0.000000
v -22.684855 -1.051846 0.000000
v -22.684855 -1.951846 0.000000
v -24.084856 -0.051846 0.000000
v -24.084856 -0.951846 0.000000
v -22.684856 -0.051846 0.000000
v -22.684855 -0.951846 0.000000
v -22.684855 0.048154 0.000000
v -22.684855 0.448154 0.000000
v -23.584856 0.048154 0.000000
v -23.584856 0.448154 0.000000
v -23.584856 -2.951846 0.000000
v -23.184855 -2.951846 0.000000
v -23.584856 -2.051846 0.000000
v -23.184855 -2.051846 0.000000
v -22.084856 -2.951846 0.000000
v -21.684855 -2.951846 0.000000
v -22.084856 -2.051846 0.000000
v -21.684855 -2.051846 0.000000
v -23.084856 -2.051846 0.000000
v -23.084856 -2.951846 0.000000
v -22.184855 -2.051846 0.000000
v -22.184855 -2.951846 0.000000
v -21.684855 -1.951846 0.000000
v -21.684855 -1.551846 0.000000
v -22.584856 -1.951846 0.000000
v -22.584856 -1.551846 0.000000
v -21.684855 -1.451846 0.000000
v -21.684855 -1.051846 0.000000
v -22.584856 -1.451846 0.000000
v -22.584856 -1.051846 0.000000
v -24.584856 -2.951846 0.000000
v -23.684855 -2.951846 0.000000
v -24.584856 -2.051846 0.000000
v -23.684855 -2.051846 0.000000
v -21.126171 -2.048154 0.000000
v -21.126171 -2.948154 0.000000
v -19.726170 -2.048154 0.000000
v -19.726170 -2.948154 0.000000
v -18.726170 -0.048154 0.000000
v -19.126171 -0.048154 0.000000
v -18.726170 -0.948154 0.000000
v -19.126171 -0.948154 0.000000
v -19.226170 -0.048154 0.000000
v -19.626171 -0.048154 0.000000
v -19.226170 -0.948154 0.000000
v -19.626171 -0.948154 0.000000
v -20.626171 -1.548154 0.000000
v -20.626171 -1.948154 0.000000
v -19.726170 -1.548154 0.000000
v -19.726170 -1.948154 0.000000
v -18.726170 -1.041904 0.000000
v -19.626171 -1.041904 0.000000
v -18.726170 -2.948154 0.000000
v -19.626171 -2.948154 0.000000
v -21.226170 -2.048154 0.000000
v -21.626171 -2.048154 0.000000
v -21.226170 -2.948154 0.000000
v -21.626171 -2.948154 0.000000
v -20.726170 0.958097 0.000000
v -21.626171 0.958096 0.000000
v -20.726170 -0.948154 0.000000
v -21.626171 -0.948154 0.000000
v -19.726170 -0.548154 0.000000
v -20.626171 -0.548154 0.000000
v -19.726170 -1.448154 0.000000
v -20.626171 -1.448154 0.000000
v -18.726170 0.951846 0.000000
v -19.126171 0.951846 0.000000
v -18.726170 0.051846 0.000000
v -19.126171 0.051846 0.000000
v -18.719921 1.051846 0.000000
v -18.719921 1.951846 0.000000
v -20.626171 1.051846 0.000000
v -20.626171 1.951846 0.000000
v -19.226170 0.051846 0.000000
v -19.226170 0.951846 0.000000
v -20.626171 0.051846 0.000000
v -20.626171 0.951846 0.000000
v -20.626171 -0.048154 0.000000
v -20.626171 -0.448154 0.000000
v -19.726170 -0.048154 0.000000
v -19.726170 -0.448154 0.000000
v -21.226170 2.951846 0.000000
v -21.626171 2.951846 0.000000
v -21.226170 2.051846 0.000000
v -21.626171 2.051846 0.000000
v -20.226170 2.051846 0.000000
v -20.226170 2.951846 0.000000
v -21.126171 2.051846 0.000000
v -21.126171 2.951846 0.000000
v -21.626171 1.951846 0.000000
v -21.626171 1.551846 0.000000
v -20.726170 1.951846 0.000000
v -20.726170 1.551846 0.000000
v -21.626171 1.451846 0.000000
v -21.626171 1.051846 0.000000
v -20.726170 1.451846 0.000000
v -20.726170 1.051846 0.000000
v -18.726170 2.951846 0.000000
v -19.626171 2.951846 0.000000
v -18.726170 2.051846 0.000000
v -19.626171 2.051846 0.000000
v -13.657358 -2.445658 0.000000
v -12.757360 -2.445658 0.000000
v -13.657358 -1.045657 0.000000
v -12.757360 -1.045657 0.000000
v -15.657358 -0.045657 0.000000
v -15.657358 -0.445657 0.000000
v -14.757359 -0.045657 0.000000
v -14.757359 -0.445657 0.000000
v -15.657358 -0.545657 0.000000
v -15.657358 -0.945657 0.000000
v -14.757359 -0.545657 0.000000
v -14.757359 -0.945657 0.000000
v -14.657389 -2.045657 0.000000
v -14.657389 -2.945657 0.000000
v -13.757389 -2.045658 0.000000
v -13.757389 -2.945657 0.000000
v -14.157359 -1.945657 0.000000
v -13.757359 -1.945657 0.000000
v -14.157359 -1.045657 0.000000
v -13.757359 -1.045657 0.000000
v -14.663609 -0.045657 0.000000
v -14.663609 -0.945657 0.000000
v -12.757358 -0.045657 0.000000
v -12.757358 -0.945657 0.000000
v -13.657359 -2.545657 0.000000
v -13.657359 -2.945657 0.000000
v -12.757360 -2.545657 0.000000
v -12.757360 -2.945657 0.000000
v -16.663609 -2.045657 0.000000
v -16.663609 -2.945657 0.000000
v -14.757359 -2.045657 0.000000
v -14.757359 -2.945657 0.000000
v -15.157358 -1.045657 0.000000
v -15.157358 -1.945657 0.000000
v -14.257359 -1.045657 0.000000
v -14.257359 -1.945657 0.000000
v -16.657360 -0.045657 0.000000
v -16.657360 -0.445657 0.000000
v -15.757359 -0.045657 0.000000
v -15.757359 -0.445657 0.000000
v -16.757359 -0.039407 0.000000
v -17.657360 -0.039407 0.000000
v -16.757359 -1.945657 0.000000
v -17.657360 -1.945657 0.000000
v -15.657359 -1.945657 0.000000
v -15.257359 -1.945657 0.000000
v -15.657359 -1.045657 0.000000
v -15.257359 -1.045657 0.000000
v -18.657358 -1.045657 0.000000
v -18.657358 -1.445657 0.000000
v -17.757359 -1.045657 0.000000
v -17.757359 -1.445657 0.000000
v -18.657358 -2.545658 0.000000
v -18.657358 -2.945657 0.000000
v -17.757359 -2.545658 0.000000
v -17.757359 -2.945657 0.000000
v -17.757359 -1.545658 0.000000
v -18.657358 -1.545658 0.000000
v -17.757359 -2.445658 0.000000
v -18.657358 -2.445658 0.000000
v -17.657360 -2.945657 0.000000
v -17.257359 -2.945657 0.000000
v -17.657360 -2.045658 0.000000
v -17.257359 -2.045657 0.000000
v -17.157360 -2.945657 0.000000
v -16.757359 -2.945657 0.000000
v -17.157360 -2.045657 0.000000
v -16.757359 -2.045657 0.000000
v -18.657358 -0.045657 0.000000
v -18.657358 -0.945657 0.000000
v -17.757359 -0.045657 0.000000
v -17.757359 -0.945657 0.000000
v -17.753668 2.470658 0.000000
v -18.653667 2.470658 0.000000
v -17.753666 1.070658 0.000000
v -18.653667 1.070658 0.000000
v -15.753668 0.070658 0.000000
v -15.753668 0.470658 0.000000
v -16.653667 0.070658 0.000000
v -16.653667 0.470658 0.000000
v -15.753668 0.570658 0.000000
v -15.753668 0.970658 0.000000
v -16.653667 0.570658 0.000000
v -16.653667 0.970658 0.000000
v -16.753637 2.070658 0.000000
v -16.753637 2.970658 0.000000
v -17.653637 2.070658 0.000000
v -17.653637 2.970658 0.000000
v -17.253666 1.970658 0.000000
v -17.653667 1.970658 0.000000
v -17.253666 1.070658 0.000000
v -17.653667 1.070658 0.000000
v -17.753666 2.570658 0.000000
v -17.753666 2.970658 0.000000
v -18.653667 2.570658 0.000000
v -18.653667 2.970658 0.000000
v -14.747416 2.070658 0.000000
v -14.747416 2.970658 0.000000
v -16.653667 2.070658 0.000000
v -16.653667 2.970658 0.000000
v -16.253666 1.070658 0.000000
v -16.253666 1.970658 0.000000
v -17.153667 1.070658 0.000000
v -17.153667 1.970658 0.000000
v -14.753667 0.070658 0.000000
v -14.753667 0.470658 0.000000
v -15.653667 0.070658 0.000000
v -15.653667 0.470658 0.000000
v -15.653667 0.570658 0.000000
v -14.753667 0.570658 0.000000
v -15.653667 1.970658 0.000000
v -14.753667 1.970658 0.000000
v -15.753666 1.970658 0.000000
v -16.153667 1.970658 0.000000
v -15.753666 1.070658 0.000000
v -16.153667 1.070658 0.000000
v -12.753667 1.070658 0.000000
v -12.753667 1.470658 0.000000
v -13.653667 1.070658 0.000000
v -13.653667 1.470658 0.000000
v -12.753667 2.570658 0.000000
v -12.753667 2.970658 0.000000
v -13.653667 2.570658 0.000000
v -13.653667 2.970658 0.000000
v -13.653667 1.570658 0.000000
v -12.753667 1.570658 0.000000
v -13.653667 2.470658 0.000000
v -12.753667 2.470658 0.000000
v -13.753667 2.970658 0.000000
v -14.153667 2.970658 0.000000
v -13.753667 2.070658 0.000000
v -14.153667 2.070658 0.000000
v -14.253667 2.970658 0.000000
v -14.653667 2.970658 0.000000
v -14.253667 2.070658 0.000000
v -14.653667 2.070658 0.000000
v -12.753667 0.070658 0.000000
v -12.753667 0.970658 0.000000
v -13.653667 0.070658 0.000000
v -13.653667 0.970658 0.000000
v -3.226171 -1.998154 0.000000
v -3.226171 -2.898154 0.000000
v -1.826170 -1.998154 0.000000
v -1.826170 -2.898154 0.000000
v -0.826170 0.001846 0.000000
v -1.226170 0.001846 0.000000
v -0.826170 -0.898154 0.000000
v -1.226170 -0.898154 0.000000
v -1.326170 0.001846 0.000000
v -1.726170 0.001846 0.000000
v -1.326170 -0.898154 0.000000
v -1.726170 -0.898154 0.000000
v -2.826170 -0.998123 0.000000
v -3.726170 -0.998123 0.000000
v -2.826170 -1.898123 0.000000
v -3.726170 -1.898123 0.000000
v -0.826170 -0.991904 0.000000
v -1.726170 -0.991904 0.000000
v -0.826170 -2.898154 0.000000
v -1.726170 -2.898154 0.000000
v -3.326170 -1.998154 0.000000
v -3.726170 -1.998154 0.000000
v -3.326170 -2.898154 0.000000
v -3.726170 -2.898154 0.000000
v -2.826170 1.008097 0.000000
v -3.726170 1.008097 0.000000
v -2.826170 -0.898154 0.000000
v -3.726170 -0.898154 0.000000
v -1.826170 -0.498154 0.000000
v -2.726170 -0.498154 0.000000
v -1.826170 -1.398154 0.000000
v -2.726170 -1.398154 0.000000
v -0.826170 1.001846 0.000000
v -1.226170 1.001846 0.000000
v -0.826170 0.101846 0.000000
v -1.226170 0.101846 0.000000
v -0.819920 1.101846 0.000000
v -0.819920 2.001847 0.000000
v -2.726170 1.101846 0.000000
v -2.726170 2.001847 0.000000
v -1.326170 0.101846 0.000000
v -1.326170 1.001846 0.000000
v -2.726170 0.101846 0.000000
v -2.726170 1.001846 0.000000
v -2.726170 0.001847 0.000000
v -2.726170 -0.398154 0.000000
v -1.826170 0.001847 0.000000
v -1.826170 -0.398154 0.000000
v -1.826170 3.001846 0.000000
v -2.226170 3.001846 0.000000
v -1.826170 2.101846 0.000000
v -2.226170 2.101846 0.000000
v -3.326170 3.001846 0.000000
v -3.726170 3.001846 0.000000
v -3.326170 2.101846 0.000000
v -3.726170 2.101846 0.000000
v -3.726170 2.001846 0.000000
v -3.726170 1.601846 0.000000
v -2.826170 2.001847 0.000000
v -2.826170 1.601846 0.000000
v -3.726170 1.501846 0.000000
v -3.726170 1.101846 0.000000
v -2.826170 1.501846 0.000000
v -2.826170 1.101846 0.000000
v -0.826170 3.001846 0.000000
v -1.726170 3.001846 0.000000
v -0.826170 2.101846 0.000000
v -1.726170 2.101846 0.000000
v -4.284855 2.098154 0.000000
v -4.284855 2.998154 0.000000
v -5.684855 2.098154 0.000000
v -5.684855 2.998154 0.000000
v -6.684856 0.098154 0.000000
v -6.284855 0.098154 0.000000
v -6.684856 0.998154 0.000000
v -6.284855 0.998154 0.000000
v -6.184855 0.098154 0.000000
v -5.784855 0.098154 0.000000
v -6.184855 0.998154 0.000000
v -5.784855 0.998154 0.000000
v -4.684856 1.098124 0.000000
v -3.784855 1.098124 0.000000
v -4.684856 1.998124 0.000000
v -3.784855 1.998124 0.000000
v -4.784855 1.598154 0.000000
v -4.784855 1.998154 0.000000
v -5.684855 1.598154 0.000000
v -5.684855 1.998154 0.000000
v -6.684856 1.091904 0.000000
v -5.784855 1.091904 0.000000
v -6.684855 2.998154 0.000000
v -5.784855 2.998154 0.000000
v -4.184855 2.098154 0.000000
v -3.784855 2.098154 0.000000
v -4.184855 2.998154 0.000000
v -3.784855 2.998154 0.000000
v -6.684856 -0.901846 0.000000
v -6.284855 -0.901846 0.000000
v -6.684856 -0.001846 0.000000
v -6.284855 -0.001846 0.000000
v -6.691105 -1.001846 0.000000
v -6.691105 -1.901846 0.000000
v -4.784855 -1.001846 0.000000
v -4.784855 -1.901846 0.000000
v -6.184855 -0.001846 0.000000
v -6.184855 -0.901846 0.000000
v -4.784855 -0.001846 0.000000
v -4.784855 -0.901846 0.000000
v -4.784855 0.098154 0.000000
v -4.784855 0.498154 0.000000
v -5.684855 0.098154 0.000000
v -5.684855 0.498154 0.000000
v -5.684856 -2.901845 0.000000
v -5.284855 -2.901845 0.000000
v -5.684856 -2.001845 0.000000
v -5.284855 -2.001845 0.000000
v -4.184855 -2.901845 0.000000
v -3.784855 -2.901845 0.000000
v -4.184855 -2.001845 0.000000
v -3.784855 -2.001845 0.000000
v -5.184855 -2.001845 0.000000
v -5.184855 -2.901845 0.000000
v -4.284855 -2.001845 0.000000
v -4.284855 -2.901845 0.000000
v -3.784855 -1.901846 0.000000
v -3.784855 -1.501846 0.000000
v -4.684856 -1.901846 0.000000
v -4.684856 -1.501846 0.000000
v -3.784855 -1.401846 0.000000
v -3.784855 -1.001846 0.000000
v -4.684856 -1.401846 0.000000
v -4.684856 -1.001846 0.000000
v -6.684856 -2.901846 0.000000
v -5.784855 -2.901845 0.000000
v -6.684856 -2.001846 0.000000
v -5.784855 -2.001845 0.000000
v -11.753667 2.495658 0.000000
v -12.653666 2.495658 0.000000
v -11.753667 1.095658 0.000000
v -12.653666 1.095658 0.000000
v -9.753668 0.095657 0.000000
v -9.753668 0.495658 0.000000
v -10.653666 0.095657 0.000000
v -10.653666 0.495658 0.000000
v -9.753668 0.595658 0.000000
v -9.753668 0.995658 0.000000
v -10.653666 0.595658 0.000000
v -10.653666 0.995658 0.000000
v -10.753637 2.095658 0.000000
v -10.753637 2.995658 0.000000
v -11.653636 2.095658 0.000000
v -11.653636 2.995658 0.000000
v -11.253666 1.995658 0.000000
v -11.653666 1.995658 0.000000
v -11.253666 1.095658 0.000000
v -11.653666 1.095658 0.000000
v -10.747416 0.095658 0.000000
v -10.747416 0.995658 0.000000
v -12.653667 0.095658 0.000000
v -12.653667 0.995658 0.000000
v -11.753666 2.595658 0.000000
v -11.753666 2.995658 0.000000
v -12.653666 2.595658 0.000000
v -12.653666 2.995658 0.000000
v -8.747416 2.095657 0.000000
v -8.747416 2.995657 0.000000
v -10.653666 2.095658 0.000000
v -10.653666 2.995658 0.000000
v -10.253666 1.095658 0.000000
v -10.253666 1.995658 0.000000
v -11.153666 1.095658 0.000000
v -11.153666 1.995658 0.000000
v -8.753667 0.095658 0.000000
v -8.753667 0.495658 0.000000
v -9.653666 0.095657 0.000000
v -9.653666 0.495658 0.000000
v -8.653666 0.089407 0.000000
v -7.753667 0.089407 0.000000
v -8.653666 1.995657 0.000000
v -7.753667 1.995657 0.000000
v -9.753666 1.995658 0.000000
v -10.153666 1.995658 0.000000
v -9.753666 1.095658 0.000000
v -10.153666 1.095658 0.000000
v -6.753666 1.095657 0.000000
v -6.753666 1.495657 0.000000
v -7.653667 1.095658 0.000000
v -7.653667 1.495657 0.000000
v -6.753666 2.595658 0.000000
v -6.753666 2.995657 0.000000
v -7.653667 2.595658 0.000000
v -7.653667 2.995657 0.000000
v -7.653667 1.595658 0.000000
v -6.753666 1.595658 0.000000
v -7.653667 2.495658 0.000000
v -6.753666 2.495658 0.000000
v -7.753667 2.995657 0.000000
v -8.153667 2.995657 0.000000
v -7.753667 2.095657 0.000000
v -8.153667 2.095657 0.000000
v -8.253667 2.995657 0.000000
v -8.653666 2.995657 0.000000
v -8.253667 2.095657 0.000000
v -8.653666 2.095657 0.000000
v -6.753666 0.095658 0.000000
v -6.753666 0.995658 0.000000
v -7.653667 0.095658 0.000000
v -7.653667 0.995658 0.000000
v -9.657359 -0.020658 0.000000
v -9.657359 -0.420657 0.000000
v -8.757359 -0.020657 0.000000
v -8.757359 -0.420657 0.000000
v -8.657390 -2.020658 0.000000
v -8.657390 -2.920658 0.000000
v -7.757388 -2.020658 0.000000
v -7.757388 -2.920658 0.000000
v -8.157358 -1.920658 0.000000
v -7.757359 -1.920658 0.000000
v -8.157358 -1.020658 0.000000
v -7.757359 -1.020658 0.000000
v -8.663609 -0.020658 0.000000
v -8.663609 -0.920657 0.000000
v -6.757359 -0.020658 0.000000
v -6.757359 -0.920657 0.000000
v -7.657359 -2.520658 0.000000
v -7.657359 -2.920658 0.000000
v -6.757359 -2.520658 0.000000
v -6.757359 -2.920658 0.000000
v -10.663610 -2.020658 0.000000
v -10.663610 -2.920658 0.000000
v -8.757359 -2.020658 0.000000
v -8.757359 -2.920658 0.000000
v -9.157358 -1.020657 0.000000
v -9.157358 -1.920658 0.000000
v -8.257359 -1.020657 0.000000
v -8.257359 -1.920658 0.000000
v -10.657359 -0.020658 0.000000
v -10.657359 -0.420657 0.000000
v -9.757359 -0.020658 0.000000
v -9.757359 -0.420657 0.000000
v -10.757359 -0.014407 0.000000
v -11.657358 -0.014408 0.000000
v -10.757359 -1.920658 0.000000
v -11.657358 -1.920658 0.000000
v -9.757359 -0.520658 0.000000
v -10.657359 -0.520658 0.000000
v -9.757359 -1.920658 0.000000
v -10.657359 -1.920658 0.000000
v -9.657359 -1.920658 0.000000
v -9.257359 -1.920658 0.000000
v -9.657359 -1.020658 0.000000
v -9.257359 -1.020657 0.000000
v -12.657358 -1.020658 0.000000
v -12.657358 -1.420658 0.000000
v -11.757359 -1.020658 0.000000
v -11.757359 -1.420657 0.000000
v -12.657358 -2.520658 0.000000
v -12.657358 -2.920658 0.000000
v -11.757359 -2.520658 0.000000
v -11.757359 -2.920658 0.000000
v -11.757359 -1.520658 0.000000
v -12.657358 -1.520658 0.000000
v -11.757359 -2.420658 0.000000
v -12.657358 -2.420658 0.000000
v -11.657358 -2.920658 0.000000
v -11.257359 -2.920658 0.000000
v -11.657358 -2.020658 0.000000
v -11.257359 -2.020658 0.000000
v -11.157359 -2.920658 0.000000
v -10.757359 -2.920658 0.000000
v -11.157359 -2.020658 0.000000
v -10.757359 -2.020658 0.000000
v -12.657358 -0.020658 0.000000
v -12.657358 -0.920657 0.000000
v -11.757359 -0.020658 0.000000
v -11.757359 -0.920657 0.000000
vn 0.0000 0.0000 1.0000
s off
f 2//1 3//1 1//1
f 6//1 7//1 5//1
f 10//1 11//1 9//1
f 14//1 15//1 13//1
f 18//1 19//1 17//1
f 22//1 23//1 21//1
f 26//1 27//1 25//1
f 30//1 31//1 29//1
f 34//1 35//1 33//1
f 38//1 39//1 37//1
f 42//1 43//1 41//1
f 46//1 47//1 45//1
f 50//1 51//1 49//1
f 54//1 55//1 53//1
f 58//1 59//1 57//1
f 62//1 63//1 61//1
f 66//1 67//1 65//1
f 70//1 71//1 69//1
f 74//1 75//1 73//1
f 78//1 79//1 77//1
f 82//1 83//1 81//1
f 86//1 87//1 85//1
f 90//1 91//1 89//1
f 94//1 95//1 93//1
f 98//1 99//1 97//1
f 102//1 103//1 101//1
f 106//1 107//1 105//1
f 110//1 111//1 109//1
f 114//1 115//1 113//1
f 118//1 119//1 117//1
f 122//1 123//1 121//1
f 125//1 128//1 127//1
f 130//1 131//1 129//1
f 134//1 135//1 133//1
f 138//1 139//1 137//1
f 142//1 143//1 141//1
f 146//1 147//1 145//1
f 150//1 151//1 149//1
f 154//1 155//1 153//1
f 158//1 159//1 157//1
f 162//1 163//1 161//1
f 166//1 167//1 165//1
f 170//1 171//1 169//1
f 174//1 175//1 173//1
f 178//1 179//1 177//1
f 182//1 183//1 181//1
f 186//1 187//1 185//1
f 190//1 191//1 189//1
f 194//1 195//1 193//1
f 198//1 199//1 197//1
f 202//1 203//1 201//1
f 206//1 207//1 205//1
f 210//1 211//1 209//1
f 214//1 215//1 213//1
f 218//1 219//1 217//1
f 222//1 223//1 221//1
f 226//1 227//1 225//1
f 230//1 231//1 229//1
f 234//1 235//1 233//1
f 238//1 239//1 237//1
f 242//1 243//1 241//1
f 246//1 247//1 245//1
f 250//1 251//1 249//1
f 254//1 255//1 253//1
f 258//1 259//1 257//1
f 262//1 263//1 261//1
f 266//1 267//1 265//1
f 270//1 271//1 269//1
f 274//1 275//1 273//1
f 278//1 279//1 277//1
f 282//1 283//1 281//1
f 286//1 287//1 285//1
f 290//1 291//1 289//1
f 294//1 295//1 293//1
f 298//1 299//1 297//1
f 302//1 303//1 301//1
f 306//1 307//1 305//1
f 310//1 311//1 309//1
f 314//1 315//1 313//1
f 318//1 319//1 317//1
f 322//1 323//1 321//1
f 326//1 327//1 325//1
f 330//1 331//1 329//1
f 334//1 335//1 333//1
f 338//1 339//1 337//1
f 342//1 343//1 341//1
f 346//1 347//1 345//1
f 350//1 351//1 349//1
f 354//1 355//1 353//1
f 357//1 360//1 359//1
f 362//1 363//1 361//1
f 366//1 367//1 365//1
f 370//1 371//1 369//1
f 374//1 375//1 373//1
f 378//1 379//1 377//1
f 382//1 383//1 381//1
f 386//1 387//1 385//1
f 390//1 391//1 389//1
f 394//1 395//1 393//1
f 398//1 399//1 397//1
f 402//1 403//1 401//1
f 406//1 407//1 405//1
f 410//1 411//1 409//1
f 414//1 415//1 413//1
f 417//1 420//1 419//1
f 422//1 423//1 421//1
f 426//1 427//1 425//1
f 430//1 431//1 429//1
f 434//1 435//1 433//1
f 438//1 439//1 437//1
f 442//1 443//1 441//1
f 446//1 447//1 445//1
f 450//1 451//1 449//1
f 454//1 455//1 453//1
f 458//1 459//1 457//1
f 462//1 463//1 461//1
f 466//1 467//1 465//1
f 470//1 471//1 469//1
f 474//1 475//1 473//1
f 478//1 479//1 477//1
f 482//1 483//1 481//1
f 486//1 487//1 485//1
f 490//1 491//1 489//1
f 494//1 495//1 493//1
f 498//1 499//1 497//1
f 502//1 503//1 501//1
f 506//1 507//1 505//1
f 510//1 511//1 509//1
f 514//1 515//1 513//1
f 518//1 519//1 517//1
f 522//1 523//1 521//1
f 526//1 527//1 525//1
f 530//1 531//1 529//1
f 533//1 536//1 535//1
f 538//1 539//1 537//1
f 542//1 543//1 541//1
f 546//1 547//1 545//1
f 550//1 551//1 549//1
f 554//1 555//1 553//1
f 2//1 4//1 3//1
f 6//1 8//1 7//1
f 10//1 12//1 11//1
f 14//1 16//1 15//1
f 18//1 20//1 19//1
f 22//1 24//1 23//1
f 26//1 28//1 27//1
f 30//1 32//1 31//1
f 34//1 36//1 35//1
f 38//1 40//1 39//1
f 42//1 44//1 43//1
f 46//1 48//1 47//1
f 50//1 52//1 51//1
f 54//1 56//1 55//1
f 58//1 60//1 59//1
f 62//1 64//1 63//1
f 66//1 68//1 67//1
f 70//1 72//1 71//1
f 74//1 76//1 75//1
f 78//1 80//1 79//1
f 82//1 84//1 83//1
f 86//1 88//1 87//1
f 90//1 92//1 91//1
f 94//1 96//1 95//1
f 98//1 100//1 99//1
f 102//1 104//1 103//1
f 106//1 108//1 107//1
f 110//1 112//1 111//1
f 114//1 116//1 115//1
f 118//1 120//1 119//1
f 122//1 124//1 123//1
f 125//1 126//1 128//1
f 130//1 132//1 131//1
f 134//1 136//1 135//1
f 138//1 140//1 139//1
f 142//1 144//1 143//1
f 146//1 148//1 147//1
f 150//1 152//1 151//1
f 154//1 156//1 155//1
f 158//1 160//1 159//1
f 162//1 164//1 163//1
f 166//1 168//1 167//1
f 170//1 172//1 171//1
f 174//1 176//1 175//1
f 178//1 180//1 179//1
f 182//1 184//1 183//1
f 186//1 188//1 187//1
f 190//1 192//1 191//1
f 194//1 196//1 195//1
f 198//1 200//1 199//1
f 202//1 204//1 203//1
f 206//1 208//1 207//1
f 210//1 212//1 211//1
f 214//1 216//1 215//1
f 218//1 220//1 219//1
f 222//1 224//1 223//1
f 226//1 228//1 227//1
f 230//1 232//1 231//1
f 234//1 236//1 235//1
f 238//1 240//1 239//1
f 242//1 244//1 243//1
f 246//1 248//1 247//1
f 250//1 252//1 251//1
f 254//1 256//1 255//1
f 258//1 260//1 259//1
f 262//1 264//1 263//1
f 266//1 268//1 267//1
f 270//1 272//1 271//1
f 274//1 276//1 275//1
f 278//1 280//1 279//1
f 282//1 284//1 283//1
f 286//1 288//1 287//1
f 290//1 292//1 291//1
f 294//1 296//1 295//1
f 298//1 300//1 299//1
f 302//1 304//1 303//1
f 306//1 308//1 307//1
f 310//1 312//1 311//1
f 314//1 316//1 315//1
f 318//1 320//1 319//1
f 322//1 324//1 323//1
f 326//1 328//1 327//1
f 330//1 332//1 331//1
f 334//1 336//1 335//1
f 338//1 340//1 339//1
f 342//1 344//1 343//1
f 346//1 348//1 347//1
f 350//1 352//1 351//1
f 354//1 356//1 355//1
f 357//1 358//1 360//1
f 362//1 364//1 363//1
f 366//1 368//1 367//1
f 370//1 372//1 371//1
f 374//1 376//1 375//1
f 378//1 380//1 379//1
f 382//1 384//1 383//1
f 386//1 388//1 387//1
f 390//1 392//1 391//1
f 394//1 396//1 395//1
f 398//1 400//1 399//1
f 402//1 404//1 403//1
f 406//1 408//1 407//1
f 410//1 412//1 411//1
f 414//1 416//1 415//1
f 417//1 418//1 420//1
f 422//1 424//1 423//1
f 426//1 428//1 427//1
f 430//1 432//1 431//1
f 434//1 436//1 435//1
f 438//1 440//1 439//1
f 442//1 444//1 443//1
f 446//1 448//1 447//1
f 450//1 452//1 451//1
f 454//1 456//1 455//1
f 458//1 460//1 459//1
f 462//1 464//1 463//1
f 466//1 468//1 467//1
f 470//1 472//1 471//1
f 474//1 476//1 475//1
f 478//1 480//1 479//1
f 482//1 484//1 483//1
f 486//1 488//1 487//1
f 490//1 492//1 491//1
f 494//1 496//1 495//1
f 498//1 500//1 499//1
f 502//1 504//1 503//1
f 506//1 508//1 507//1
f 510//1 512//1 511//1
f 514//1 516//1 515//1
f 518//1 520//1 519//1
f 522//1 524//1 523//1
f 526//1 528//1 527//1
f 530//1 532//1 531//1
f 533//1 534//1 536//1
f 538//1 540//1 539//1
f 542//1 544//1 543//1
f 546//1 548//1 547//1
f 550//1 552//1 551//1
f 554//1 556//1 555//1
