# Blender v2.80 (sub 75) OBJ File: ''
# www.blender.org
v -0.016179 0.853230 0.503700
v -0.018744 0.851994 0.501863
v -0.019322 0.824794 0.490206
v -0.018647 0.833128 0.481469
v -0.016214 0.911927 0.461578
v -0.012900 0.899463 0.450349
v -0.016410 0.921140 0.463400
v -0.008297 0.701094 0.402348
v -0.015241 0.666686 0.409529
v -0.004549 0.683203 0.396032
v -0.006090 0.719947 0.378498
v -0.013425 0.722903 0.385245
v 0.016185 0.850792 0.499363
v 0.013727 0.851102 0.501580
v 0.012651 0.837308 0.497176
v 0.002619 0.709911 0.383956
v 0.007477 0.717029 0.398674
v 0.008232 0.722183 0.379068
v -0.018950 0.721600 0.378318
v 0.014502 0.723064 0.378874
v -0.023836 0.712361 0.410293
v -0.024196 0.726588 0.405754
v -0.029540 0.675863 0.391343
v -0.021401 0.688414 0.411445
v -0.017932 0.711614 0.423815
v -0.021898 0.656151 0.407486
v -0.011672 0.710858 0.425570
v -0.009824 0.687436 0.410590
v -0.005369 0.750704 0.434205
v -0.007026 0.754792 0.447952
v -0.018897 0.741167 0.410004
v -0.010418 0.733598 0.406476
v -0.021540 0.822146 0.478214
v -0.014556 0.829803 0.478603
v -0.022982 0.803080 0.373938
v -0.020090 0.804523 0.364204
v -0.017763 0.786652 0.341345
v -0.021192 0.762655 0.346595
v -0.020777 0.789842 0.374472
v -0.020322 0.753716 0.352327
v -0.015677 0.753408 0.359775
v -0.011703 0.791981 0.378617
v -0.008892 0.793590 0.371913
v -0.004846 0.778182 0.353109
v -0.010238 0.797775 0.352419
v -0.012207 0.816605 0.375473
v -0.014083 0.885883 0.432571
v 0.017354 0.766570 0.437273
v 0.016667 0.723548 0.425157
v 0.024793 0.703982 0.388109
v 0.019586 0.730960 0.403753
v 0.013691 0.733618 0.402087
v 0.012012 0.766723 0.433735
v 0.005055 0.728299 0.429812
v 0.006310 0.691896 0.401705
v 0.011598 0.665181 0.408996
v 0.009496 0.815838 0.476154
v 0.011603 0.698775 0.419688
v 0.012126 0.715283 0.425858
v 0.006847 0.797901 0.377731
v 0.004090 0.785733 0.353517
v 0.005889 0.760919 0.362596
v 0.010541 0.888351 0.445194
v 0.010653 0.896936 0.443360
v 0.009465 0.813829 0.374376
v 0.010524 0.784609 0.374167
v 0.019292 0.803047 0.365777
v 0.014098 0.919898 0.462631
v 0.019761 0.755074 0.349306
v 0.011493 0.800531 0.352342
v 0.013641 0.815962 0.372646
v -0.012563 0.827150 0.492596
v -0.010935 0.826009 0.481741
v 0.013406 0.828033 0.479017
v 0.016308 0.832566 0.492147
v 0.016091 0.868758 0.430940
v 0.013737 0.920989 0.466288
v -0.026219 0.707902 0.371928
v 0.002098 0.682617 0.396428
v 0.013744 0.630126 0.411656
v -0.007044 0.756581 0.361303
v -0.014375 0.802089 0.357115
v 0.029815 0.642529 0.398131
v 0.022727 0.711320 0.371932
v 0.016420 0.781950 0.370607
vn -0.4297 -0.3499 0.8324
vn -0.4273 -0.3487 0.8342
vn -0.4289 -0.3473 0.8339
vn 0.1321 0.7270 -0.6738
vn 0.1241 0.7273 -0.6750
vn 0.1285 0.7294 -0.6719
vn 0.9439 -0.0441 0.3272
vn 0.9434 -0.0440 0.3288
vn 0.9436 -0.0456 0.3279
vn 0.8062 -0.0474 0.5897
vn 0.8145 -0.0120 0.5801
vn 0.7843 -0.0199 0.6201
vn 0.6750 0.5524 0.4892
vn 0.6654 0.5460 0.5091
vn 0.6829 0.5366 0.4957
vn 0.6276 -0.2838 0.7250
vn 0.6243 -0.2827 0.7282
vn 0.6251 -0.2799 0.7286
vn -0.8841 0.4598 0.0834
vn -0.8946 0.4406 0.0748
vn -0.8961 0.4341 0.0925
vn 0.1285 0.9478 -0.2917
vn 0.1096 0.9550 -0.2757
vn 0.1406 0.9525 -0.2701
vn -0.1495 0.9529 0.2640
vn -0.1162 0.9601 0.2545
vn -0.1263 0.9623 0.2410
vn -0.9770 0.0433 0.2088
vn -0.9764 0.0414 0.2118
vn -0.9754 0.0507 0.2147
vn -0.9080 -0.0752 0.4122
vn -0.9058 -0.0664 0.4185
vn -0.9124 -0.0653 0.4040
vn -0.9170 -0.0766 0.3915
vn -0.9145 -0.0761 0.3973
vn -0.9150 -0.0623 0.3987
vn -0.9213 -0.0438 0.3863
vn -0.9154 -0.0355 0.4010
vn -0.9248 0.0061 0.3804
vn -0.1126 -0.1313 0.9849
vn -0.1027 -0.0785 0.9916
vn -0.1430 -0.1274 0.9815
vn -0.5868 -0.2397 0.7735
vn -0.5760 -0.2390 0.7817
vn -0.5905 -0.2047 0.7807
vn 0.9961 -0.0784 0.0410
vn 0.9950 -0.0861 0.0500
vn 0.9953 -0.0872 0.0414
vn 0.9793 -0.1286 0.1563
vn 0.9796 -0.1276 0.1551
vn 0.9799 -0.1203 0.1589
vn 0.4841 0.7583 -0.4365
vn 0.4857 0.7505 -0.4481
vn 0.4827 0.7520 -0.4489
vn -0.7372 0.4209 -0.5286
vn -0.7356 0.4232 -0.5289
vn -0.7360 0.4206 -0.5304
vn 0.2062 0.5935 -0.7780
vn 0.2050 0.5905 -0.7805
vn 0.2039 0.5948 -0.7776
vn -0.9468 0.1988 -0.2530
vn -0.9472 0.1973 -0.2527
vn -0.9493 0.2082 -0.2357
vn -0.9743 0.0940 -0.2046
vn -0.9782 0.0812 -0.1911
vn -0.9738 0.1041 -0.2023
vn -0.8115 -0.3147 0.4923
vn -0.7948 -0.2912 0.5324
vn -0.8394 -0.2724 0.4703
vn -0.3048 -0.3428 0.8886
vn -0.3053 -0.3940 0.8669
vn -0.3020 -0.3939 0.8681
vn -0.2335 -0.5579 0.7964
vn -0.2318 -0.5604 0.7951
vn -0.2306 -0.5578 0.7973
vn 0.9642 0.2650 -0.0119
vn 0.9606 0.2779 -0.0035
vn 0.9672 0.2539 0.0006
vn 0.9880 0.1500 -0.0369
vn 0.9882 0.1519 -0.0215
vn 0.9885 0.1470 -0.0368
vn 0.9176 -0.2125 0.3360
vn 0.9183 -0.2134 0.3334
vn 0.9190 -0.2107 0.3331
vn 0.1213 0.6330 -0.7646
vn 0.1223 0.6346 -0.7631
vn 0.1221 0.6323 -0.7650
vn 0.9624 -0.0892 0.2567
vn 0.9626 -0.0870 0.2564
vn 0.9616 -0.0847 0.2610
vn 0.8865 0.3485 -0.3044
vn 0.8800 0.3526 -0.3183
vn 0.8792 0.3577 -0.3146
vn 0.4560 0.8118 -0.3648
vn 0.4679 0.8214 -0.3261
vn 0.4703 0.8075 -0.3561
vn -0.8041 0.3908 -0.4480
vn -0.7985 0.3991 -0.4508
vn -0.8000 0.3904 -0.4556
vn 0.4647 0.6252 -0.6270
vn 0.4598 0.6227 -0.6331
vn 0.4496 0.6347 -0.6286
vn -0.9764 -0.1535 0.1518
vn -0.9748 -0.1526 0.1627
vn -0.9809 -0.1139 0.1579
vn -0.9952 0.0340 -0.0919
vn -0.9959 0.0318 -0.0843
vn -0.9951 0.0452 -0.0878
vn -0.9869 0.1162 -0.1118
vn -0.9864 0.1136 -0.1189
vn -0.9868 0.1107 -0.1183
vn 0.1039 -0.2649 0.9587
vn 0.0911 -0.3001 0.9495
vn 0.1054 -0.3037 0.9469
vn -0.1142 -0.3313 0.9366
vn -0.1183 -0.3466 0.9305
vn -0.1125 -0.3467 0.9312
vn -0.9919 -0.0282 0.1237
vn -0.9907 -0.0283 0.1334
vn -0.9922 -0.0133 0.1236
vn -0.9993 0.0218 0.0309
vn -0.9994 0.0191 0.0275
vn -0.9994 0.0183 0.0288
vn -0.9814 0.1316 -0.1397
vn -0.9808 0.1346 -0.1408
vn -0.9812 0.1307 -0.1420
vn -0.7768 -0.3553 0.5199
vn -0.7793 -0.3512 0.5190
vn -0.7789 -0.3556 0.5166
vn 0.9973 -0.0170 0.0720
vn 0.9974 -0.0160 0.0702
vn 0.9967 0.0031 0.0810
vn 0.6684 0.5572 -0.4927
vn 0.6720 0.5581 -0.4868
vn 0.6701 0.5542 -0.4938
vn -0.5489 0.6918 -0.4692
vn -0.5479 0.6969 -0.4628
vn -0.5470 0.6925 -0.4703
vn 0.4979 0.5667 -0.6565
vn 0.4966 0.5656 -0.6584
vn 0.4963 0.5688 -0.6559
vn -0.9789 -0.0619 0.1945
vn -0.9789 -0.0644 0.1939
vn -0.9786 -0.0619 0.1962
vn -0.9987 -0.0068 0.0497
vn -0.9988 -0.0108 0.0484
vn -0.9987 -0.0089 0.0505
vn -0.2899 -0.4878 0.8234
vn -0.2866 -0.4842 0.8267
vn -0.2946 -0.4834 0.8243
vn 0.4562 -0.4367 0.7754
vn 0.4553 -0.4420 0.7729
vn 0.4560 -0.4426 0.7721
vn 0.7993 0.3810 -0.4647
vn 0.8003 0.3834 -0.4611
vn 0.8014 0.3788 -0.4628
vn 0.8044 0.4603 -0.3755
vn 0.8066 0.4584 -0.3732
vn 0.8057 0.4568 -0.3771
vn -0.9895 -0.0470 0.1366
vn -0.9898 -0.0474 0.1346
vn -0.9896 -0.0485 0.1357
vn 0.9516 0.2098 -0.2248
vn 0.9516 0.2111 -0.2235
vn 0.9519 0.2099 -0.2230
vn -0.1830 0.6400 -0.7463
vn -0.1819 0.6418 -0.7450
vn -0.1820 0.6401 -0.7465
vn 0.4834 0.5139 -0.7087
vn 0.4860 0.5143 -0.7066
vn 0.4843 0.5113 -0.7100
vn -0.9759 -0.0592 0.2100
vn -0.9761 -0.0622 0.2080
vn -0.9757 -0.0620 0.2103
vn -0.9934 0.0456 0.1051
vn -0.9937 0.0450 0.1027
vn -0.9938 0.0420 0.1030
vn -0.3600 0.5582 -0.7476
vn -0.3630 0.5589 -0.7455
vn -0.3595 0.5651 -0.7426
vn 0.4683 -0.4485 0.7613
vn 0.4680 -0.4426 0.7649
vn 0.4671 -0.4481 0.7623
vn 0.1224 -0.5608 0.8188
vn 0.1242 -0.5619 0.8178
vn 0.1240 -0.5578 0.8206
vn 0.9938 -0.0281 0.1076
vn 0.9941 -0.0288 0.1046
vn 0.9939 -0.0259 0.1071
vn -0.1366 0.6499 -0.7476
vn -0.1358 0.6490 -0.7486
vn -0.1366 0.6475 -0.7497
vn 0.1205 0.7313 -0.6713
vn -0.9936 0.1127 0.0008
vn -0.9947 0.1029 0.0013
vn -0.9947 0.1015 0.0177
vn 0.9731 0.1324 0.1886
vn 0.9662 0.1752 0.1889
vn 0.9706 0.1214 0.2079
vn -0.4831 0.6140 -0.6242
vn -0.4845 0.6148 -0.6223
vn -0.4837 0.6167 -0.6211
vn 0.6292 -0.2815 0.7244
vn -0.9393 0.2925 -0.1793
vn -0.9393 0.2909 -0.1820
vn -0.9399 0.2905 -0.1795
vn -0.9512 0.0790 0.2982
vn -0.9579 0.0870 0.2736
vn -0.9587 0.0720 0.2751
vn -0.9013 0.1759 0.3959
vn -0.8995 0.2098 0.3833
vn -0.9076 0.1908 0.3739
vn -0.8224 -0.0012 0.5689
vn -0.7942 -0.0188 0.6073
vn -0.8048 0.0450 0.5919
vn -0.8894 0.3980 -0.2247
vn -0.8870 0.3931 -0.2425
vn -0.8876 0.3918 -0.2422
vn -0.2960 -0.4187 0.8586
vn -0.2886 -0.4195 0.8607
vn -0.2887 -0.4055 0.8673
vn 0.8398 -0.2491 0.4824
vn 0.8434 -0.2146 0.4926
vn 0.8359 -0.2442 0.4916
vn 0.5199 -0.4243 0.7414
vn 0.5199 -0.4315 0.7372
vn 0.5247 -0.4278 0.7360
vn 0.9451 -0.2391 -0.2226
vn 0.9541 -0.2065 -0.2168
vn 0.9462 -0.2435 -0.2132
vn 0.9792 0.0848 -0.1841
vn 0.9783 0.0946 -0.1846
vn 0.9817 0.0857 -0.1702
vn 0.9677 0.0918 -0.2347
vn 0.9678 0.1002 -0.2308
vn 0.9686 0.0916 -0.2312
vn 0.4172 0.7721 -0.4794
vn 0.4055 0.7781 -0.4796
vn 0.4209 0.7802 -0.4628
vn -0.9990 -0.0237 0.0385
vn -0.9966 -0.0721 0.0395
vn -0.9963 -0.0704 0.0497
vn -0.9620 -0.1522 0.2265
vn -0.9624 -0.1089 0.2489
vn -0.9627 -0.1508 0.2246
vn 0.0023 -0.4410 0.8975
vn 0.0333 -0.3987 0.9165
vn -0.0167 -0.4248 0.9051
vn 0.9263 -0.0619 0.3717
vn 0.9235 -0.0377 0.3818
vn 0.9254 -0.0630 0.3737
vn 0.9752 -0.0165 0.2207
vn 0.9755 0.0096 0.2196
vn 0.9716 -0.0193 0.2358
vn 0.9701 0.1688 -0.1746
vn 0.9703 0.1671 -0.1748
vn 0.9702 0.1662 -0.1763
vn 0.0991 0.7741 -0.6252
vn 0.0940 0.7843 -0.6132
vn 0.1035 0.7721 -0.6271
vn -0.3637 0.7505 -0.5518
vn -0.3635 0.7546 -0.5463
vn -0.3624 0.7522 -0.5504
vn 0.9530 0.1204 0.2781
vn 0.9487 0.1393 0.2838
vn 0.9503 0.1218 0.2864
vn 0.8173 -0.4167 0.3980
vn 0.8207 -0.4125 0.3952
vn 0.8164 -0.4136 0.4030
vn 0.9769 0.2109 -0.0331
vn 0.9779 0.2089 -0.0127
vn 0.9798 0.1955 -0.0414
vn 0.6591 0.6601 -0.3603
vn 0.6533 0.6793 -0.3343
vn 0.6805 0.6529 -0.3326
vn -0.8992 0.3852 -0.2075
vn -0.9034 0.3745 -0.2088
vn -0.9071 0.3823 -0.1763
vn 0.4406 0.6370 -0.6326
vn 0.4430 0.6298 -0.6381
vn 0.4395 0.6315 -0.6388
vn 0.2248 -0.3011 0.9267
vn 0.1806 -0.2849 0.9414
vn 0.1895 -0.3113 0.9312
vn 0.0393 -0.3519 0.9352
vn 0.0211 -0.3363 0.9415
vn 0.0258 -0.3558 0.9342
vn -0.8917 0.4362 -0.1211
vn -0.8946 0.4323 -0.1133
vn -0.8890 0.4433 -0.1143
vn -0.9774 0.1279 -0.1682
vn -0.9782 0.1239 -0.1664
vn -0.9790 0.1273 -0.1591
vn -0.4007 -0.3379 0.8516
vn -0.3973 -0.3417 0.8517
vn -0.3969 -0.3269 0.8577
vn 0.9885 -0.0163 0.1504
vn 0.9883 -0.0188 0.1514
vn 0.9887 -0.0176 0.1491
vn 0.2293 -0.5512 0.8022
vn 0.2323 -0.5558 0.7982
vn 0.2354 -0.5531 0.7991
vn 0.5527 -0.4574 0.6966
vn 0.5543 -0.4748 0.6836
vn 0.5584 -0.4701 0.6835
vn 0.9937 0.0971 -0.0557
vn 0.9945 0.0791 -0.0684
vn 0.9943 0.0814 -0.0688
vn -0.8952 -0.2318 0.3807
vn -0.8978 -0.2287 0.3763
vn -0.8959 -0.2337 0.3778
vn -0.9735 -0.1058 0.2026
vn -0.9731 -0.1067 0.2042
vn -0.9734 -0.1031 0.2048
vn -0.1764 -0.4055 0.8969
vn -0.1755 -0.4081 0.8959
vn -0.1750 -0.4056 0.8971
vn -0.1314 -0.4966 0.8580
vn -0.1301 -0.4964 0.8583
vn -0.1310 -0.4907 0.8614
vn 0.9001 0.2764 -0.3369
vn 0.8995 0.2796 -0.3358
vn 0.9002 0.2800 -0.3336
vn 0.9868 0.0784 0.1419
vn 0.9875 0.0755 0.1387
vn 0.9872 0.0781 0.1392
vn 0.9977 -0.0334 0.0587
vn 0.9978 -0.0331 0.0571
vn 0.9978 -0.0309 0.0584
vn -0.3345 0.3470 -0.8762
vn -0.3311 0.3488 -0.8768
vn -0.3318 0.3451 -0.8780
vn -0.5457 0.5275 -0.6511
vn -0.5446 0.5311 -0.6491
vn -0.5434 0.5298 -0.6512
vn -0.8951 0.3265 -0.3037
vn -0.8941 0.3277 -0.3054
vn -0.8944 0.3248 -0.3074
vn -0.9542 -0.1495 0.2590
vn -0.9547 -0.1464 0.2589
vn -0.9546 -0.1496 0.2574
vn -0.9400 0.2383 -0.2440
vn -0.9403 0.2367 -0.2446
vn -0.9407 0.2374 -0.2424
vn 0.6084 -0.4369 0.6625
vn 0.6082 -0.4342 0.6645
vn 0.6075 -0.4366 0.6636
vn 0.8895 0.3335 -0.3124
vn 0.8896 0.3319 -0.3138
vn 0.8890 0.3334 -0.3138
vn 0.7328 -0.3540 0.5812
vn 0.7337 -0.3549 0.5795
vn 0.7350 -0.3488 0.5815
vn 0.6774 0.4438 -0.5867
vn 0.6786 0.4423 -0.5864
vn 0.6774 0.4418 -0.5882
vn -0.8620 0.3617 -0.3552
vn -0.8625 0.3582 -0.3574
vn -0.8633 0.3591 -0.3547
vn -0.8155 0.3669 -0.4476
vn -0.8167 0.3650 -0.4470
vn -0.8162 0.3720 -0.4420
vn -0.4050 -0.4613 0.7894
vn -0.4031 -0.4599 0.7912
vn -0.4064 -0.4552 0.7922
vn -0.9945 0.0355 0.0984
vn -0.9948 0.0321 0.0967
vn -0.9945 0.0334 0.0991
vn 0.1745 -0.5452 0.8199
vn 0.1746 -0.5484 0.8178
vn 0.1762 -0.5458 0.8192
vn -0.5434 0.5415 -0.6415
vn -0.5411 0.5426 -0.6425
vn -0.5424 0.5405 -0.6432
vn -0.7999 0.0451 0.5984
vn -0.7913 0.0005 0.6114
vn -0.7794 0.0119 0.6264
vn -0.8115 0.5295 -0.2472
vn -0.7966 0.5541 -0.2416
vn -0.8013 0.5421 -0.2532
vn 0.9928 -0.0022 0.1200
vn 0.9926 -0.0019 0.1217
vn 0.9928 -0.0046 0.1193
vn 0.9998 -0.0003 0.0218
vn 0.9998 -0.0024 0.0204
vn 0.9998 -0.0008 0.0201
s 1
f 1//1 2//2 3//3
f 2//4 1//5 4//6
f 5//7 6//8 7//9
f 8//10 9//11 10//12
f 8//13 11//14 12//15
f 13//16 14//17 15//18
f 16//19 17//20 18//21
f 12//22 11//23 19//24
f 20//25 18//26 17//27
f 21//28 22//29 23//30
f 21//31 23//32 24//33
f 25//34 21//35 24//36
f 24//37 23//38 26//39
f 24//40 26//41 9//42
f 27//43 24//44 9//45
f 28//46 8//47 29//48
f 29//49 30//50 28//51
f 12//52 31//53 32//54
f 31//55 22//56 33//57
f 31//58 34//59 32//60
f 35//61 36//62 37//63
f 35//64 37//65 38//66
f 39//67 40//68 41//69
f 41//70 42//71 39//72
f 42//73 5//74 39//75
f 43//76 44//77 45//78
f 43//79 45//80 46//81
f 43//82 6//83 42//84
f 46//85 36//86 47//87
f 48//88 49//89 50//90
f 51//91 48//92 50//93
f 51//94 20//95 52//96
f 52//97 17//98 53//99
f 52//100 48//101 51//102
f 54//103 55//104 56//105
f 54//106 17//107 55//108
f 17//109 54//110 57//111
f 56//112 58//113 54//114
f 58//115 59//116 54//117
f 60//118 61//119 62//120
f 60//121 63//122 64//123
f 65//124 60//125 64//126
f 60//127 66//128 63//129
f 67//130 68//131 69//132
f 67//133 70//134 71//135
f 71//136 70//137 65//138
f 71//139 68//140 67//141
f 3//142 2//143 33//144
f 21//145 33//146 22//147
f 3//148 25//149 27//150
f 27//151 30//152 72//153
f 73//154 32//155 34//156
f 73//157 34//158 1//159
f 35//160 5//161 7//162
f 6//163 46//164 47//165
f 47//166 36//167 7//168
f 48//169 53//170 74//171
f 54//172 15//173 57//174
f 57//175 15//176 14//177
f 74//178 53//179 17//180
f 15//181 59//182 75//183
f 76//184 63//185 66//186
f 68//187 77//188 76//189
f 71//190 64//191 68//192
f 4//6 1//5 34//193
f 23//194 22//195 78//196
f 8//197 10//198 11//199
f 14//200 13//201 74//202
f 75//203 13//16 15//18
f 64//204 77//205 68//206
f 16//207 55//208 17//209
f 16//210 79//211 55//212
f 56//213 79//214 80//215
f 19//216 22//217 31//218
f 27//219 25//220 24//221
f 27//222 9//223 28//224
f 28//225 30//226 27//227
f 28//228 9//229 8//230
f 32//231 8//232 12//233
f 29//234 8//235 32//236
f 31//237 12//238 19//239
f 40//240 35//241 38//242
f 35//243 40//244 39//245
f 42//246 41//247 81//248
f 42//249 81//250 43//251
f 43//252 81//253 44//254
f 43//255 46//256 6//257
f 46//258 45//259 82//260
f 46//261 82//262 36//263
f 59//264 83//265 50//266
f 49//267 59//268 50//269
f 50//270 84//271 51//272
f 51//273 84//274 20//275
f 17//276 52//277 20//278
f 52//279 53//280 48//281
f 56//282 83//283 58//284
f 58//285 83//286 59//287
f 60//288 70//289 61//290
f 60//291 65//292 70//293
f 66//294 60//295 62//296
f 30//297 73//298 72//299
f 85//300 76//301 66//302
f 69//303 76//304 85//305
f 69//306 68//307 76//308
f 21//309 25//310 3//311
f 3//312 33//313 21//314
f 72//315 1//316 3//317
f 72//318 3//319 27//320
f 73//321 29//322 32//323
f 73//324 1//325 72//326
f 48//327 75//328 49//329
f 34//330 33//331 4//332
f 34//333 31//334 33//335
f 4//336 33//337 2//338
f 35//339 39//340 5//341
f 35//342 7//343 36//344
f 5//345 42//346 6//347
f 47//348 7//349 6//350
f 49//351 75//352 59//353
f 48//354 74//355 13//356
f 57//357 14//358 74//359
f 57//360 74//361 17//362
f 15//363 54//364 59//365
f 63//366 77//367 64//368
f 76//369 77//370 63//371
f 71//372 65//373 64//374
f 56//375 55//376 79//377
f 19//378 78//379 22//380
f 30//381 29//382 73//383
f 48//384 13//385 75//386
