# Blender v2.80 (sub 75) OBJ File: 'road.blend'
# www.blender.org
v -37.983929 -0.523999 2.914569
v -37.662533 -0.837334 2.264446
v -37.774673 -0.830130 2.488928
v -38.041931 -1.025547 2.386892
v -38.010586 -0.957853 2.513519
v -37.633842 -0.815864 1.570735
v -37.651527 -0.858172 2.069046
v -38.028431 -1.027237 1.570735
v -38.109501 -1.005270 2.173800
v -37.642750 -1.024105 1.761400
v -37.714249 -0.968505 2.052483
v -37.570923 -1.158193 1.887869
v -37.635498 -1.077326 2.141674
v -37.866478 -1.143951 1.761400
v -37.991329 -1.151569 2.141674
v -37.794647 -1.278039 1.887869
v -37.794647 -1.203825 2.141674
v -37.556698 -1.163225 1.205551
v -37.652519 -0.963678 2.386138
v -37.878189 -1.097393 2.375878
v -37.672226 -0.620576 2.162637
v -38.195229 -0.792983 2.084015
v -37.718773 -0.696256 2.396756
v -38.140404 -0.763615 2.517817
v -37.573208 -0.806937 1.127703
v -38.070507 -1.012042 1.129009
v -37.738487 -1.032777 1.223262
v -37.775665 -0.984772 1.624156
v -38.068481 -0.734276 2.449303
v -38.068481 -0.734276 2.568136
v -38.080311 -0.612781 2.568136
v -37.981010 -0.541787 2.435520
v -37.980442 -0.501491 2.541291
v -37.759895 -0.813000 0.738938
v -37.571644 -0.864842 0.777094
v -37.714535 -0.622484 0.773987
v -37.526283 -0.674325 0.812143
v -37.854771 -0.610607 1.085756
v -38.116726 -0.750931 1.085756
v -37.713554 -0.874227 1.368037
v -38.047390 -0.974976 1.601213
v -37.625179 -0.793516 0.149431
v -37.683651 -0.684361 0.149431
v -37.827972 -0.761670 0.149431
v -37.769497 -0.870825 0.149431
v -37.740120 -0.763978 0.002128
v -37.633415 -0.667243 1.400843
v -38.192879 -0.791725 1.618563
v -37.658253 -0.628887 1.689301
v -38.230949 -0.812118 1.229530
v -37.730373 -0.543970 1.493240
v -37.741669 -0.643055 1.306621
v -38.127365 -0.636224 2.724710
v -37.948296 -0.468855 2.537836
v -38.030235 -0.479348 2.634046
v -38.041237 -0.650108 2.946283
v -38.047417 -0.835446 2.718283
v -38.133347 -0.735338 2.712754
v -37.898907 -0.462953 2.772978
v -37.880798 -0.400504 2.680222
v -38.121490 -0.682571 2.866244
v -38.029026 -0.469269 2.817213
v -37.867611 -0.439767 2.658993
v -37.916740 -0.455326 2.822237
v -37.928856 -0.485027 2.741371
v -38.028957 -0.474908 2.736834
v -37.909767 -0.439550 2.654933
v -37.920650 -0.451575 2.555194
v -37.902534 -0.450323 2.579482
v -37.901207 -0.440614 2.598512
v -37.903290 -0.445193 2.605661
v -37.912151 -0.434421 2.614232
v -37.905849 -0.439804 2.626077
v -37.957493 -0.444969 2.607598
v -38.052616 -0.846890 2.838817
v -38.023773 -0.783415 2.932555
v -37.854557 -0.582789 2.914569
v -37.957348 -0.784777 2.449303
v -37.957348 -0.784777 2.568136
v -37.858047 -0.713784 2.449303
v -37.858047 -0.713784 2.568136
v -37.869877 -0.592289 2.435520
v -37.839897 -0.565359 2.541291
v -37.844761 -0.764646 2.724710
v -37.836456 -0.519679 2.537836
v -37.790466 -0.588305 2.634046
v -37.911865 -0.708897 2.946283
v -37.915489 -0.834337 2.712754
v -37.864494 -0.478591 2.772978
v -37.829361 -0.423879 2.680222
v -37.883537 -0.790703 2.866244
v -37.783672 -0.580763 2.817213
v -37.847015 -0.487011 2.822237
v -37.861423 -0.515669 2.741371
v -37.787964 -0.584422 2.736834
v -37.839718 -0.471382 2.654933
v -37.841621 -0.487489 2.555194
v -37.852592 -0.473018 2.579482
v -37.846149 -0.465634 2.598512
v -37.848232 -0.470213 2.605661
v -37.834290 -0.469803 2.614232
v -37.842487 -0.468597 2.626077
v -37.819828 -0.507527 2.607598
v -37.766888 -0.563529 1.465517
v -37.784142 -0.572771 2.407154
v -37.718338 -0.757860 1.465517
v -37.727890 -0.888896 2.419908
v -38.157387 -0.772713 1.649313
v -38.047588 -0.713895 2.502261
v -38.065674 -0.943922 1.649313
v -38.001736 -0.984692 2.435885
v -37.680367 -0.846057 1.538395
v -37.937004 -0.324952 2.264446
v -37.994263 -0.420202 2.488928
v -38.303898 -0.536515 2.386892
v -38.230175 -0.547925 2.513519
v -37.903236 -0.312966 1.570735
v -37.948254 -0.304245 2.069046
v -38.297825 -0.524339 1.570735
v -38.327686 -0.597962 2.173800
v -38.241085 -0.320894 1.823735
v -38.084091 -0.238003 2.025512
v -38.305969 -0.086143 1.913711
v -38.305294 -0.180406 2.141674
v -38.365719 -0.339329 1.839110
v -38.380772 -0.478934 2.095199
v -38.467937 -0.241507 1.869338
v -38.409794 -0.300252 2.141674
v -38.308079 0.160131 1.743869
v -38.148819 -0.300546 2.402550
v -38.324306 -0.326240 2.316912
v -37.761929 -0.453118 2.162637
v -37.874607 -0.405344 2.396756
v -37.862209 -0.267435 1.127703
v -38.308487 -0.567785 1.129009
v -38.141788 -0.279896 1.223262
v -38.122425 -0.337444 1.624156
v -38.185303 -0.534451 0.738061
v -38.119701 -0.346624 0.738061
v -37.997475 -0.600053 0.738061
v -37.931873 -0.412226 0.738061
v -37.995987 -0.346987 1.368037
v -38.264820 -0.569077 1.601213
v -38.090717 -0.431101 0.050725
v -38.032242 -0.540256 0.050725
v -38.170273 -0.614195 0.098540
v -38.228745 -0.505040 0.098540
v -38.164375 -0.561669 -0.064639
v -37.779274 -0.394952 1.400843
v -37.761105 -0.436881 1.689301
v -37.819118 -0.498474 1.306621
v -37.901764 -0.415442 1.465517
v -38.016140 -0.397212 2.441980
v -38.249100 -0.601504 1.649313
v -38.247616 -0.525689 2.435885
v -37.954147 -0.334966 1.538395
v -38.081238 -0.510656 2.838411
v -37.771011 -0.583945 2.841185
v -37.940632 -0.424814 2.878019
v -37.805649 -0.465930 2.873622
vn 0.2768 -0.5288 0.8023
vn 0.3364 -0.9263 0.1697
vn 0.8341 0.5423 0.1013
vn 0.4573 -0.8536 0.2496
vn -0.7329 -0.6314 -0.2533
vn -0.4542 0.8479 -0.2735
vn 0.4721 -0.8814 0.0163
vn 0.0869 0.3270 0.9410
vn -0.8756 -0.4828 -0.0147
vn -0.6554 -0.6735 -0.3419
vn -0.4531 0.8458 -0.2818
vn 0.9791 -0.0955 -0.1798
vn -0.7373 -0.5027 0.4513
vn 0.9579 0.1560 0.2409
vn 0.9967 0.0705 0.0414
vn -0.9055 -0.4108 -0.1068
vn 0.9965 0.0676 0.0489
vn 0.3027 -0.3918 0.8688
vn 0.8581 -0.5032 0.1020
vn 0.7294 0.1543 0.6664
vn 0.8585 0.4853 -0.1658
vn -0.3175 -0.8013 0.5070
vn 0.4533 -0.7958 0.4015
vn -0.5388 0.6778 -0.5002
vn 0.2425 0.9129 -0.3283
vn -0.3525 -0.8599 0.3692
vn -0.3052 0.3087 -0.9008
vn 0.2912 0.0252 0.9563
vn -0.7466 -0.6416 0.1757
vn 0.1538 -0.9865 0.0566
vn 0.7612 -0.6479 -0.0280
vn -0.7799 0.6089 -0.1452
vn -0.1374 0.9819 -0.1303
vn -0.8228 0.5593 -0.1013
vn 0.0540 0.9981 0.0292
vn -0.3241 0.6051 0.7272
vn -0.4441 -0.8420 -0.3062
vn 0.6424 -0.2839 0.7118
vn -0.4585 0.8560 -0.2389
vn -0.2504 -0.9652 -0.0759
vn 0.5086 0.7413 0.4379
vn -0.9387 0.2642 -0.2212
vn 0.2102 0.9457 0.2478
vn 0.3291 -0.9421 0.0641
vn 0.2827 0.9542 -0.0982
vn -0.8799 -0.4714 0.0606
vn 0.4676 -0.8729 -0.1391
vn -0.9715 0.2116 0.1069
vn 0.8615 0.4615 -0.2116
vn -0.2798 -0.9566 0.0809
vn 0.9697 -0.2069 -0.1300
vn -0.4693 0.8762 -0.1100
vn -0.4528 0.8454 -0.2833
vn 0.7582 0.4061 -0.5102
vn -0.7826 -0.4193 -0.4602
vn 0.4146 -0.7739 -0.4787
vn -0.8663 -0.4420 0.2326
vn -0.9373 -0.3192 0.1401
vn -0.9785 -0.1539 -0.1370
vn -0.8204 -0.5717 -0.0057
vn -0.8044 -0.5839 0.1093
vn 0.7662 0.6405 -0.0510
vn 0.9933 0.1123 0.0274
vn -0.9938 -0.0825 -0.0746
vn -0.9594 -0.2313 -0.1612
vn -0.9899 -0.0916 0.1085
vn -0.8892 0.0134 0.4573
vn -0.6473 0.5861 -0.4874
vn -0.7016 0.5094 -0.4982
vn -0.8806 0.4294 -0.2003
vn 0.9574 -0.0908 0.2741
vn 0.7093 0.6267 0.3227
vn -0.9086 -0.0884 -0.4082
vn 0.9969 -0.0531 -0.0588
vn 0.6995 -0.4338 -0.5679
vn 0.8877 -0.4253 -0.1761
vn 0.1278 -0.8381 -0.5303
vn 0.7397 -0.6162 -0.2705
vn -0.8532 0.5214 -0.0119
vn 0.8519 -0.5224 0.0374
vn -0.0858 -0.4960 0.8641
vn 0.8300 -0.5478 -0.1049
vn -0.1035 -0.9922 0.0695
vn -0.3488 0.8590 0.3749
vn -0.0258 0.6093 -0.7925
vn 0.0229 0.8388 0.5439
vn -0.2650 0.8170 0.5122
vn -0.1399 0.8860 -0.4422
vn -0.0920 0.9955 -0.0213
vn -0.3418 0.9084 0.2406
vn -0.4999 0.7970 -0.3388
vn -0.3325 0.8780 -0.3444
vn 0.0511 0.9947 -0.0894
vn -0.0059 -1.0000 0.0080
vn 0.7529 0.6514 0.0943
vn 0.8890 0.4075 -0.2088
vn -0.1964 0.8389 -0.5076
vn 0.7611 0.4038 -0.5076
vn -0.4137 -0.9104 0.0000
vn -0.5816 0.8135 0.0000
vn -0.9562 -0.0606 0.2864
vn -0.8672 0.1021 0.4874
vn -0.8452 0.1935 0.4983
vn -0.9026 0.3809 0.2003
vn 0.6981 -0.6615 -0.2741
vn -0.0056 -0.9465 -0.3227
vn -0.5309 0.7426 0.4082
vn 0.6956 -0.7160 0.0588
vn 0.7868 -0.2417 0.5679
vn 0.9042 -0.3890 0.1761
vn 0.7154 0.4549 0.5303
vn 0.9507 -0.1518 0.2705
vn -0.9539 0.2998 0.0119
vn 0.9538 -0.2981 -0.0374
vn 0.3172 0.3908 -0.8641
vn 0.9585 -0.2649 0.1050
vn 0.6794 0.7305 -0.0695
vn -0.8764 -0.3022 -0.3749
vn -0.4874 -0.3292 0.8087
vn -0.6602 -0.5302 -0.5319
vn -0.8130 -0.2163 -0.5406
vn -0.8031 -0.4109 0.4314
vn -0.8570 -0.5143 0.0326
vn -0.9230 -0.3700 -0.1053
vn -0.9308 -0.2512 0.2656
vn -0.9173 -0.2930 0.2696
vn -0.7469 -0.6625 0.0573
vn 0.7493 0.6621 -0.0080
vn 0.0044 -0.9955 -0.0943
vn 0.2777 -0.9377 0.2087
vn -0.3140 0.6062 -0.7307
vn 0.6632 0.1621 -0.7307
vn 0.3617 0.7959 0.4855
vn -0.2375 -0.5225 0.8189
vn -0.3399 -0.7480 -0.5700
vn -0.4137 -0.9104 -0.0088
vn -0.2958 -0.6508 -0.6993
vn -0.0923 -0.2032 -0.9748
vn 0.0494 0.1087 -0.9928
vn 0.3906 0.8595 -0.3296
vn -0.3727 -0.8202 0.4339
vn 0.4062 0.8938 0.1901
vn 0.3363 0.7401 -0.5824
vn 0.3383 0.7446 0.5754
vn 0.3711 0.8164 -0.4425
vn 0.3898 0.8578 -0.3350
vn 0.2227 0.4901 -0.8427
vn -0.0331 -0.0729 -0.9968
vn 0.9700 0.2423 0.0202
vn 0.4190 -0.9001 -0.1194
vn -0.8805 -0.4717 0.0471
vn 0.3435 -0.9351 0.0877
vn -0.9691 -0.1290 0.2101
vn 0.4400 -0.4840 -0.7564
vn 0.5748 -0.8014 -0.1652
vn -0.6220 -0.4242 0.6582
vn 0.7038 -0.6557 -0.2732
vn 0.6926 0.7213 0.0077
vn -0.0713 0.8775 0.4742
vn 0.6084 -0.4470 -0.6557
vn -0.3607 0.1795 -0.9152
vn 0.9557 0.1727 0.2386
vn 0.3923 0.1284 0.9108
vn 0.0949 0.1759 0.9798
vn -0.2391 -0.9505 -0.1987
vn 0.8270 0.3352 -0.4513
vn -0.6406 -0.7521 -0.1549
vn -0.6109 -0.7906 -0.0414
vn 0.8446 0.5249 0.1059
vn -0.6084 -0.7921 -0.0489
vn 0.1489 -0.4451 -0.8830
vn -0.4185 -0.9054 -0.0718
vn -0.3121 -0.7871 -0.5320
vn -0.3487 -0.9131 -0.2113
vn 0.8577 -0.0855 -0.5070
vn 0.3831 -0.7300 -0.5660
vn -0.6834 0.5959 0.4218
vn -0.8849 -0.2465 0.3951
vn 0.9674 0.0097 -0.2530
vn -0.0810 0.4260 0.9011
vn 0.1894 -0.4809 -0.8561
vn 0.9372 0.2931 -0.1891
vn 0.7350 -0.6765 -0.0462
vn 0.1177 -0.9927 0.0280
vn -0.0748 0.9866 0.1452
vn -0.7413 0.6584 0.1303
vn -0.0097 0.9948 0.1013
vn -0.8609 0.5080 -0.0292
vn -0.3241 0.6051 -0.7272
vn 0.8911 0.4427 0.0999
vn -0.2922 -0.8367 -0.4633
vn -0.4611 0.8608 0.2154
vn 0.8773 -0.3064 -0.3694
vn -0.9006 -0.4322 -0.0469
vn 0.3290 0.9421 -0.0641
vn -0.9415 0.3288 -0.0735
vn 0.5728 -0.8119 -0.1129
vn -0.9411 0.3287 0.0790
vn 0.8808 0.4719 -0.0381
vn 0.5021 -0.8556 0.1263
vn 0.3280 0.9392 -0.1016
vn -0.8615 -0.4615 0.2118
vn 0.9413 -0.3288 -0.0762
vn -0.3278 -0.9384 0.1093
vn -0.4427 0.8911 0.0999
vn -0.3799 0.8844 0.2710
vn -0.5938 -0.3181 0.7391
vn 0.8670 0.4644 0.1808
vn 0.5378 -0.7079 0.4578
vn 0.8479 0.4766 -0.2321
vn 0.7879 0.5997 -0.1402
vn 0.6702 0.7294 0.1370
vn 0.9305 0.3662 0.0057
vn 0.9318 0.3462 -0.1093
vn -0.9578 -0.2830 0.0510
vn -0.6439 -0.7647 -0.0274
vn 0.6192 0.7817 0.0746
vn 0.3389 0.8664 0.3666
vn 0.6247 0.7733 -0.1085
vn 0.4816 0.7476 -0.4573
vn -0.7392 -0.6732 -0.0202
vn 0.5014 -0.8620 0.0748
vn 0.8805 0.4717 -0.0471
vn 0.5881 -0.8040 -0.0877
vn 0.6443 0.7353 -0.2101
vn -0.8234 -0.4411 0.3569
vn -0.8434 -0.4518 0.2909
vn -0.1273 -0.2801 -0.9515
vn 0.7325 -0.2725 -0.6239
vn -0.7342 0.3275 -0.5946
vn -0.6551 0.1097 -0.7475
vn 0.5217 -0.4233 -0.7407
vn -0.6598 0.0128 -0.7513
vn 0.4977 -0.4828 -0.7205
vn 0.8041 0.5944 0.0152
vn 0.5762 -0.7249 0.3776
vn -0.2471 -0.9301 0.2719
vn -0.5813 0.7946 -0.1749
vn -0.3444 0.4333 0.8328
vn 0.0015 0.9172 0.3985
vn 0.7138 -0.4577 -0.5301
vn 0.3689 -0.8890 0.2712
vn 0.1018 -0.9387 0.3295
vn 0.1025 0.9938 -0.0442
vn -0.9926 0.1214 0.0000
vn 0.8142 -0.2367 0.5301
vn 0.9122 0.3070 -0.2713
vn 0.7741 0.5406 -0.3295
vn -0.6812 -0.7308 0.0442
vn -0.4136 -0.9104 -0.0088
vn -0.2957 -0.6509 -0.6992
vn 0.4062 0.8938 0.1900
vn 0.3363 0.7400 -0.5825
vn 0.3384 0.7445 0.5755
vn 0.3710 0.8164 -0.4425
vn 0.9837 0.1764 0.0341
vn 0.3253 -0.9426 -0.0753
vn -0.9703 -0.1982 0.1386
vn -0.4034 -0.8460 -0.3486
vn 0.7214 -0.6290 -0.2897
vn 0.9838 0.1268 0.1269
vn -0.6026 0.7844 0.1466
vn -0.3722 0.3245 -0.8696
vn -0.7644 0.5069 -0.3985
vn -0.6078 -0.7921 -0.0564
vn 0.4819 -0.8723 0.0832
vn 0.7026 0.6979 -0.1386
s off
f 5//1 20//1 19//1
f 9//2 28//2 7//2
f 11//3 12//3 10//3
f 12//4 17//4 16//4
f 16//5 15//5 14//5
f 14//6 11//6 10//6
f 12//7 16//7 18//7
f 17//8 11//8 15//8
f 10//9 18//9 12//9
f 16//10 14//10 18//10
f 14//11 10//11 18//11
f 2//12 19//12 11//12
f 5//13 24//13 4//13
f 23//14 2//14 21//14
f 6//15 21//15 7//15
f 22//16 8//16 9//16
f 21//17 2//17 7//17
f 19//18 3//18 5//18
f 11//19 7//19 2//19
f 23//20 3//20 19//20
f 11//21 19//21 13//21
f 5//22 4//22 20//22
f 13//23 19//23 20//23
f 17//24 20//24 13//24
f 17//25 15//25 20//25
f 20//26 4//26 15//26
f 9//27 7//27 11//27
f 15//28 11//28 9//28
f 15//29 4//29 9//29
f 28//30 9//30 8//30
f 7//31 28//31 6//31
f 28//32 6//32 27//32
f 28//33 27//33 8//33
f 25//34 27//34 6//34
f 8//35 27//35 26//35
f 39//36 40//36 38//36
f 34//37 41//37 39//37
f 34//38 36//38 39//38
f 39//39 38//39 36//39
f 36//40 37//40 38//40
f 38//41 40//41 37//41
f 37//42 35//42 40//42
f 34//43 41//43 35//43
f 41//44 35//44 40//44
f 34//45 35//45 45//45
f 45//46 34//46 44//46
f 45//47 42//47 35//47
f 35//48 37//48 42//48
f 42//49 43//49 37//49
f 37//50 36//50 43//50
f 34//51 44//51 36//51
f 43//52 44//52 36//52
f 43//53 46//53 44//53
f 43//54 42//54 46//54
f 45//55 44//55 46//55
f 42//56 45//56 46//56
f 4//57 24//57 9//57
f 9//58 24//58 22//58
f 6//59 47//59 25//59
f 8//60 22//60 48//60
f 8//61 48//61 50//61
f 8//62 26//62 50//62
f 49//63 21//63 6//63
f 49//64 47//64 6//64
f 23//65 2//65 19//65
f 52//66 40//66 51//66
f 40//67 52//67 38//67
f 33//68 55//68 54//68
f 31//69 55//69 33//69
f 31//70 53//70 55//70
f 58//71 31//71 53//71
f 57//72 30//72 58//72
f 31//73 30//73 58//73
f 53//74 61//74 58//74
f 1//75 61//75 62//75
f 61//76 53//76 62//76
f 62//77 64//77 1//77
f 65//78 60//78 59//78
f 53//79 66//79 55//79
f 53//80 66//80 62//80
f 67//81 63//81 60//81
f 60//82 65//82 67//82
f 62//83 66//83 65//83
f 55//84 65//84 67//84
f 74//85 72//85 71//85
f 71//86 70//86 74//86
f 73//87 72//87 74//87
f 70//88 69//88 74//88
f 73//89 74//89 67//89
f 67//90 74//90 55//90
f 55//91 74//91 54//91
f 68//92 54//92 74//92
f 69//93 68//93 74//93
f 67//94 73//94 63//94
f 58//95 75//95 57//95
f 58//96 61//96 75//96
f 76//97 91//97 75//97
f 75//98 61//98 76//98
f 29//99 79//99 30//99
f 79//100 80//100 78//100
f 80//101 83//101 82//101
f 83//102 86//102 85//102
f 81//103 86//103 83//103
f 81//104 84//104 86//104
f 88//105 81//105 84//105
f 57//106 79//106 88//106
f 81//107 79//107 88//107
f 84//108 91//108 88//108
f 77//109 91//109 92//109
f 91//110 84//110 92//110
f 92//111 93//111 77//111
f 94//112 90//112 89//112
f 84//113 95//113 86//113
f 84//114 95//114 92//114
f 96//115 63//115 90//115
f 90//116 94//116 96//116
f 92//117 95//117 94//117
f 86//118 94//118 96//118
f 103//119 101//119 100//119
f 100//120 99//120 103//120
f 102//121 101//121 103//121
f 99//122 98//122 103//122
f 102//123 103//123 96//123
f 96//124 103//124 86//124
f 86//125 103//125 85//125
f 97//126 85//126 103//126
f 98//127 97//127 103//127
f 96//128 102//128 63//128
f 88//129 75//129 57//129
f 88//130 91//130 75//130
f 91//131 76//131 87//131
f 56//132 76//132 61//132
f 57//133 79//133 30//133
f 63//134 90//134 60//134
f 90//135 59//135 60//135
f 59//136 93//136 64//136
f 64//137 77//137 1//137
f 77//138 56//138 1//138
f 56//139 87//139 76//139
f 83//140 32//140 33//140
f 73//141 102//141 63//141
f 102//142 72//142 73//142
f 101//143 71//143 72//143
f 100//144 70//144 71//144
f 99//145 69//145 70//145
f 69//146 97//146 68//146
f 97//147 54//147 68//147
f 85//148 33//148 54//148
f 105//149 106//149 104//149
f 107//150 110//150 106//150
f 111//151 108//151 110//151
f 112//152 41//152 40//152
f 51//153 40//153 112//153
f 116//154 131//154 130//154
f 120//155 137//155 118//155
f 122//156 123//156 121//156
f 124//157 127//157 123//157
f 128//158 125//158 127//158
f 126//159 121//159 125//159
f 123//160 127//160 129//160
f 128//161 122//161 126//161
f 121//162 129//162 123//162
f 127//163 125//163 129//163
f 125//164 121//164 129//164
f 113//165 130//165 122//165
f 116//166 24//166 115//166
f 133//167 113//167 132//167
f 117//168 132//168 118//168
f 22//169 119//169 120//169
f 132//170 113//170 118//170
f 130//171 114//171 116//171
f 122//172 118//172 113//172
f 133//173 114//173 130//173
f 122//174 130//174 124//174
f 116//175 115//175 131//175
f 124//176 130//176 131//176
f 128//177 131//177 124//177
f 128//178 126//178 131//178
f 131//179 115//179 126//179
f 120//180 118//180 122//180
f 126//181 122//181 120//181
f 126//182 115//182 120//182
f 137//183 120//183 119//183
f 118//184 137//184 117//184
f 137//185 117//185 136//185
f 137//186 136//186 119//186
f 134//187 136//187 117//187
f 119//188 136//188 135//188
f 39//189 142//189 38//189
f 138//190 143//190 39//190
f 138//191 140//191 39//191
f 39//192 38//192 140//192
f 140//193 141//193 38//193
f 38//194 142//194 141//194
f 141//195 139//195 142//195
f 138//196 143//196 139//196
f 143//197 139//197 142//197
f 138//198 139//198 147//198
f 147//199 138//199 146//199
f 147//200 144//200 139//200
f 139//201 141//201 144//201
f 144//202 145//202 141//202
f 141//203 140//203 145//203
f 138//204 146//204 140//204
f 145//205 146//205 140//205
f 145//206 148//206 146//206
f 145//207 144//207 148//207
f 147//208 146//208 148//208
f 144//209 147//209 148//209
f 115//210 24//210 120//210
f 120//211 24//211 22//211
f 117//212 149//212 134//212
f 119//213 22//213 48//213
f 119//214 48//214 50//214
f 119//215 135//215 50//215
f 150//216 132//216 117//216
f 150//217 149//217 117//217
f 133//218 113//218 130//218
f 151//219 142//219 51//219
f 142//220 151//220 38//220
f 105//221 152//221 104//221
f 153//222 154//222 152//222
f 155//223 108//223 154//223
f 156//224 143//224 142//224
f 51//225 142//225 156//225
f 52//226 151//226 38//226
f 51//227 151//227 52//227
f 77//228 1//228 160//228
f 157//229 56//229 61//229
f 87//230 158//230 91//230
f 87//231 77//231 158//231
f 1//232 56//232 157//232
f 158//233 77//233 160//233
f 157//234 159//234 1//234
f 11//235 13//235 12//235
f 12//236 13//236 17//236
f 16//237 17//237 15//237
f 14//238 15//238 11//238
f 17//239 13//239 11//239
f 39//240 41//240 40//240
f 1//241 56//241 61//241
f 59//242 64//242 65//242
f 64//243 62//243 65//243
f 55//244 66//244 65//244
f 29//99 78//99 79//99
f 79//100 81//100 80//100
f 80//245 81//245 83//245
f 77//246 87//246 91//246
f 89//247 93//247 94//247
f 93//248 92//248 94//248
f 86//249 95//249 94//249
f 90//135 89//135 59//135
f 59//250 89//250 93//250
f 64//251 93//251 77//251
f 77//138 87//138 56//138
f 83//140 82//140 32//140
f 102//252 101//252 72//252
f 101//253 100//253 71//253
f 100//254 99//254 70//254
f 99//255 98//255 69//255
f 69//146 98//146 97//146
f 97//147 85//147 54//147
f 85//148 83//148 33//148
f 105//256 107//256 106//256
f 107//257 111//257 110//257
f 111//258 109//258 108//258
f 122//259 124//259 123//259
f 124//260 128//260 127//260
f 128//261 126//261 125//261
f 126//262 122//262 121//262
f 128//263 124//263 122//263
f 39//264 143//264 142//264
f 105//265 153//265 152//265
f 153//266 155//266 154//266
f 155//267 109//267 108//267
